<?xml version="1.0" encoding="UTF-8" standalone="no"?>
<!DOCTYPE svg PUBLIC "-//W3C//DTD SVG 1.1//EN" "http://www.w3.org/Graphics/SVG/1.1/DTD/svg11.dtd">
<svg width="100%" height="100%" viewBox="0 0 107 107" version="1.1" xmlns="http://www.w3.org/2000/svg" xmlns:xlink="http://www.w3.org/1999/xlink" xml:space="preserve" xmlns:serif="http://www.serif.com/" style="fill-rule:evenodd;clip-rule:evenodd;stroke-miterlimit:3.864;">
    <g transform="matrix(3.125,0,0,3.125,-299.388042,-1313.354709)">
        <g transform="matrix(1.333333,0,0,1.333333,0,0)">
            <clipPath id="_clip1">
                <path d="M75.536,327.719C75.536,327.719 77.803,332.047 83.226,332.557C83.226,332.557 88.483,333.301 92.193,328.626C92.193,328.626 89.592,326.327 83.08,328.709C83.08,328.709 78.783,330.371 75.536,327.719Z" clip-rule="nonzero"/>
            </clipPath>
            <g clip-path="url(#_clip1)">
                <g transform="matrix(1,0,0,1,84.589,327.935)">
                    <path d="M0,8.4L-8.82,-0.42L-9.24,0L-0.42,8.82" style="fill:rgb(221,89,40);fill-rule:nonzero;"/>
                </g>
                <g transform="matrix(1,0,0,1,85.036,327.488)">
                    <path d="M0,8.4L-8.82,-0.42L-9.24,0L-0.42,8.82" style="fill:rgb(218,108,47);fill-rule:nonzero;"/>
                </g>
                <g transform="matrix(1,0,0,1,85.483,327.041)">
                    <path d="M0,8.4L-8.82,-0.42L-9.24,0L-0.42,8.82" style="fill:rgb(215,125,56);fill-rule:nonzero;"/>
                </g>
                <g transform="matrix(1,0,0,1,85.929,326.595)">
                    <path d="M0,8.4L-8.82,-0.42L-9.24,0L-0.42,8.82" style="fill:rgb(211,140,68);fill-rule:nonzero;"/>
                </g>
                <g transform="matrix(1,0,0,1,86.376,326.148)">
                    <path d="M0,8.4L-8.82,-0.42L-9.24,0L-0.42,8.82" style="fill:rgb(207,156,80);fill-rule:nonzero;"/>
                </g>
                <g transform="matrix(1,0,0,1,87.087,325.797)">
                    <path d="M0,8.04L-8.82,-0.78L-9.6,0L-0.78,8.82" style="fill:rgb(207,156,80);fill-rule:nonzero;"/>
                </g>
                <g transform="matrix(1,0,0,1,87.826,325.058)">
                    <path d="M0,8.04L-8.82,-0.78L-9.6,0L-0.78,8.82" style="fill:rgb(213,168,103);fill-rule:nonzero;"/>
                </g>
                <g transform="matrix(1,0,0,1,88.565,324.319)">
                    <path d="M0,8.04L-8.82,-0.78L-9.6,0L-0.78,8.82" style="fill:rgb(219,180,124);fill-rule:nonzero;"/>
                </g>
                <g transform="matrix(1,0,0,1,89.304,323.58)">
                    <path d="M0,8.04L-8.82,-0.78L-9.6,0L-0.78,8.82" style="fill:rgb(226,193,146);fill-rule:nonzero;"/>
                </g>
                <g transform="matrix(1,0,0,1,90.043,322.841)">
                    <path d="M0,8.04L-8.82,-0.78L-9.6,0L-0.78,8.82" style="fill:rgb(232,207,171);fill-rule:nonzero;"/>
                </g>
                <g transform="matrix(1,0,0,1,90.782,322.102)">
                    <path d="M0,8.04L-8.82,-0.78L-9.6,0L-0.78,8.82" style="fill:rgb(238,221,196);fill-rule:nonzero;"/>
                </g>
                <g transform="matrix(1,0,0,1,91.521,321.363)">
                    <path d="M0,8.04L-8.82,-0.78L-9.6,0L-0.78,8.82" style="fill:rgb(245,235,222);fill-rule:nonzero;"/>
                </g>
                <g transform="matrix(1,0,0,1,92.26,320.624)">
                    <path d="M0,8.04L-8.82,-0.78L-9.6,0L-0.78,8.82" style="fill:white;fill-rule:nonzero;"/>
                </g>
            </g>
        </g>
        <g transform="matrix(1.333333,0,0,1.333333,112.221333,431.477333)">
            <path d="M0,7.461C0,7.461 0.497,5.75 0.21,4.137C0.21,4.137 0.136,3.9 0.02,3.681C0.02,3.681 -0.52,2.934 -0.828,2.032C-0.828,2.032 -0.984,1.79 -1.175,1.681C-1.175,1.681 -1.818,1.238 -2.056,0.687L-1.917,0.527C-1.917,0.527 -1.627,1.06 -0.816,1.396C-0.816,1.396 -0.722,1.463 -0.697,1.33C-0.697,1.33 -0.5,0.424 -0.589,-0.292C-0.589,-0.292 -0.481,-0.421 -0.398,-0.3C-0.398,-0.3 -0.314,0.528 -0.312,1.349C-0.312,1.349 -0.294,1.868 -0.153,2.103C-0.153,2.103 -0.134,2.14 -0.087,2.131C-0.087,2.131 0.636,1.921 0.723,0.175C0.723,0.175 0.824,0.06 0.923,0.176C0.923,0.176 1.11,1.163 0.468,2.448C0.468,2.448 0.436,2.493 0.449,2.54C0.449,2.54 0.471,3.1 0.96,3.229C0.96,3.229 1.073,3.249 1.107,3.153C1.107,3.153 1.404,2.594 1.512,2.166C1.512,2.166 1.548,2.019 1.568,1.902C1.568,1.902 1.651,1.417 1.757,0.913C1.757,0.913 1.87,0.763 1.906,0.913C1.942,1.063 1.915,0.934 1.915,0.934C1.915,0.934 1.853,1.691 1.924,2.001C1.924,2.001 1.989,2.075 2.037,2.015C2.037,2.015 2.477,1.656 2.813,1.012C2.813,1.012 2.869,0.896 2.836,0.787C2.836,0.787 2.701,0.402 2.686,-0.06C2.686,-0.06 2.766,-0.129 2.836,-0.096C2.836,-0.096 2.847,0.182 2.993,0.587C2.993,0.587 3.184,0.419 3.286,0.156C3.286,0.156 3.416,0.089 3.396,0.227C3.396,0.227 3.309,0.813 2.581,2.045C2.581,2.045 2.532,2.13 2.646,2.119C2.646,2.119 3.345,2.117 3.813,1.703C3.813,1.703 3.963,1.672 3.942,1.841C3.942,1.841 3.714,2.32 2.641,2.678C2.641,2.678 2.553,2.695 2.48,2.728C2.48,2.728 2.407,2.762 2.373,2.838C2.373,2.838 1.88,3.63 1.816,4.359C1.816,4.359 1.458,5.992 2.086,7.66C2.086,7.66 1.502,7.882 -0.116,7.86C-0.116,7.86 -0.059,7.674 0,7.461" style="fill:rgb(95,66,58);fill-rule:nonzero;"/>
        </g>
        <g transform="matrix(1.333333,0,0,1.333333,114.758667,431.592)">
            <path d="M0,1.3C0,1.3 -0.4,1.286 -0.643,0.901C-0.643,0.901 -0.749,0.767 -0.839,0.616C-0.839,0.616 -0.555,0.646 -0.318,0.824C-0.318,0.824 -0.496,0.556 -0.457,0.198C-0.457,0.198 -0.124,0.432 -0.049,0.627C-0.049,0.627 -0.015,0.229 0.161,0C0.161,0 0.332,0.255 0.245,0.687C0.245,0.687 0.582,0.427 0.7,0.254C0.7,0.254 0.687,0.614 0.473,0.835C0.473,0.835 0.796,0.781 0.931,0.688C0.931,0.688 0.5,1.282 0,1.3" style="fill:rgb(101,149,45);fill-rule:nonzero;"/>
        </g>
        <g transform="matrix(1.333333,0,0,1.333333,114.673333,430.621333)">
            <path d="M0,0.236C0,0.236 0.279,0.741 0.858,0.694C0.858,0.694 1.411,0.561 1.467,-0.043C1.467,-0.043 1.334,0.12 1.123,0.256C1.123,0.256 1.323,-0.04 1.24,-0.326C1.24,-0.326 0.985,-0.075 0.948,0.062C0.948,0.062 0.908,-0.365 0.704,-0.505C0.704,-0.505 0.591,-0.199 0.644,0.093C0.644,0.093 0.443,-0.103 0.163,-0.166C0.163,-0.166 0.274,0.161 0.505,0.352C0.505,0.352 0.306,0.388 0,0.236" style="fill:rgb(0,106,41);fill-rule:nonzero;"/>
        </g>
        <g transform="matrix(1.333333,0,0,1.333333,116.613333,430.754667)">
            <path d="M0,0.878C0,0.878 0.679,1.282 1.225,0.777C1.225,0.777 0.884,0.86 0.617,0.71C0.617,0.71 1.093,0.589 1.217,0.249C1.217,0.249 0.875,0.172 0.615,0.373C0.615,0.373 0.826,0.082 0.782,-0.358C0.782,-0.358 0.49,-0.178 0.342,0.222C0.342,0.222 0.252,-0.223 0.035,-0.404C0.035,-0.404 -0.098,0.027 0.012,0.345C0.012,0.345 -0.264,0.253 -0.428,-0.011C-0.428,-0.011 -0.35,0.643 0,0.878" style="fill:rgb(0,106,41);fill-rule:nonzero;"/>
        </g>
        <g transform="matrix(1.333333,0,0,1.333333,118.909333,432.508)">
            <path d="M0,1.341C0,1.341 -0.84,1.507 -1.266,1.145C-1.266,1.145 -1.65,0.818 -1.553,0.089C-1.553,0.089 -1.389,0.287 -1.204,0.619C-1.204,0.619 -1.188,0.161 -0.95,-0.166C-0.95,-0.166 -0.864,0.138 -0.873,0.581C-0.873,0.581 -0.621,0.149 -0.259,0.106C-0.259,0.106 -0.262,0.379 -0.665,0.787C-0.665,0.787 -0.243,0.811 -0.026,0.921C-0.026,0.921 -0.386,1.061 -0.641,1.07C-0.641,1.07 -0.133,1.318 0,1.341" style="fill:rgb(0,106,41);fill-rule:nonzero;"/>
        </g>
        <g transform="matrix(1.333333,0,0,1.333333,110.214667,432.762667)">
            <path d="M0,-1.528C0,-1.528 0.299,-0.622 -0.155,-0.043C-0.155,-0.043 -0.356,0.169 -0.773,0.167C-0.773,0.167 -1.285,0.172 -1.823,-0.272C-1.823,-0.272 -1.621,-0.406 -1.03,-0.343C-1.03,-0.343 -1.458,-0.748 -1.56,-1.145C-1.56,-1.145 -1.068,-1.02 -0.703,-0.739C-0.698,-0.736 -0.856,-1.378 -0.763,-1.7C-0.763,-1.7 -0.458,-1.471 -0.229,-0.868C-0.229,-0.868 -0.053,-1.23 -0.008,-1.545L0,-1.528" style="fill:rgb(101,149,45);fill-rule:nonzero;"/>
        </g>
        <g transform="matrix(1.333333,0,0,1.333333,0,0)">
            <clipPath id="_clip2">
                <path d="M86.102,331.712C86.102,331.712 87.541,330.876 89.756,331.346C89.756,331.346 92.17,331.893 93.295,331.277C93.295,331.277 92.345,332.052 90.404,331.812C90.404,331.812 89.693,331.699 89.195,331.633C89.195,331.633 88.109,331.294 86.102,331.712Z" clip-rule="nonzero"/>
            </clipPath>
            <g clip-path="url(#_clip2)">
                <g transform="matrix(1,0,0,1,92.746,334.597)">
                    <path d="M0,-3.6L-1.679,-0.305L-1.08,0L0.599,-3.295" style="fill:rgb(3,70,148);fill-rule:nonzero;"/>
                </g>
                <g transform="matrix(1,0,0,1,92.179,334.309)">
                    <path d="M0,-3.6L-1.679,-0.305L-1.08,0L0.599,-3.295" style="fill:rgb(35,75,153);fill-rule:nonzero;"/>
                </g>
                <g transform="matrix(1,0,0,1,91.612,334.02)">
                    <path d="M0,-3.6L-1.679,-0.305L-1.08,0L0.599,-3.295" style="fill:rgb(54,81,158);fill-rule:nonzero;"/>
                </g>
                <g transform="matrix(1,0,0,1,91.046,333.731)">
                    <path d="M0,-3.6L-1.679,-0.305L-1.08,0L0.599,-3.295" style="fill:rgb(72,87,163);fill-rule:nonzero;"/>
                </g>
                <g transform="matrix(1,0,0,1,90.479,333.442)">
                    <path d="M0,-3.6L-1.679,-0.305L-1.08,0L0.599,-3.295" style="fill:rgb(88,94,170);fill-rule:nonzero;"/>
                </g>
                <g transform="matrix(1,0,0,1,89.96,333.058)">
                    <path d="M0,-3.48L-1.63,-0.28L-1.08,0L0.55,-3.2" style="fill:rgb(88,94,170);fill-rule:nonzero;"/>
                </g>
                <g transform="matrix(1,0,0,1,89.406,332.776)">
                    <path d="M0,-3.48L-1.63,-0.28L-1.08,0L0.55,-3.2" style="fill:rgb(53,115,186);fill-rule:nonzero;"/>
                </g>
                <g transform="matrix(1,0,0,1,88.852,332.493)">
                    <path d="M0,-3.48L-1.63,-0.28L-1.08,0L0.55,-3.2" style="fill:rgb(0,135,203);fill-rule:nonzero;"/>
                </g>
                <g transform="matrix(1,0,0,1,88.297,332.211)">
                    <path d="M0,-3.48L-1.63,-0.28L-1.08,0L0.55,-3.2" style="fill:rgb(0,154,220);fill-rule:nonzero;"/>
                </g>
                <g transform="matrix(1,0,0,1,87.743,331.928)">
                    <path d="M0,-3.48L-1.63,-0.28L-1.08,0L0.55,-3.2" style="fill:rgb(0,174,239);fill-rule:nonzero;"/>
                </g>
            </g>
        </g>
        <g transform="matrix(1.333333,0,0,1.333333,0,0)">
            <clipPath id="_clip3">
                <path d="M86.779,332.116C86.779,332.116 87.96,331.665 88.663,331.858C88.663,331.858 89.079,331.934 89.523,332.008C89.523,332.008 90.699,332.158 91.214,331.933C91.214,331.933 90.089,332.379 89.197,332.284C89.197,332.284 88.686,332.182 88.054,332.079C88.054,332.079 87.56,331.956 86.779,332.116Z" clip-rule="nonzero"/>
            </clipPath>
            <g clip-path="url(#_clip3)">
                <g transform="matrix(1,0,0,1,90.827,333.268)">
                    <path d="M0,-1.44L-0.352,-0.126L0.12,0L0.472,-1.314" style="fill:rgb(3,70,148);fill-rule:nonzero;"/>
                </g>
                <g transform="matrix(1,0,0,1,90.419,333.159)">
                    <path d="M0,-1.44L-0.352,-0.126L0.12,0L0.472,-1.314" style="fill:rgb(35,75,153);fill-rule:nonzero;"/>
                </g>
                <g transform="matrix(1,0,0,1,90.011,333.05)">
                    <path d="M0,-1.44L-0.352,-0.126L0.12,0L0.472,-1.314" style="fill:rgb(54,81,158);fill-rule:nonzero;"/>
                </g>
                <g transform="matrix(1,0,0,1,89.603,332.94)">
                    <path d="M0,-1.44L-0.352,-0.126L0.12,0L0.472,-1.314" style="fill:rgb(72,87,163);fill-rule:nonzero;"/>
                </g>
                <g transform="matrix(1,0,0,1,89.195,332.831)">
                    <path d="M0,-1.44L-0.352,-0.126L0.12,0L0.472,-1.314" style="fill:rgb(88,94,170);fill-rule:nonzero;"/>
                </g>
                <g transform="matrix(1,0,0,1,88.808,332.727)">
                    <path d="M0,-1.44L-0.352,-0.126L0.12,0L0.472,-1.314" style="fill:rgb(88,94,170);fill-rule:nonzero;"/>
                </g>
                <g transform="matrix(1,0,0,1,88.382,332.613)">
                    <path d="M0,-1.44L-0.352,-0.126L0.12,0L0.472,-1.314" style="fill:rgb(53,115,186);fill-rule:nonzero;"/>
                </g>
                <g transform="matrix(1,0,0,1,87.955,332.499)">
                    <path d="M0,-1.44L-0.352,-0.126L0.12,0L0.472,-1.314" style="fill:rgb(0,135,203);fill-rule:nonzero;"/>
                </g>
                <g transform="matrix(1,0,0,1,87.529,332.385)">
                    <path d="M0,-1.44L-0.352,-0.126L0.12,0L0.472,-1.314" style="fill:rgb(0,154,220);fill-rule:nonzero;"/>
                </g>
                <g transform="matrix(1,0,0,1,87.103,332.271)">
                    <path d="M0,-1.44L-0.352,-0.126L0.12,0L0.472,-1.314" style="fill:rgb(0,174,239);fill-rule:nonzero;"/>
                </g>
            </g>
        </g>
        <g transform="matrix(1.333333,0,0,1.333333,0,0)">
            <clipPath id="_clip4">
                <path d="M83.675,332.628C83.675,332.628 84.949,332.707 85.966,332.457C85.966,332.457 87.769,332.1 88.955,332.649C88.955,332.649 87.92,332.384 86.691,332.68C86.691,332.68 85.323,332.986 83.675,332.628Z" clip-rule="nonzero"/>
            </clipPath>
            <g clip-path="url(#_clip4)">
                <g transform="matrix(1,0,0,1,88.715,335.228)">
                    <path d="M0,-2.76L-1.935,-0.192L-1.68,0L0.255,-2.568" style="fill:rgb(3,70,148);fill-rule:nonzero;"/>
                </g>
                <g transform="matrix(1,0,0,1,88.459,335.035)">
                    <path d="M0,-2.76L-1.935,-0.192L-1.68,0L0.255,-2.568" style="fill:rgb(35,75,153);fill-rule:nonzero;"/>
                </g>
                <g transform="matrix(1,0,0,1,88.203,334.842)">
                    <path d="M0,-2.76L-1.935,-0.192L-1.68,0L0.255,-2.568" style="fill:rgb(54,81,158);fill-rule:nonzero;"/>
                </g>
                <g transform="matrix(1,0,0,1,87.947,334.649)">
                    <path d="M0,-2.76L-1.935,-0.192L-1.68,0L0.255,-2.568" style="fill:rgb(72,87,163);fill-rule:nonzero;"/>
                </g>
                <g transform="matrix(1,0,0,1,87.692,334.457)">
                    <path d="M0,-2.76L-1.935,-0.192L-1.68,0L0.255,-2.568" style="fill:rgb(88,94,170);fill-rule:nonzero;"/>
                </g>
                <g transform="matrix(1,0,0,1,87.291,334.275)">
                    <path d="M0,-2.88L-1.906,-0.351L-1.44,0L0.466,-2.529" style="fill:rgb(88,94,170);fill-rule:nonzero;"/>
                </g>
                <g transform="matrix(1,0,0,1,86.859,333.949)">
                    <path d="M0,-2.88L-1.906,-0.351L-1.44,0L0.466,-2.529" style="fill:rgb(53,115,186);fill-rule:nonzero;"/>
                </g>
                <g transform="matrix(1,0,0,1,86.426,333.623)">
                    <path d="M0,-2.88L-1.906,-0.351L-1.44,0L0.466,-2.529" style="fill:rgb(0,135,203);fill-rule:nonzero;"/>
                </g>
                <g transform="matrix(1,0,0,1,85.994,333.297)">
                    <path d="M0,-2.88L-1.906,-0.351L-1.44,0L0.466,-2.529" style="fill:rgb(0,154,220);fill-rule:nonzero;"/>
                </g>
                <g transform="matrix(1,0,0,1,85.561,332.971)">
                    <path d="M0,-2.88L-1.906,-0.351L-1.44,0L0.466,-2.529" style="fill:rgb(0,174,239);fill-rule:nonzero;"/>
                </g>
            </g>
        </g>
        <g transform="matrix(1.333333,0,0,1.333333,110.154667,430.329333)">
            <path d="M0,0.185C0,0.185 0.348,0.365 0.599,0.363C0.599,0.363 0.331,0.05 0.289,-0.487C0.289,-0.487 0.465,-0.102 0.83,0.114C0.83,0.114 0.832,-0.454 1.034,-0.689C1.034,-0.689 1.225,-0.447 1.171,0.094C1.171,0.094 1.35,-0.321 1.657,-0.411C1.657,-0.411 1.638,-0.051 1.431,0.228C1.431,0.228 1.727,-0.03 1.946,-0.068C1.946,-0.068 1.718,0.62 0.989,0.794C0.989,0.794 0.416,0.874 0,0.185" style="fill:rgb(0,106,41);fill-rule:nonzero;"/>
        </g>
        <g transform="matrix(1.333333,0,0,1.333333,112.044,431.298667)">
            <path d="M0,-0.364C0,-0.364 0.318,-0.265 0.527,-0.054C0.527,-0.054 0.37,-0.623 0.388,-0.93C0.388,-0.93 0.773,-0.653 0.882,-0.235C0.882,-0.235 0.993,-0.676 1.296,-0.996C1.296,-0.996 1.291,-0.473 1.258,-0.098C1.258,-0.098 1.7,-0.246 1.847,-0.424C1.847,-0.424 1.695,0.261 1.129,0.5C1.129,0.5 0.792,0.632 0.543,0.44C0.543,0.44 0.139,0.181 0,-0.364" style="fill:rgb(101,149,45);fill-rule:nonzero;"/>
        </g>
        <g transform="matrix(1.333333,0,0,1.333333,103.901333,436.324)">
            <path d="M0,-2.576C0,-2.576 -1.377,-2.963 -1.925,-1.952C-1.925,-1.952 -2.585,-0.729 -1.453,-0.154C-1.453,-0.154 -0.311,0.387 0.504,-0.462C0.504,-0.462 1.002,-0.908 0.699,-1.831C0.699,-1.831 0.766,-0.46 -0.585,-0.422C-0.585,-0.422 -1.638,-0.374 -1.652,-1.354C-1.652,-1.354 -1.618,-2.599 0,-2.576" style="fill:rgb(253,184,19);fill-rule:nonzero;"/>
        </g>
        <g transform="matrix(1.333333,0,0,1.333333,0,395.403467)">
            <clipPath id="_clip5">
                <path d="M78.447,28.61C78.447,28.61 77.677,27.93 76.862,28.643C76.862,28.643 76.307,29.211 76.667,29.779C76.667,29.779 77.208,30.635 78.219,29.66C78.219,29.66 77.497,29.981 77.284,29.294C77.284,29.294 77.182,28.827 77.576,28.578C77.576,28.578 77.879,28.341 78.447,28.61Z" clip-rule="nonzero"/>
            </clipPath>
            <g clip-path="url(#_clip5)">
                <rect x="76.545" y="28.32" width="1.902" height="1.807" style="fill:url(#_Linear6);"/>
            </g>
        </g>
        <g transform="matrix(-1.174137,0.631806,0.631806,1.174137,104.600565,434.368907)">
            <path d="M0.361,-0.629C0.361,-0.629 -0.023,-0.647 -0.046,-0.262C-0.046,-0.262 -0.034,0.14 0.361,0.101C0.361,0.101 0.782,-0.02 0.674,-0.385C0.674,-0.385 0.584,-0.623 0.361,-0.629" style="fill:rgb(176,16,22);fill-rule:nonzero;"/>
        </g>
        <g transform="matrix(1.333333,0,0,1.333333,0,397.080667)">
            <clipPath id="_clip7">
                <path d="M78.38,26.911C78.38,26.911 79.361,27.611 78.936,28.762C78.936,28.762 78.647,29.74 77.391,29.733C77.391,29.733 76.331,29.668 75.909,29.089C75.909,29.089 76.348,30.356 77.899,30.252C77.899,30.252 79.114,30.219 79.479,28.969C79.479,28.969 79.909,27.279 78.38,26.911Z" clip-rule="nonzero"/>
            </clipPath>
            <g clip-path="url(#_clip7)">
                <rect x="75.909" y="26.911" width="3.6" height="3.368" style="fill:url(#_Linear8);"/>
            </g>
        </g>
        <g transform="matrix(-1.132854,-0.70315,-0.70315,1.132854,104.943245,433.050714)">
            <path d="M1.686,0.735C1.686,0.735 1.123,-0.259 -0.183,-0.08C-0.183,-0.08 0.897,-0.089 1.686,0.769L1.758,0.851L1.686,0.735" style="fill:rgb(220,101,29);"/>
        </g>
        <g transform="matrix(0,1.333333,1.333333,0,112.769333,424.241333)">
            <circle cx="9.748" cy="0" r="9.748" style="fill:none;stroke:rgb(167,28,32);stroke-width:0.05px;"/>
        </g>
        <g transform="matrix(0,1.333333,1.333333,0,112.813333,420.5)">
            <circle cx="12.587" cy="0" r="12.587" style="fill:none;stroke:rgb(167,28,32);stroke-width:0.09px;"/>
        </g>
        <g transform="matrix(1.333333,0,0,1.333333,96.708,440.448)">
            <path d="M0,-1.533L0.062,-1.095L1.137,-1.246L0.194,-0.156L0.25,0.247L2.009,-0.001L1.948,-0.439L0.821,-0.281L1.811,-1.411L1.759,-1.78L0,-1.533" style="fill:rgb(167,28,32);fill-rule:nonzero;"/>
        </g>
        <g transform="matrix(1.333333,0,0,1.333333,96.758667,437.009333)">
            <path d="M0,-0.687L-0.036,-0.175L1.686,0.663L1.719,0.196L1.378,0.039L1.433,-0.754L1.794,-0.875L1.827,-1.35L0,-0.687ZM1.115,-0.646L1.076,-0.1L0.406,-0.408L1.115,-0.646" style="fill:rgb(167,28,32);"/>
        </g>
        <g transform="matrix(1.333333,0,0,1.333333,98.072,433.550667)">
            <path d="M0,-0.119L-0.784,0.261L-0.884,0.634L0.832,1.094L0.947,0.666L-0.125,0.379L0.537,0.06L0.555,-0.005L0.14,-0.613L1.212,-0.325L1.327,-0.753L-0.389,-1.213L-0.489,-0.841L0,-0.119" style="fill:rgb(167,28,32);fill-rule:nonzero;"/>
        </g>
        <g transform="matrix(-0.541518,1.218415,1.218415,0.541518,100.184616,430.770725)">
            <path d="M0.5,-1.452L0.943,-1.452L0.943,0.325L0.501,0.325L0.5,-1.452" style="fill:rgb(167,28,32);fill-rule:nonzero;"/>
        </g>
        <g transform="matrix(1.333333,0,0,1.333333,98.490667,429.670667)">
            <path d="M0,0.121L1.523,1.036L1.968,0.295C2.235,-0.15 2.019,-0.407 1.845,-0.512C1.666,-0.619 1.446,-0.606 1.26,-0.423C1.274,-0.588 1.208,-0.736 1.081,-0.813C0.911,-0.915 0.612,-0.897 0.396,-0.538L0,0.121ZM0.507,-0.091L0.627,-0.29C0.71,-0.428 0.826,-0.434 0.904,-0.387C0.984,-0.339 1.036,-0.232 0.953,-0.094L0.833,0.105L0.507,-0.091ZM1.112,0.273L1.272,0.007C1.352,-0.127 1.472,-0.189 1.583,-0.122C1.715,-0.043 1.727,0.064 1.6,0.274L1.472,0.489L1.112,0.273" style="fill:rgb(167,28,32);"/>
        </g>
        <g transform="matrix(-0.839883,1.035555,1.035555,0.839883,102.303766,428.072697)">
            <path d="M0.33,-1.619L0.773,-1.619L0.772,0.157L0.329,0.157L0.33,-1.619" style="fill:rgb(167,28,32);fill-rule:nonzero;"/>
        </g>
        <g transform="matrix(1.333333,0,0,1.333333,101.892,428.270667)">
            <path d="M0,-2.138L-0.375,-1.788L0.312,0L0.655,-0.32L0.513,-0.668L1.094,-1.21L1.44,-1.052L1.789,-1.377L0,-2.138ZM0.787,-1.348L0.387,-0.975L0.107,-1.657L0.787,-1.348" style="fill:rgb(167,28,32);"/>
        </g>
        <g transform="matrix(1.333333,0,0,1.333333,107.74,424.694667)">
            <path d="M0,-2.054L-1.604,-1.406L-1.482,-1.104L-0.885,-1.345L-0.342,0L0.069,-0.166L-0.475,-1.511L0.122,-1.752L0,-2.054" style="fill:rgb(167,28,32);fill-rule:nonzero;"/>
        </g>
        <g transform="matrix(1.333333,0,0,1.333333,111.005333,422.968)">
            <path d="M0,-0.418C-0.089,-0.836 -0.528,-1.238 -1.183,-1.098C-1.838,-0.959 -2.079,-0.415 -1.99,0.005C-1.896,0.448 -1.441,0.82 -0.804,0.685C-0.18,0.552 0.095,0.028 0,-0.418ZM-0.446,-0.323C-0.378,-0.005 -0.552,0.253 -0.881,0.323C-1.212,0.394 -1.476,0.229 -1.544,-0.09C-1.612,-0.408 -1.437,-0.666 -1.106,-0.737C-0.778,-0.807 -0.514,-0.642 -0.446,-0.323" style="fill:rgb(167,28,32);"/>
        </g>
        <g transform="matrix(1.333333,0,0,1.333333,113.304,423.574667)">
            <path d="M0,-1.808L0.017,-0.818C0.023,-0.501 -0.191,-0.374 -0.426,-0.37C-0.681,-0.366 -0.868,-0.516 -0.873,-0.772L-0.891,-1.792L-1.333,-1.785L-1.316,-0.774C-1.306,-0.225 -0.93,0.008 -0.414,-0.001C0.073,-0.009 0.471,-0.219 0.46,-0.808L0.443,-1.816L0,-1.808" style="fill:rgb(167,28,32);fill-rule:nonzero;"/>
        </g>
        <g transform="matrix(1.333333,0,0,1.333333,114.790667,423.996)">
            <path d="M0,-2.041L-0.339,-0.297L0.096,-0.213L0.233,-0.921L0.359,-0.897C0.594,-0.851 0.598,-0.503 0.712,-0.093L1.19,0C1.044,-0.559 1.032,-0.784 0.87,-0.909C1.088,-0.962 1.215,-1.086 1.253,-1.277C1.303,-1.538 1.138,-1.82 0.78,-1.889L0,-2.041ZM0.373,-1.637L0.592,-1.594C0.756,-1.562 0.827,-1.479 0.802,-1.349C0.773,-1.201 0.646,-1.172 0.526,-1.196L0.295,-1.241L0.373,-1.637" style="fill:rgb(167,28,32);"/>
        </g>
        <g transform="matrix(-1.26789,-0.412591,-0.412591,1.26789,116.368902,423.853109)">
            <path d="M-0.706,-1.664L-0.263,-1.664L-0.264,0.113L-0.707,0.112L-0.706,-1.664" style="fill:rgb(167,28,32);fill-rule:nonzero;"/>
        </g>
        <g transform="matrix(1.333333,0,0,1.333333,120.124,424.298667)">
            <path d="M0,-0.887C-0.162,-1.069 -0.308,-1.183 -0.487,-1.266C-0.86,-1.44 -1.187,-1.369 -1.316,-1.09C-1.586,-0.512 -0.722,-0.226 -0.845,0.038C-0.889,0.132 -0.997,0.148 -1.151,0.077C-1.328,-0.006 -1.444,-0.126 -1.604,-0.388L-1.766,-0.041C-1.644,0.117 -1.538,0.255 -1.258,0.386C-0.899,0.553 -0.555,0.495 -0.411,0.186C-0.149,-0.376 -1,-0.69 -0.887,-0.933C-0.849,-1.013 -0.733,-1.022 -0.589,-0.955C-0.452,-0.891 -0.332,-0.786 -0.146,-0.573L0,-0.887" style="fill:rgb(167,28,32);fill-rule:nonzero;"/>
        </g>
        <g transform="matrix(1.333333,0,0,1.333333,121.493333,425.328)">
            <path d="M0,-0.376L-0.089,-1.243L-0.405,-1.464L-1.424,-0.009L-1.061,0.245L-0.425,-0.664L-0.352,0.068L-0.296,0.106L0.416,-0.075L-0.221,0.834L0.142,1.088L1.161,-0.368L0.845,-0.589L0,-0.376" style="fill:rgb(167,28,32);fill-rule:nonzero;"/>
        </g>
        <g transform="matrix(1.333333,0,0,1.333333,125.805333,430.621333)">
            <path d="M0,-2.114L-1.506,-1.173L-1.048,-0.439C-0.774,0 -0.446,-0.075 -0.274,-0.183C-0.097,-0.293 -0.009,-0.496 -0.087,-0.745C0.053,-0.658 0.215,-0.648 0.341,-0.727C0.509,-0.832 0.629,-1.107 0.407,-1.462L0,-2.114ZM-0.041,-1.566L0.081,-1.369C0.167,-1.232 0.12,-1.126 0.042,-1.078C-0.037,-1.028 -0.156,-1.031 -0.241,-1.168L-0.364,-1.364L-0.041,-1.566ZM-0.64,-1.192L-0.476,-0.929C-0.393,-0.797 -0.392,-0.662 -0.502,-0.593C-0.633,-0.512 -0.733,-0.55 -0.863,-0.758L-0.996,-0.97L-0.64,-1.192" style="fill:rgb(167,28,32);"/>
        </g>
        <g transform="matrix(1.333333,0,0,1.333333,127.085333,430.486667)">
            <path d="M0,1.876C0.396,1.716 0.715,1.213 0.465,0.593C0.214,-0.028 -0.364,-0.171 -0.762,-0.01C-1.182,0.16 -1.47,0.672 -1.226,1.276C-0.987,1.867 -0.423,2.047 0,1.876ZM-0.171,1.453C-0.473,1.575 -0.757,1.449 -0.883,1.137C-1.01,0.823 -0.893,0.534 -0.591,0.412C-0.289,0.291 -0.005,0.417 0.122,0.731C0.248,1.043 0.131,1.331 -0.171,1.453" style="fill:rgb(167,28,32);"/>
        </g>
        <g transform="matrix(1.333333,0,0,1.333333,128.594667,434.806667)">
            <path d="M0,-0.246L-0.098,-0.75L-1.978,-1.114L-1.889,-0.654L-1.518,-0.59L-1.367,0.189L-1.684,0.4L-1.593,0.868L0,-0.246ZM-1.087,0.002L-1.192,-0.534L-0.465,-0.41L-1.087,0.002" style="fill:rgb(167,28,32);"/>
        </g>
        <g transform="matrix(1.333333,0,0,1.333333,128.813333,438.18)">
            <path d="M0,-1.588L-1.776,-1.557L-1.768,-1.114L-1.047,-1.127L-1.045,-0.999C-1.041,-0.76 -1.381,-0.683 -1.757,-0.487L-1.749,0C-1.232,-0.259 -1.015,-0.317 -0.927,-0.501C-0.829,-0.3 -0.682,-0.201 -0.486,-0.204C-0.221,-0.209 0.02,-0.429 0.014,-0.794L0,-1.588ZM-0.318,-1.14L-0.314,-0.916C-0.311,-0.749 -0.377,-0.662 -0.51,-0.66C-0.661,-0.657 -0.715,-0.776 -0.717,-0.898L-0.722,-1.133L-0.318,-1.14" style="fill:rgb(167,28,32);"/>
        </g>
        <g transform="matrix(1.333333,0,0,1.333333,128.806667,440.564)">
            <path d="M0,-1.403L-1.755,-1.681L-1.869,-0.955C-1.98,-0.256 -1.66,0.122 -1.156,0.202C-0.675,0.278 -0.224,0.012 -0.123,-0.629L0,-1.403ZM-0.391,-1.017L-0.435,-0.736C-0.501,-0.322 -0.781,-0.2 -1.082,-0.248C-1.34,-0.289 -1.617,-0.467 -1.547,-0.907L-1.502,-1.193L-0.391,-1.017" style="fill:rgb(167,28,32);"/>
        </g>
        <g transform="matrix(1.333333,0,0,1.333333,104.884,451.113333)">
            <path d="M0,-1.632L-0.659,-0.577L-0.396,-0.413L-0.128,-0.842L-0.053,-0.794C0.09,-0.705 0.005,-0.477 -0.023,-0.18L0.266,0C0.311,-0.402 0.359,-0.552 0.285,-0.674C0.44,-0.654 0.555,-0.703 0.627,-0.819C0.726,-0.976 0.688,-1.202 0.472,-1.337L0,-1.632ZM0.142,-1.274L0.275,-1.191C0.374,-1.13 0.4,-1.057 0.351,-0.979C0.295,-0.889 0.204,-0.902 0.131,-0.948L-0.008,-1.035L0.142,-1.274" style="fill:rgb(167,28,32);"/>
        </g>
        <g transform="matrix(1.333333,0,0,1.333333,107,450.134667)">
            <path d="M0,1.093L-0.555,0.846L-0.433,0.573L0.085,0.804L0.178,0.595L-0.34,0.365L-0.234,0.126L0.309,0.368L0.401,0.16L-0.425,-0.208L-0.93,0.928L-0.093,1.301L0,1.093" style="fill:rgb(167,28,32);fill-rule:nonzero;"/>
        </g>
        <g transform="matrix(1.333333,0,0,1.333333,109.474667,451.988)">
            <path d="M0,-0.665C-0.101,-0.759 -0.261,-0.852 -0.439,-0.906C-0.863,-1.036 -1.232,-0.876 -1.343,-0.513C-1.452,-0.157 -1.234,0.185 -0.819,0.312C-0.628,0.371 -0.387,0.37 -0.27,0.305L-0.121,-0.182L-0.59,-0.325L-0.657,-0.107L-0.484,-0.054L-0.527,0.085C-0.625,0.093 -0.663,0.089 -0.737,0.067C-0.982,-0.008 -1.105,-0.198 -1.041,-0.409C-0.987,-0.586 -0.813,-0.75 -0.49,-0.651C-0.344,-0.606 -0.209,-0.525 -0.079,-0.405L0,-0.665" style="fill:rgb(167,28,32);fill-rule:nonzero;"/>
        </g>
        <g transform="matrix(-1.317226,-0.206624,-0.206624,1.317226,109.682127,452.657404)">
            <path d="M-0.407,-1.212L-0.097,-1.212L-0.094,0.032L-0.404,0.032L-0.407,-1.212" style="fill:rgb(167,28,32);fill-rule:nonzero;"/>
        </g>
        <g transform="matrix(1.333333,0,0,1.333333,112.153333,452.781333)">
            <path d="M0,-1.005C-0.15,-1.086 -0.273,-1.126 -0.411,-1.138C-0.698,-1.163 -0.896,-1.038 -0.915,-0.823C-0.953,-0.378 -0.317,-0.398 -0.334,-0.194C-0.341,-0.122 -0.408,-0.085 -0.526,-0.096C-0.662,-0.108 -0.768,-0.159 -0.935,-0.292L-0.959,-0.026C-0.841,0.049 -0.738,0.115 -0.522,0.133C-0.246,0.158 -0.034,0.037 -0.014,-0.201C0.024,-0.633 -0.611,-0.636 -0.594,-0.823C-0.589,-0.885 -0.515,-0.918 -0.404,-0.909C-0.298,-0.899 -0.194,-0.859 -0.021,-0.763L0,-1.005" style="fill:rgb(167,28,32);fill-rule:nonzero;"/>
        </g>
        <g transform="matrix(1.333333,0,0,1.333333,114.176,452.988)">
            <path d="M0,-1.269L-1.21,-1.227L-1.202,-0.999L-0.752,-1.015L-0.716,0L-0.407,-0.011L-0.442,-1.026L0.008,-1.041L0,-1.269" style="fill:rgb(167,28,32);fill-rule:nonzero;"/>
        </g>
        <g transform="matrix(1.333333,0,0,1.333333,116.002667,451.530667)">
            <path d="M0,0.632L-0.6,0.727L-0.646,0.432L-0.086,0.343L-0.122,0.118L-0.682,0.207L-0.723,-0.051L-0.136,-0.144L-0.171,-0.369L-1.065,-0.228L-0.87,1.001L0.036,0.857L0,0.632" style="fill:rgb(167,28,32);fill-rule:nonzero;"/>
        </g>
        <g transform="matrix(1.333333,0,0,1.333333,116.24,452.182667)">
            <path d="M0,-0.952L0.364,0.237L0.66,0.147L0.512,-0.336L0.598,-0.363C0.758,-0.412 0.875,-0.198 1.08,0.018L1.406,-0.082C1.132,-0.379 1.051,-0.514 0.91,-0.538C1.027,-0.642 1.065,-0.761 1.025,-0.892C0.971,-1.07 0.776,-1.189 0.532,-1.115L0,-0.952ZM0.363,-0.825L0.513,-0.87C0.625,-0.905 0.696,-0.877 0.723,-0.788C0.754,-0.687 0.685,-0.627 0.603,-0.602L0.446,-0.554L0.363,-0.825" style="fill:rgb(167,28,32);"/>
        </g>
        <g transform="matrix(1.333333,0,0,1.333333,119.633333,450.637333)">
            <path d="M0,0.342L-0.555,0.589L-0.676,0.316L-0.158,0.085L-0.251,-0.123L-0.769,0.108L-0.875,-0.131L-0.332,-0.372L-0.425,-0.581L-1.251,-0.213L-0.745,0.923L0.093,0.55L0,0.342" style="fill:rgb(167,28,32);fill-rule:nonzero;"/>
        </g>
        <g transform="matrix(1.333333,0,0,1.333333,119.5,450.354667)">
            <path d="M0,-0.524L0.659,0.531L1.095,0.258C1.516,-0.005 1.568,-0.347 1.379,-0.65C1.198,-0.939 0.85,-1.055 0.465,-0.815L0,-0.524ZM0.384,-0.495L0.552,-0.6C0.801,-0.756 0.994,-0.664 1.107,-0.483C1.204,-0.328 1.237,-0.099 0.973,0.066L0.801,0.173L0.384,-0.495" style="fill:rgb(167,28,32);"/>
        </g>
        <g transform="matrix(1.333333,0,0,1.333333,100.988,444.244)">
            <path d="M0,-0.409L-0.564,0.001L-0.348,0.663L-0.912,0.254L-1.476,0.663L-1.26,0.001L-1.824,-0.409L-1.127,-0.409L-0.912,-1.072L-0.697,-0.409L0,-0.409" style="fill:rgb(167,28,32);fill-rule:nonzero;"/>
        </g>
        <g transform="matrix(1.333333,0,0,1.333333,103.550667,447.765333)">
            <path d="M0,-0.409L-0.564,0.001L-0.348,0.663L-0.912,0.254L-1.476,0.663L-1.26,0.001L-1.824,-0.409L-1.127,-0.409L-0.912,-1.072L-0.697,-0.409L0,-0.409" style="fill:rgb(167,28,32);fill-rule:nonzero;"/>
        </g>
        <g transform="matrix(1.333333,0,0,1.333333,124.636,447.765333)">
            <path d="M0,-0.409L-0.564,0.001L-0.348,0.663L-0.912,0.254L-1.476,0.663L-1.26,0.001L-1.824,-0.409L-1.127,-0.409L-0.912,-1.072L-0.697,-0.409L0,-0.409" style="fill:rgb(167,28,32);fill-rule:nonzero;"/>
        </g>
        <g transform="matrix(1.333333,0,0,1.333333,127.138667,444.217333)">
            <path d="M0,-0.409L-0.564,0.001L-0.348,0.663L-0.912,0.254L-1.476,0.663L-1.26,0.001L-1.824,-0.409L-1.127,-0.409L-0.912,-1.072L-0.697,-0.409L0,-0.409" style="fill:rgb(167,28,32);fill-rule:nonzero;"/>
        </g>
        <g transform="matrix(1.333333,0,0,1.333333,0,0)">
            <clipPath id="_clip9">
                <path d="M86.047,327.87C90.395,327.037 92.193,328.626 92.193,328.626C91.657,329.301 91.09,329.863 90.51,330.33C90.275,330.427 88.051,331.311 87.382,330.604C86.908,330.103 89.057,329.656 89.077,328.687C89.109,327.183 86.09,327.88 86.09,327.88L86.047,327.87Z" clip-rule="nonzero"/>
            </clipPath>
            <g clip-path="url(#_clip9)">
                <g transform="matrix(1,0,0,1,86.128,325.78)">
                    <path d="M0,2.28L4.887,0.205L4.8,0L-0.087,2.075" style="fill:rgb(167,28,32);fill-rule:nonzero;"/>
                </g>
                <g transform="matrix(1,0,0,1,86.216,325.989)">
                    <path d="M0,2.28L4.887,0.205L4.8,0L-0.087,2.075" style="fill:rgb(182,29,34);fill-rule:nonzero;"/>
                </g>
                <g transform="matrix(1,0,0,1,86.305,326.198)">
                    <path d="M0,2.28L4.887,0.205L4.8,0L-0.087,2.075" style="fill:rgb(197,29,35);fill-rule:nonzero;"/>
                </g>
                <g transform="matrix(1,0,0,1,86.394,326.406)">
                    <path d="M0,2.28L4.887,0.205L4.8,0L-0.087,2.075" style="fill:rgb(215,29,36);fill-rule:nonzero;"/>
                </g>
                <g transform="matrix(1,0,0,1,86.482,326.615)">
                    <path d="M0,2.28L4.887,0.205L4.8,0L-0.087,2.075" style="fill:rgb(237,28,36);fill-rule:nonzero;"/>
                </g>
                <g transform="matrix(1,0,0,1,86.697,326.762)">
                    <path d="M0,2.64L4.915,0.554L4.68,0L-0.235,2.086" style="fill:rgb(237,28,36);fill-rule:nonzero;"/>
                </g>
                <g transform="matrix(1,0,0,1,86.928,327.306)">
                    <path d="M0,2.64L4.915,0.554L4.68,0L-0.235,2.086" style="fill:rgb(235,90,49);fill-rule:nonzero;"/>
                </g>
                <g transform="matrix(1,0,0,1,87.159,327.85)">
                    <path d="M0,2.64L4.915,0.554L4.68,0L-0.235,2.086" style="fill:rgb(233,129,71);fill-rule:nonzero;"/>
                </g>
                <g transform="matrix(1,0,0,1,87.39,328.394)">
                    <path d="M0,2.64L4.915,0.554L4.68,0L-0.235,2.086" style="fill:rgb(232,163,96);fill-rule:nonzero;"/>
                </g>
                <g transform="matrix(1,0,0,1,87.621,328.938)">
                    <path d="M0,2.64L4.915,0.554L4.68,0L-0.235,2.086" style="fill:rgb(230,198,124);fill-rule:nonzero;"/>
                </g>
            </g>
        </g>
    </g>
    <defs>
        <linearGradient id="_Linear6" x1="0" y1="0" x2="1" y2="0" gradientUnits="userSpaceOnUse" gradientTransform="matrix(0,1.8074,1.8074,-0,76.5452,28.3198)"><stop offset="0" style="stop-color:rgb(220,101,29);stop-opacity:1"/><stop offset="1" style="stop-color:rgb(253,184,19);stop-opacity:1"/></linearGradient>
        <linearGradient id="_Linear8" x1="0" y1="0" x2="1" y2="0" gradientUnits="userSpaceOnUse" gradientTransform="matrix(0,3.3675,3.3675,-0,75.909,26.9115)"><stop offset="0" style="stop-color:rgb(253,184,19);stop-opacity:1"/><stop offset="1" style="stop-color:rgb(220,101,29);stop-opacity:1"/></linearGradient>
    </defs>
</svg>
