<?xml version="1.0" encoding="UTF-8" standalone="no"?>
<!DOCTYPE svg PUBLIC "-//W3C//DTD SVG 1.1//EN" "http://www.w3.org/Graphics/SVG/1.1/DTD/svg11.dtd">
<svg width="100%" height="100%" viewBox="0 0 277 228" version="1.1" xmlns="http://www.w3.org/2000/svg" xmlns:xlink="http://www.w3.org/1999/xlink" xml:space="preserve" xmlns:serif="http://www.serif.com/" style="fill-rule:evenodd;clip-rule:evenodd;stroke-linejoin:round;stroke-miterlimit:2;">
    <g id="Background">
        <path d="M0,225.5L0,0C0.481,-0.481 0.616,0 8.5,0L276.999,0C277.472,0.789 276.999,0.875 276.999,11.5L276.999,227.999C276.604,228.552 276.408,227.999 268.5,227.999L-0,227.999C-0.429,227.285 0,226.333 0,225.5Z" style="fill:rgb(253,253,253);"/>
        <path d="M151.511,34.82C122.481,35.142 121.524,33.873 119.851,36.692C118.044,39.739 118.253,39.819 98.876,75.701C92.339,87.805 92.766,88.965 91.546,88.409C90.433,87.902 91.273,87.46 91.236,79.504C91.207,73.352 91.26,36.741 91.2,36.543C90.607,34.575 89.85,35.01 76.5,35.013C68.046,35.015 65.941,34.441 65.922,37.511C65.909,39.59 65.787,59.042 66.047,63.503C66.14,65.098 66.521,65.204 65.885,65.885C64.535,67.331 64.497,65.701 61.181,61.771C39.549,36.133 39.838,35.468 37.446,34.984C37.026,34.899 25.951,35.13 15.502,34.972C10.924,34.902 8.828,36.064 9.003,31.499C9.065,29.9 8.947,29.917 9.013,11.5C9.014,11.199 9.024,8.316 9.722,7.804C10.34,7.351 10.422,7.4 142.5,7.4C267.804,7.4 267.85,7.339 268.459,7.605C269.886,8.229 269.632,9.311 269.632,24.5C269.631,33.5 269.63,42.5 269.629,51.5C269.633,57.016 270.015,56.992 269.751,62.493C269.555,62.769 269.925,63.233 269.728,63.509C269.094,64.4 266.131,63.199 259.784,69.761C256.16,73.508 251.483,79.452 250.294,82.424C246.773,91.229 250.413,97.59 249.784,99.607C249.039,101.998 249.113,101.99 249.1,104.487C249.06,112.353 244.137,109.108 240.615,113.587C236.563,118.739 242.109,121.17 235.176,130.234C234.921,130.567 227.026,139.866 231.497,139.759C231.854,139.75 232.209,139.742 235.025,137.023C244.877,126.247 243.389,125.248 243.825,120.534C244.446,113.81 252.946,118.628 254.106,109.468C254.506,106.303 252.798,104.221 253.97,101.724C256.126,97.127 248.185,92.659 261.726,75.668C262.183,75.096 266.99,69.064 267.585,68.635C267.857,68.439 268.214,68.38 268.478,68.174C268.573,68.1 268.514,67.909 268.611,67.837C269.679,67.052 269.788,67.09 269.899,67.129C270.733,67.421 269.734,68.23 270.566,68.522C270.406,68.897 270.075,69.183 269.915,69.559C269.169,71.31 270.047,217.177 269.43,218.47C268.855,219.674 268.402,219.508 237.5,219.509C10.441,219.511 10.353,219.531 9.736,219.155C8.816,218.596 8.945,218.281 8.945,189.5C8.945,95.082 8.915,95.062 9.188,94.355C9.788,92.8 10.434,93.531 31.493,93.278C34.401,93.244 33.814,91.144 33.815,82.5C33.815,64.297 33.692,64.305 33.612,63.506C33.317,60.586 35.025,61.651 35.577,62.402C36.85,64.13 60.421,91.857 62.32,92.869C62.813,93.132 62.853,93.105 85.5,93.103C95.598,93.102 95.56,92.907 101.495,93.252C101.723,93.266 118.984,93.326 119.444,93.19C122.684,92.231 121.632,87.062 125.511,86.842C126.557,86.783 148.5,86.841 150.499,86.846C156.975,86.864 153.945,91.747 157.326,92.845C159.001,93.39 159.017,93.107 178.502,93.098C183.575,93.095 187.831,93.55 187.117,91.63C186.582,90.192 186.382,90.299 178.022,74.743C177.971,74.648 177.588,73.935 177.277,73.621C176.336,72.673 175.602,72.802 175.458,72.731L176.527,71.95C176.877,71.895 177.169,71.619 177.52,71.565C180.919,71.035 185.751,75.971 185.852,76.048C195.789,83.691 192.85,94.334 194.653,96.41C199.399,101.871 199.117,81.581 190.125,72.895C181.426,64.491 180.289,66.293 172.823,65.43C171.38,61.934 164.797,50.063 164.066,48.744C161.22,43.611 161.203,43.666 158.586,38.429C158.05,37.358 157.754,37.647 157.53,37.436C157.477,37.119 157.621,36.789 157.568,36.472C157.476,35.925 156.948,35.921 157.556,34.524C157.668,34.269 159.945,29.93 163.477,29.36C164.905,29.13 165.689,30.183 172.767,22.735C176.997,18.283 177.389,17.944 183.448,18.869C183.518,18.88 193.282,20.682 192.9,17.403C192.663,15.365 190.535,17.036 181.621,14.15C170.691,10.611 168.416,20.25 162.608,22.727C159.282,24.146 155.37,24.401 153.515,31.504C153.154,32.887 153.267,32.911 152.805,33.724C152.252,34.697 152.005,34.402 151.511,34.82Z" style="fill:rgb(3,1,2);"/>
        <path d="M62.834,139.5C62.834,97.779 62.831,97.779 62.838,97.523C62.892,95.409 64.51,95.665 66.5,95.665C99.009,95.664 99.103,95.624 99.817,96.127C100.404,96.541 101.303,99.249 101.397,99.534C109.285,123.312 109.283,123.298 109.715,125.431C109.758,125.643 110.851,131.043 112.24,126.404C112.937,124.078 118.179,106.576 121.411,97.465C122.311,94.927 123.451,95.424 133.5,95.423C157.917,95.422 159.208,95.1 159.289,97.516C159.353,99.403 159.3,144.421 159.296,148.5C159.292,152.08 160.06,153.558 156.502,153.603C138.013,153.837 137.959,154.167 136.447,153.631C134.693,153.01 135.375,148.007 135.334,132.5C135.289,115.764 136.084,115.77 135.783,114.35C135.426,112.669 134.293,112.992 133.8,114.637C132.62,118.565 133.022,118.657 130.945,124.657C126.719,136.866 122.253,152.006 120.939,152.984C120.166,153.559 115.938,153.564 115.5,153.564C101.799,153.581 101.03,153.941 100.21,151.607C90.882,125.042 89.033,117.63 88.28,114.613C87.842,112.856 86.143,113.256 86.309,115.465C86.347,115.96 86.887,115.943 86.806,150.503C86.801,152.787 86.796,153.357 84.501,153.506C82.938,153.608 64.826,153.571 64.493,153.535C62.422,153.313 62.834,152.331 62.834,139.5Z" style="fill:rgb(254,254,254);"/>
        <path d="M110.5,214.173C64.105,214.173 63.943,214.245 63.353,213.651C62.622,212.914 62.866,212.7 62.834,163.5C62.833,162.04 62.638,157.05 63.348,156.363C64.112,155.622 80.05,156.38 87.49,155.83C92.386,155.468 107.75,156.459 122.479,155.867C124.515,155.785 144.046,155 142.579,171.506C142.177,176.037 139.701,179.281 137.493,180.491C134.496,182.133 138.542,183.211 139.812,184.006C141.788,185.243 146.616,187.554 145.528,199.507C144.004,216.249 121.125,214.173 110.5,214.173Z" style="fill:rgb(253,253,253);"/>
        <path d="M226.495,155.804C231.07,155.809 235.266,155.5 236.013,156.823C236.356,157.431 256.45,198.628 256.801,199.36C257.079,199.94 257.13,199.874 260.354,206.571C260.808,207.512 261.232,208.468 261.685,209.41C263.132,212.422 264.849,214.221 261.482,214.214C259.565,214.21 237.726,214.164 237.523,214.156C233.415,213.999 235.723,207.928 230.495,207.77C228.658,207.714 216.671,207.35 207.522,207.807C203.04,208.031 205.525,214.148 200.499,214.175C188.059,214.244 188.084,214.261 175.629,214.159C175.622,210.718 177.279,208.812 182.678,197.585C184.183,194.458 184.186,194.478 201.647,158.572C203.249,155.277 204.033,155.753 211.5,155.787C219.007,155.82 218.979,155.81 226.495,155.804Z" style="fill:rgb(253,253,253);"/>
        <path d="M173.214,213.226C172.885,213.41 173.126,214.094 171.479,214.192C169.803,214.29 169.815,214.147 150.498,214.184C146.301,214.191 147.096,212.322 147.202,206.496C147.335,199.146 148.369,199.155 147.373,189.498C147.118,187.031 146.976,185.652 147.19,158.498C147.206,156.485 147.448,156.16 149.464,156.106C154.973,155.958 154.951,156.22 160.479,155.907C161.28,155.862 161.268,156.019 170.51,156.103C174.337,156.137 173.62,157.674 173.615,161.5C173.554,206.156 173.897,206.168 173.214,213.226Z" style="fill:rgb(254,254,254);"/>
        <path d="M163.057,150.502C163.057,140.168 163.057,129.834 163.058,119.5C163.058,96.694 162.919,96.367 163.835,95.868C164.917,95.279 185.59,95.596 187.482,95.625C190.427,95.671 189.15,100.187 189.221,102.498C189.341,106.385 189.384,106.357 189.38,124.5C189.372,152.622 189.556,153.044 188.5,153.5C186.81,154.229 186.755,154.092 165.494,153.586C162.293,153.51 163.115,151.591 163.057,150.502Z" style="fill:rgb(254,254,254);"/>
        <path d="M203.151,134.776C200.244,130.553 201.242,130.156 199.248,121.548C198.604,118.768 199.855,117.777 198.398,115.568C195.169,110.674 195.903,110.284 192.763,105.335C191.433,103.24 191.812,100.59 192.357,100.285C192.528,100.19 195.896,99.448 197.28,99.889C197.398,99.927 198.328,100.831 201.485,100.857C207.484,100.906 210.252,100.425 212.315,101.812C213.682,102.73 218.079,103.254 219.54,103.056C227.272,102.009 230.76,102.495 231.01,102.922C231.078,103.039 230.722,104.229 230.471,104.463C230.141,104.77 227.706,105.28 227.461,105.331C226.344,105.565 223.914,104.472 220.514,105.521C217.874,106.336 221.114,115.634 217.602,116.768C215.527,117.439 215.908,118.201 215.881,133.495C215.881,133.895 216.757,137.955 211.463,138.207C207.893,138.376 208.284,136.437 206.51,136.625C204.538,136.833 204.482,136.564 203.151,134.776Z" style="fill:rgb(236,136,16);"/>
        <path d="M269.751,62.493C269.877,62.691 269.827,63.306 270.891,64.285C272.554,65.816 270.954,67.705 270.566,68.522C269.734,68.23 270.733,67.421 269.899,67.129C269.788,67.09 269.679,67.052 268.611,67.837C268.514,67.909 268.573,68.1 268.478,68.174C268.214,68.38 267.857,68.439 267.585,68.635C266.99,69.064 262.183,75.096 261.726,75.668C248.185,92.659 256.126,97.127 253.97,101.724C252.798,104.221 254.506,106.303 254.106,109.468C252.946,118.628 244.446,113.81 243.825,120.534C243.389,125.248 244.877,126.247 235.025,137.023C232.209,139.742 231.854,139.75 231.497,139.759C227.026,139.866 234.921,130.567 235.176,130.234C242.109,121.17 236.563,118.739 240.615,113.587C244.137,109.108 249.06,112.353 249.1,104.487C249.113,101.99 249.039,101.998 249.784,99.607C250.413,97.59 246.773,91.229 250.294,82.424C251.483,79.452 256.16,73.508 259.784,69.761C266.131,63.199 269.094,64.4 269.728,63.509C269.925,63.233 269.555,62.769 269.751,62.493Z" style="fill:rgb(228,141,28);"/>
        <path d="M172.823,65.43C180.289,66.293 181.426,64.491 190.125,72.895C199.117,81.581 199.399,101.871 194.653,96.41C192.85,94.334 195.789,83.691 185.852,76.048C185.751,75.971 180.919,71.035 177.52,71.565C177.169,71.619 176.877,71.895 176.527,71.95C176.08,71.791 175.946,71.125 175.5,70.967C175.313,70.9 172.685,70.909 172.568,70.971C172.153,71.19 172.005,71.811 171.557,71.948C171.167,72.068 171.172,71.314 166.462,71.978C166.144,72.023 165.796,71.867 165.5,71.99C164.824,72.271 165.084,72.658 164.37,72.848C163.863,72.983 163.98,72.394 163.491,72.524C161.275,71.75 157.103,71.239 151.956,64.165C149.822,61.232 147.746,48.191 152.305,44.18C155.783,41.119 154.394,49.955 154.312,50.477C153.285,57.006 157.627,60.115 159.463,62.528C160.565,63.975 162.22,65.931 170.479,66.102C170.674,66.106 171.216,66.117 172.823,65.43Z" style="fill:rgb(229,137,25);"/>
        <path d="M151.511,34.82C152.005,34.402 152.252,34.697 152.805,33.724C153.267,32.911 153.154,32.887 153.515,31.504C155.37,24.401 159.282,24.146 162.608,22.727C168.416,20.25 170.691,10.611 181.621,14.15C190.535,17.036 192.663,15.365 192.9,17.403C193.282,20.682 183.518,18.88 183.448,18.869C177.389,17.944 176.997,18.283 172.767,22.735C165.689,30.183 164.905,29.13 163.477,29.36C159.945,29.93 157.668,34.269 157.556,34.524C156.948,35.921 157.476,35.925 157.568,36.472C157.621,36.789 157.477,37.119 157.53,37.436C156.015,39.451 156.361,40.243 154.541,40.083C152.657,39.918 152.508,38.711 152.482,38.505C152.123,35.599 152.674,35.593 152.555,35.372C152.368,35.026 151.698,35.166 151.511,34.82Z" style="fill:rgb(229,139,30);"/>
        <path d="M101.5,190.892C110.143,190.892 111.609,190.838 113.575,191.122C119.056,191.912 120.921,199.444 111.466,200.035C110.302,200.108 93.33,200.057 91.493,199.978C87.885,199.823 88.625,198.088 88.665,193.503C88.693,190.22 90.286,190.917 101.5,190.892Z" style="fill:rgb(3,3,3);"/>
        <path d="M227.561,30.066C220.285,28.873 219.689,27.757 217.39,30.408C212.408,36.156 203.059,31.298 200.8,28.295C198.201,24.841 202.581,23.005 199.319,19.678C196.327,16.626 199.415,15.907 201.366,16.847C206.67,19.405 205.373,22.756 206.202,24.653C206.997,26.47 210.642,27.667 211.493,27.69C214.703,27.773 215.762,20.627 223.635,24.204C231.131,27.61 238.554,25.594 238.401,28.509C238.249,31.42 229.27,30.197 227.561,30.066Z" style="fill:rgb(230,141,26);"/>
        <path d="M250.137,49.806C251.108,50.946 251.025,50.963 251.966,52.083C258.103,59.388 267.595,57.946 267.607,59.358C267.623,61.408 267.452,61.685 265.447,62.069C257.985,63.499 250.869,58.795 249.791,58.082C245.205,55.051 233.672,36.657 237.573,32.542C237.618,32.495 239.331,31.659 239.376,31.662C240.976,31.742 237.812,34.828 250.137,49.806Z" style="fill:rgb(229,141,25);"/>
        <path d="M99.5,170.08C107.196,170.128 115.882,169.146 114.808,174.564C114.093,178.168 110.511,177.654 92.501,177.659C90.555,177.659 90.235,178.339 89.014,176.843C88.462,176.167 88.352,170.882 89.426,170.386C90.313,169.976 94.666,170.095 99.5,170.08Z" style="fill:rgb(2,2,2);"/>
        <path d="M133.894,63.668C137.318,55.773 137.253,55.776 137.647,54.589C138.124,53.154 139.355,53.743 139.633,54.387C140.189,55.674 145.651,68.328 146.487,70.504C146.555,70.681 147.186,72.322 145.549,72.685C143.922,73.045 133.519,72.76 132.474,72.731C131.587,72.707 131.491,72.826 130.971,72.1C130.556,71.52 130.38,71.274 133.894,63.668Z" style="fill:rgb(3,3,3);"/>
        <path d="M212.911,189.659C217.482,178.363 217.204,178.29 218.36,175.389C218.617,174.743 219.816,174.037 220.321,175.605C220.685,176.734 221.561,179.455 225.522,189.492C225.766,190.11 228.239,193.568 224.502,193.557C214.359,193.527 214.369,193.623 213.489,193.579C210.86,193.45 212.072,192.152 212.911,189.659Z" style="fill:rgb(4,4,4);"/>
        <path d="M208.473,145.506C208.43,145.259 208.022,142.898 208.11,142.398C208.322,141.184 209.356,141.217 209.502,141.221C212.001,141.301 211.141,146.923 215.47,147.657C223.695,149.051 226.716,142.824 229.551,143.376C232.184,143.888 227.974,151.55 220.569,152.822C209.06,154.798 209.055,147.303 208.473,145.506Z" style="fill:rgb(220,143,36);"/>
        <path d="M176.527,71.95L175.458,72.731C168.277,73.201 168.15,74.206 163.491,72.524C163.98,72.394 163.863,72.983 164.37,72.848C165.084,72.658 164.824,72.271 165.5,71.99C165.796,71.867 166.144,72.023 166.462,71.978C171.172,71.314 171.167,72.068 171.557,71.948C172.005,71.811 172.153,71.19 172.568,70.971C172.685,70.909 175.313,70.9 175.5,70.967C175.946,71.125 176.08,71.791 176.527,71.95Z" style="fill:rgb(130,82,13);"/>
        <path d="M236.5,138.569C236.734,138.962 237.278,139.101 237.511,139.494C237.907,140.158 237.525,142.66 236.443,143.392C236.165,143.58 235.801,143.599 235.505,143.756C234.094,144.507 233.524,144.96 233.113,143.433C232.999,143.009 233.823,142.831 233.942,142.407C234.078,141.922 233.326,141.787 234.24,140.5C234.758,139.771 234.996,139.568 235.075,139.5C235.728,138.942 235.833,139.139 236.5,138.569Z" style="fill:rgb(10,1,25);"/>
        <path d="M236.463,22.273C236.521,22.201 237.193,21.371 237.193,21.371C237.448,20.821 237.4,20.156 237.684,19.62C238.622,17.846 241.059,19.193 239.871,22.697C239.473,23.869 239.062,23.063 237.485,22.44C237.164,22.313 236.784,22.4 236.463,22.273Z" style="fill:rgb(5,0,12);"/>
        <path d="M218.681,124.5L217.391,123.5L217.319,122.5L217.386,121.5L217.5,120.031L218.547,120.5L218.887,121.5C218.991,123.01 218.942,122.977 218.681,124.5Z" style="fill:rgb(5,0,22);"/>
        <path d="M230.498,22.346L229.5,23.972L228.081,23.5L228.5,22.368C229.166,22.36 229.832,22.353 230.498,22.346Z" style="fill:rgb(8,0,20);"/>
        <path d="M230.637,151.561L229.5,150.297C230.334,150.337 229.977,149.459 230.808,149.5C232.166,149.566 230.749,150.214 230.637,151.561Z" style="fill:rgb(16,0,17);"/>
    </g>
</svg>
