<?xml version="1.0" encoding="UTF-8" standalone="no"?>
<!DOCTYPE svg PUBLIC "-//W3C//DTD SVG 1.1//EN" "http://www.w3.org/Graphics/SVG/1.1/DTD/svg11.dtd">
<svg width="100%" height="100%" viewBox="0 0 3508 2481" version="1.1" xmlns="http://www.w3.org/2000/svg" xmlns:xlink="http://www.w3.org/1999/xlink" xml:space="preserve" xmlns:serif="http://www.serif.com/" style="fill-rule:evenodd;clip-rule:evenodd;stroke-miterlimit:3.864;">
    <g transform="matrix(4.166667,0,0,4.166667,0,1051.908333)">
        <path d="M202.353,170.926L201.756,176.345L193.507,184.983L187.695,186.278L180.008,186.062L175.697,188.221L170.447,190.38L165.949,186.278L164.824,182.175L166.136,178.505L158.825,164.685L155.637,158.64L154.671,152.602C155.732,152.897 156.799,153.179 157.872,153.445L160.562,157.906L168.136,170.425L166.777,173.75L167.941,177.467L172.604,181.184L178.04,179.227L182.508,177.27L190.47,177.467L196.49,176.293L202.353,170.926Z" style="fill:white;fill-rule:nonzero;stroke:rgb(57,108,126);stroke-width:8px;"/>
    </g>
    <g transform="matrix(4.166667,0,0,4.166667,0,222.679167)">
        <path d="M144.188,317.35L148.701,301.514L150.763,300.219L151.138,293.741L148.325,286.833L149.824,284.889L143.264,267.831L133.703,255.092L135.765,252.284L136.701,246.454L137.826,238.034L134.453,232.851L129.016,232.203L125.079,233.715L123.391,230.909C123.391,230.909 120.016,224.647 119.267,224.647C118.517,224.647 114.58,225.079 114.58,225.079L100.265,232.001" style="fill:none;fill-rule:nonzero;stroke:rgb(57,108,126);stroke-width:12px;"/>
    </g>
    <g transform="matrix(4.166667,0,0,4.166667,0,-426.665)">
        <rect x="191.325" y="316.066" width="77.134" height="65.708" style="fill:rgb(192,79,51);"/>
    </g>
    <g transform="matrix(4.166667,0,0,4.166667,0,-547.679167)">
        <path d="M80.442,306.646L82.276,306.437L82.642,308.759L93.281,309.816C93.281,309.816 92.808,311.077 91.981,313.377L86.957,312.942L86.568,310.788L84.626,310.985L80.742,318.222L74.332,320.962L71.224,327.221L71.613,332.111L67.73,337.001L60.543,340.326L58.989,343.651L56.077,344.826L54.328,349.716L47.531,361.257L48.308,365.56L49.861,366.93L49.861,380.817L46.561,387.469L48.891,389.621L48.308,395.098L52.387,399.793L60.738,407.813L60.931,411.725L65.162,414.621C64.896,416.586 64.658,418.528 64.45,420.446L58.064,415.445L57.88,411.219L49.994,402.559L46.142,397.488L46.693,391.573L44.491,389.248L47.61,382.066L47.61,367.067L46.142,365.587L45.408,360.941L51.828,348.475L53.478,343.195L56.23,341.926L57.698,338.335L64.484,334.744L68.152,329.463L67.786,324.181L70.72,317.421L76.773,314.463L80.442,306.646Z" style="fill:white;fill-rule:nonzero;stroke:rgb(57,108,126);stroke-width:12px;"/>
    </g>
    <g transform="matrix(4.166667,0,0,4.166667,0,-27.8875)">
        <path d="M106.361,301.067C106.361,345.231 142.16,381.032 186.325,381.032C230.488,381.032 266.289,345.231 266.289,301.067C266.289,256.902 230.488,221.101 186.325,221.101C142.16,221.101 106.361,256.902 106.361,301.067ZM68.484,301.067C68.484,235.983 121.241,183.224 186.325,183.224C251.407,183.224 304.164,235.983 304.164,301.067C304.164,366.151 251.407,418.909 186.325,418.909C121.241,418.909 68.484,366.151 68.484,301.067" style="fill:rgb(192,79,51);fill-rule:nonzero;"/>
    </g>
    <g transform="matrix(4.166667,0,0,4.166667,0,49.483333)">
        <path d="M84.626,167.666L86.568,167.469L86.957,169.623L98.22,170.599L101.909,168.253L107.154,165.906L131.624,163.754L135.12,162.581L139.005,161.798L139.586,164.146L141.724,163.166L140.558,165.709L141.917,169.231L139.005,172.751L141.14,175.098L147.355,177.838L155.706,179.598L158.038,183.902L162.116,183.902L170.078,187.227L172.991,184.88L172.604,181.163L178.04,177.838L202.317,185.27L209.309,182.728L213.582,183.707L221.544,184.293L222.709,188.597L221.544,195.247L215.912,188.792L214.552,189.965L224.652,209.527L225.622,214.221L229.506,215.981L231.643,228.696C231.643,228.696 236.305,231.631 235.528,231.435C234.751,231.24 237.663,240.628 237.663,240.628L242.325,243.367L251.452,251.779L248.733,255.104L253.976,258.234L277.088,253.93L277.476,258.429L271.845,271.536C271.845,271.536 272.233,274.861 270.873,275.253C269.514,275.643 260.775,286.598 260.775,286.598L251.257,293.64L246.014,301.268L241.548,305.767L237.275,313.787L236.692,319.264L235.218,322.541L234.462,325.336L229.377,330.925L227.28,341.407L226.581,346.299L225.883,353.287L225.183,358.177L229.506,360.539L222.321,367.386L223.098,374.036L224.263,382.838L222.514,384.989L216.351,386.479L231.822,390.671L212.61,399.857L205.036,409.05L196.49,416.875L190.47,418.049L182.508,417.852L178.04,419.809L172.604,421.766L167.941,418.049L166.777,414.332L168.136,411.007L160.562,398.488L157.26,393.01L155.901,385.576L154.736,383.816L154.347,378.339L150.658,370.906L146.773,363.277L145.22,361.712L146.19,352.518L150.074,342.151L152.211,340.978L152.6,335.11L149.686,328.849L151.24,327.089L144.443,311.635L134.537,300.095L136.674,297.552L137.644,292.27L138.811,284.641L135.314,279.946L129.682,279.36L125.604,280.73L123.855,278.186C123.855,278.186 120.359,272.513 119.584,272.513C118.807,272.513 114.728,272.904 114.728,272.904L109.678,274.274L99.192,279.36L93.365,277.991C93.365,277.991 87.345,278.381 86.178,278.381C85.013,278.381 79.77,281.316 79.77,281.316L60.931,268.406L60.738,264.494L52.387,256.474L48.308,251.779L48.891,246.302L46.561,244.15L49.861,237.498L49.861,223.611L48.308,222.241L47.531,217.938L54.328,206.397L56.077,201.507L58.989,200.332L60.543,197.007L67.73,193.682L71.613,188.792L71.224,183.902L74.332,177.643L80.742,174.903L84.626,167.666" style="fill:white;fill-rule:nonzero;"/>
    </g>
    <g transform="matrix(4.166667,0,0,4.166667,0,744.429167)">
        <path d="M160.27,230.236L161.466,228.042L162.862,230.834L170.439,230.834L170.837,206.311L174.227,206.509L174.227,191.556L168.046,191.157L165.078,188.38L154.365,188.38L151.688,185.345L149.009,186.238L146.153,185.524L143.653,191.058C145.732,192.843 144.981,196.472 145.081,196.772L151.697,209.101L151.897,214.884L153.093,216.28L154.289,223.059L159.274,231.432L160.27,230.236" style="fill:rgb(111,117,91);fill-rule:nonzero;"/>
    </g>
    <g transform="matrix(4.166667,0,0,4.166667,0,676.725)">
        <path d="M237.288,182.181L175.139,231.576L254.115,250.845L235.247,232.05L231.073,210.924L237.288,182.181" style="fill:rgb(192,79,51);fill-rule:nonzero;"/>
    </g>
    <g transform="matrix(4.166667,0,0,4.166667,0,-394.8125)">
        <path d="M784.754,357.223L783.198,357.223L783.198,343.748C783.198,342.61 783.387,341.774 783.767,341.243C784.147,340.75 784.716,340.486 785.552,340.486C786.196,340.486 786.803,340.715 787.409,341.168C787.981,341.623 788.512,342.305 789.043,343.216L793.295,350.771C793.295,350.809 793.333,350.809 793.371,350.847C793.408,350.884 793.446,350.884 793.522,350.884C793.597,350.884 793.676,350.847 793.713,350.809C793.748,350.73 793.789,350.617 793.789,350.432L793.789,340.979L795.344,340.979L795.344,355.859C795.344,356.617 795.269,357.11 795.077,357.377C794.889,357.641 794.584,357.754 794.169,357.754C793.864,357.754 793.597,357.679 793.371,357.528C793.141,357.377 792.953,357.11 792.761,356.767L785.285,343.939C785.247,343.864 785.209,343.785 785.172,343.748C785.134,343.713 785.096,343.713 785.021,343.713C784.905,343.713 784.829,343.748 784.791,343.785C784.754,343.826 784.754,343.977 784.754,344.166L784.754,357.223ZM767.256,356.541C768.548,356.541 769.61,355.859 770.405,354.53C771.203,353.159 771.621,351.378 771.621,349.14C771.621,346.9 771.203,345.115 770.405,343.748C769.61,342.384 768.548,341.702 767.256,341.702C765.964,341.702 764.902,342.384 764.104,343.748C763.309,345.115 762.891,346.937 762.891,349.14C762.891,351.34 763.309,353.159 764.104,354.489C764.902,355.859 765.964,356.541 767.256,356.541M767.749,357.754C765.32,357.754 763.268,356.918 761.599,355.249C759.968,353.543 759.132,351.453 759.132,348.911C759.132,346.406 759.852,344.395 761.26,342.84C762.661,341.284 764.484,340.486 766.763,340.486C769.229,340.486 771.278,341.318 772.95,342.99C774.581,344.7 775.414,346.787 775.414,349.329C775.414,351.833 774.694,353.848 773.29,355.404C771.885,356.959 770.028,357.754 767.749,357.754M747.747,340.979L751.351,340.979L751.351,357.223L747.747,357.223L747.747,340.979ZM747.442,336.347C747.442,335.74 747.63,335.247 748.048,334.829C748.466,334.414 748.998,334.223 749.566,334.223C750.135,334.223 750.632,334.414 751.046,334.829C751.464,335.247 751.653,335.74 751.653,336.347C751.653,336.916 751.464,337.412 751.046,337.827C750.666,338.245 750.176,338.437 749.566,338.437C748.998,338.437 748.466,338.245 748.048,337.827C747.63,337.412 747.442,336.916 747.442,336.347M732.942,357.223L732.942,342.384L729.489,342.384L729.489,340.979L740,340.979L740,342.384L736.547,342.384L736.547,357.223L732.942,357.223ZM712.899,350.809L718.175,350.809L716.239,343.898C716.126,343.521 716.013,343.295 715.897,343.179C715.784,343.066 715.67,342.99 715.482,342.99C715.328,342.99 715.252,343.066 715.139,343.179C715.064,343.33 714.948,343.559 714.834,343.939L712.899,350.809ZM712.518,352.214L711.079,357.223L709.483,357.223L713.467,342.99C713.697,342.158 714.04,341.548 714.53,341.13C715.023,340.715 715.633,340.486 716.352,340.486C717.113,340.486 717.757,340.715 718.326,341.205C718.898,341.661 719.275,342.343 719.542,343.216L723.719,357.223L720.036,357.223L718.555,352.214L712.518,352.214ZM691.529,357.223L689.974,357.223L689.974,343.748C689.974,342.61 690.162,341.774 690.542,341.243C690.923,340.75 691.492,340.486 692.324,340.486C692.972,340.486 693.578,340.715 694.185,341.168C694.753,341.623 695.288,342.305 695.819,343.216L700.071,350.771C700.071,350.809 700.105,350.809 700.146,350.847C700.184,350.884 700.222,350.884 700.297,350.884C700.372,350.884 700.451,350.847 700.485,350.809C700.527,350.73 700.564,350.617 700.564,350.432L700.564,340.979L702.12,340.979L702.12,355.859C702.12,356.617 702.041,357.11 701.852,357.377C701.664,357.641 701.359,357.754 700.941,357.754C700.64,357.754 700.372,357.679 700.146,357.528C699.917,357.377 699.728,357.11 699.536,356.767L692.06,343.939C692.023,343.864 691.985,343.785 691.947,343.748C691.91,343.713 691.872,343.713 691.796,343.713C691.68,343.713 691.605,343.748 691.567,343.785C691.529,343.826 691.529,343.977 691.529,344.166L691.529,357.223ZM677.218,340.979L680.822,340.979L680.822,357.223L677.218,357.223L677.218,340.979ZM676.916,336.347C676.916,335.74 677.105,335.247 677.523,334.829C677.941,334.414 678.472,334.223 679.041,334.223C679.609,334.223 680.103,334.414 680.521,334.829C680.939,335.247 681.127,335.74 681.127,336.347C681.127,336.916 680.939,337.412 680.521,337.827C680.14,338.245 679.647,338.437 679.041,338.437C678.472,338.437 677.941,338.245 677.523,337.827C677.105,337.412 676.916,336.916 676.916,336.347M662.413,357.223L662.413,342.384L658.963,342.384L658.963,340.979L669.475,340.979L669.475,342.384L666.021,342.384L666.021,357.223L662.413,357.223ZM641.804,356.918L641.804,355.589C642.411,355.743 642.942,355.859 643.51,355.931C644.083,356.01 644.614,356.044 645.182,356.044C646.399,356.044 647.348,355.859 647.954,355.438C648.561,355.02 648.862,354.417 648.862,353.581C648.862,352.478 647.989,351.491 646.282,350.545C646.207,350.504 646.132,350.466 646.094,350.432L645.032,349.86C643.702,349.14 642.753,348.455 642.222,347.773C641.691,347.129 641.424,346.328 641.424,345.457C641.424,343.939 641.955,342.727 643.058,341.887C644.158,341.017 645.714,340.599 647.725,340.599C648.143,340.599 648.636,340.637 649.167,340.674C649.698,340.715 650.305,340.787 650.99,340.9L650.99,342.271C649.928,342.158 649.205,342.079 648.828,342.004C648.41,341.966 648.143,341.966 647.954,341.966C646.889,341.966 646.094,342.158 645.525,342.535C644.953,342.874 644.689,343.408 644.689,344.131C644.689,345.002 645.446,345.872 646.968,346.746C647.081,346.787 647.156,346.824 647.194,346.862L648.828,347.849C650.305,348.685 651.257,349.442 651.709,350.09C652.165,350.73 652.395,351.491 652.395,352.44C652.395,353.999 651.826,355.212 650.685,356.085C649.51,356.959 647.917,357.377 645.789,357.377C645.22,357.377 644.614,357.336 643.928,357.261C643.284,357.185 642.565,357.072 641.804,356.918M623.32,343.898C623.32,342.685 623.508,341.887 623.888,341.548C624.306,341.168 625.101,340.979 626.355,340.979L634.099,340.979L634.099,342.384L628.558,342.384C627.911,342.384 627.455,342.456 627.267,342.648C627.037,342.84 626.924,343.179 626.924,343.672L626.924,347.773L632.807,347.773L632.807,349.367L626.924,349.367L626.924,354.53C626.924,355.02 627.037,355.363 627.267,355.554C627.493,355.743 627.986,355.818 628.822,355.818L634.287,355.818L634.287,357.223L625.787,357.223C624.875,357.223 624.228,357.031 623.851,356.654C623.508,356.277 623.32,355.476 623.32,354.3L623.32,343.898ZM598.418,334.301L598.418,355.363L601.152,355.363C602.632,355.363 603.883,355.249 604.832,354.986C605.818,354.718 606.617,354.3 607.261,353.732C608.285,352.861 609.046,351.645 609.615,350.09C610.146,348.572 610.413,346.787 610.413,344.772C610.413,341.397 609.539,338.814 607.754,336.994C606.01,335.209 603.465,334.301 600.165,334.301L598.418,334.301ZM593.864,357.223L593.864,332.441L599.936,332.441C604.756,332.441 608.553,333.578 611.287,335.891C613.98,338.17 615.347,341.318 615.347,345.382C615.347,348.949 614.244,351.796 612.006,353.961C609.803,356.123 606.881,357.223 603.238,357.223L593.864,357.223ZM558.221,357.223L556.666,357.223L556.666,343.748C556.666,342.61 556.854,341.774 557.234,341.243C557.615,340.75 558.183,340.486 559.016,340.486C559.664,340.486 560.27,340.715 560.876,341.168C561.445,341.623 561.976,342.305 562.511,343.216L566.759,350.771C566.759,350.809 566.797,350.809 566.835,350.847C566.876,350.884 566.91,350.884 566.989,350.884C567.064,350.884 567.14,350.847 567.177,350.809C567.215,350.73 567.256,350.617 567.256,350.432L567.256,340.979L568.812,340.979L568.812,355.859C568.812,356.617 568.733,357.11 568.544,357.377C568.352,357.641 568.051,357.754 567.633,357.754C567.331,357.754 567.064,357.679 566.835,357.528C566.609,357.377 566.417,357.11 566.228,356.767L558.752,343.939C558.714,343.864 558.677,343.785 558.636,343.748C558.601,343.713 558.56,343.713 558.485,343.713C558.372,343.713 558.296,343.748 558.259,343.785C558.221,343.826 558.221,343.977 558.221,344.166L558.221,357.223ZM540.72,356.541C542.012,356.541 543.074,355.859 543.872,354.53C544.67,353.159 545.085,351.378 545.085,349.14C545.085,346.9 544.67,345.115 543.872,343.748C543.074,342.384 542.012,341.702 540.72,341.702C539.432,341.702 538.369,342.384 537.571,343.748C536.776,345.115 536.355,346.937 536.355,349.14C536.355,351.34 536.776,353.159 537.571,354.489C538.369,355.859 539.432,356.541 540.72,356.541M541.213,357.754C538.784,357.754 536.735,356.918 535.067,355.249C533.432,353.543 532.6,351.453 532.6,348.911C532.6,346.406 533.319,344.395 534.724,342.84C536.129,341.284 537.951,340.486 540.226,340.486C542.697,340.486 544.746,341.318 546.414,342.99C548.049,344.7 548.881,346.787 548.881,349.329C548.881,351.833 548.162,353.848 546.757,355.404C545.352,356.959 543.492,357.754 541.213,357.754M521.211,340.979L524.819,340.979L524.819,357.223L521.211,357.223L521.211,340.979ZM520.909,336.347C520.909,335.74 521.098,335.247 521.516,334.829C521.934,334.414 522.465,334.223 523.034,334.223C523.602,334.223 524.096,334.414 524.514,334.829C524.932,335.247 525.12,335.74 525.12,336.347C525.12,336.916 524.932,337.412 524.514,337.827C524.133,338.245 523.64,338.437 523.034,338.437C522.465,338.437 521.934,338.245 521.516,337.827C521.098,337.412 520.909,336.916 520.909,336.347M506.406,357.223L506.406,342.384L502.952,342.384L502.952,340.979L513.468,340.979L513.468,342.384L510.014,342.384L510.014,357.223L506.406,357.223ZM486.366,350.809L491.642,350.809L489.707,343.898C489.594,343.521 489.477,343.295 489.364,343.179C489.251,343.066 489.138,342.99 488.946,342.99C488.795,342.99 488.72,343.066 488.603,343.179C488.528,343.33 488.415,343.559 488.302,343.939L486.366,350.809ZM485.986,352.214L484.543,357.223L482.95,357.223L486.935,342.99C487.164,342.158 487.504,341.548 487.997,341.13C488.49,340.715 489.097,340.486 489.82,340.486C490.58,340.486 491.224,340.715 491.793,341.205C492.362,341.661 492.742,342.343 493.009,343.216L497.183,357.223L493.503,357.223L492.023,352.214L485.986,352.214ZM476.077,340.979L477.598,340.979L473.727,354.074C473.346,355.438 472.891,356.428 472.397,356.959C471.904,357.49 471.256,357.754 470.461,357.754C469.663,357.754 469.019,357.49 468.526,356.959C468.032,356.428 467.577,355.476 467.196,354.15L463.325,340.979L467.008,340.979L471.143,355.136C471.181,355.249 471.256,355.325 471.297,355.404C471.373,355.476 471.486,355.517 471.561,355.517C471.678,355.517 471.753,355.476 471.825,355.404C471.904,355.325 471.942,355.249 471.979,355.136L476.077,340.979ZM447.458,357.223L443.853,357.223L443.853,340.979L450.38,340.979C452.391,340.979 453.95,341.356 454.975,342.117C456.037,342.874 456.568,344.018 456.568,345.457C456.568,346.519 456.263,347.393 455.619,348.075C454.975,348.757 454.101,349.14 452.998,349.291L457.212,357.223L452.885,357.223L449.013,349.103C450.305,349.103 451.292,348.798 451.898,348.301C452.508,347.773 452.809,346.975 452.809,345.838C452.809,344.621 452.508,343.748 451.898,343.179C451.329,342.61 450.38,342.305 449.126,342.305L447.458,342.305L447.458,357.223ZM424.988,343.898C424.988,342.685 425.177,341.887 425.557,341.548C425.975,341.168 426.773,340.979 428.024,340.979L435.767,340.979L435.767,342.384L430.224,342.384C429.58,342.384 429.124,342.456 428.935,342.648C428.709,342.84 428.593,343.179 428.593,343.672L428.593,347.773L434.476,347.773L434.476,349.367L428.593,349.367L428.593,354.53C428.593,355.02 428.709,355.363 428.935,355.554C429.162,355.743 429.655,355.818 430.491,355.818L435.956,355.818L435.956,357.223L427.455,357.223C426.544,357.223 425.9,357.031 425.519,356.654C425.177,356.277 424.988,355.476 424.988,354.3L424.988,343.898ZM406.387,356.918L406.387,355.589C406.997,355.743 407.525,355.859 408.097,355.931C408.666,356.01 409.197,356.044 409.766,356.044C410.982,356.044 411.931,355.859 412.537,355.438C413.144,355.02 413.449,354.417 413.449,353.581C413.449,352.478 412.575,351.491 410.865,350.545C410.79,350.504 410.715,350.466 410.677,350.432L409.615,349.86C408.285,349.14 407.336,348.455 406.805,347.773C406.274,347.129 406.01,346.328 406.01,345.457C406.01,343.939 406.538,342.727 407.641,341.887C408.741,341.017 410.297,340.599 412.308,340.599C412.726,340.599 413.219,340.637 413.75,340.674C414.285,340.715 414.891,340.787 415.573,340.9L415.573,342.271C414.511,342.158 413.791,342.079 413.411,342.004C412.993,341.966 412.726,341.966 412.537,341.966C411.475,341.966 410.677,342.158 410.108,342.535C409.539,342.874 409.272,343.408 409.272,344.131C409.272,345.002 410.033,345.872 411.551,346.746C411.664,346.787 411.739,346.824 411.777,346.862L413.411,347.849C414.891,348.685 415.84,349.442 416.293,350.09C416.748,350.73 416.978,351.491 416.978,352.44C416.978,353.999 416.409,355.212 415.272,356.085C414.093,356.959 412.5,357.377 410.372,357.377C409.803,357.377 409.197,357.336 408.512,357.261C407.867,357.185 407.148,357.072 406.387,356.918M387.903,343.898C387.903,342.685 388.095,341.887 388.471,341.548C388.889,341.168 389.688,340.979 390.938,340.979L398.682,340.979L398.682,342.384L393.141,342.384C392.494,342.384 392.038,342.456 391.85,342.648C391.624,342.84 391.507,343.179 391.507,343.672L391.507,347.773L397.39,347.773L397.39,349.367L391.507,349.367L391.507,354.53C391.507,355.02 391.624,355.363 391.85,355.554C392.079,355.743 392.573,355.818 393.405,355.818L398.874,355.818L398.874,357.223L390.37,357.223C389.458,357.223 388.814,357.031 388.434,356.654C388.095,356.277 387.903,355.476 387.903,354.3L387.903,343.898ZM362.967,357.223L362.967,332.441L371.087,332.441C374.164,332.441 376.476,333.044 378.069,334.26C379.625,335.514 380.423,337.299 380.423,339.687C380.423,341.469 379.854,342.874 378.755,343.898C377.614,344.926 376.021,345.495 373.972,345.608L380.536,357.223L375.376,357.223L368.733,344.659C371.354,344.47 373.177,344.018 374.277,343.216C375.339,342.422 375.87,341.168 375.87,339.499C375.87,337.676 375.339,336.272 374.277,335.398C373.211,334.486 371.618,334.031 369.456,334.031L367.558,334.031L367.558,357.223L362.967,357.223Z" style="fill:rgb(111,117,91);fill-rule:nonzero;"/>
    </g>
    <g transform="matrix(4.166667,0,0,4.166667,0,155.195833)">
        <path d="M752.186,310.567L752.186,274.419C752.186,272.054 752.779,270.281 753.959,269.001C755.138,267.715 756.917,267.128 759.181,267.128C761.244,267.128 762.922,267.62 764.107,268.705C765.287,269.689 766.271,271.461 767.059,274.022L773.758,295.795L779.964,272.937C780.456,270.969 781.44,269.493 782.626,268.509C783.906,267.62 785.477,267.128 787.546,267.128C789.911,267.128 791.684,267.821 792.863,269.102C794.144,270.477 794.742,272.35 794.742,274.911L794.742,310.567L785.673,310.567L785.673,275.308C785.673,274.816 785.578,274.419 785.477,274.129C785.282,273.921 785.086,273.725 784.79,273.725C784.398,273.725 784.197,273.826 784.001,274.022C783.805,274.223 783.705,274.52 783.509,275.113L774.25,308.208C773.853,309.483 773.461,310.467 772.969,311.059C772.477,311.652 771.884,311.949 771.096,311.949C770.408,311.949 769.721,311.652 769.223,311.16C768.731,310.668 768.239,309.975 767.942,308.99L757.995,275.605C757.995,275.504 757.901,275.308 757.901,275.012C757.705,274.129 757.409,273.725 757.005,273.725C756.81,273.725 756.614,273.921 756.419,274.223C756.318,274.52 756.223,274.911 756.223,275.403L756.223,310.567L752.186,310.567ZM724.503,308.795C727.852,308.795 730.609,307.022 732.677,303.572C734.746,300.033 735.831,295.398 735.831,289.588C735.831,283.773 734.746,279.144 732.677,275.605C730.609,272.054 727.852,270.281 724.503,270.281C721.154,270.281 718.397,272.054 716.328,275.605C714.259,279.144 713.175,283.874 713.175,289.588C713.175,295.303 714.259,300.033 716.328,303.478C718.397,307.022 721.154,308.795 724.503,308.795M725.783,311.949C719.476,311.949 714.159,309.779 709.825,305.446C705.593,301.017 703.423,295.599 703.423,288.996C703.423,282.499 705.296,277.276 708.936,273.233C712.582,269.197 717.312,267.128 723.222,267.128C729.625,267.128 734.948,269.297 739.275,273.631C743.514,278.065 745.677,283.483 745.677,290.081C745.677,296.583 743.81,301.8 740.164,305.843C736.519,309.88 731.693,311.949 725.783,311.949M702.338,301.308C700.566,304.657 698.201,307.319 695.249,309.192C692.386,311.059 689.137,311.949 685.592,311.949C679.777,311.949 674.957,309.779 671.11,305.54C667.168,301.213 665.2,295.795 665.2,289.292C665.2,283.086 667.168,277.863 671.11,273.53C675.052,269.297 679.972,267.128 685.788,267.128C689.534,267.128 692.783,267.922 695.539,269.594C698.201,271.171 700.27,273.53 701.746,276.589L698.201,278.456C696.92,275.8 695.444,273.826 693.672,272.546C691.893,271.265 689.825,270.578 687.365,270.578C683.423,270.578 680.376,272.155 678.206,275.403C676.137,278.557 675.052,283.281 675.052,289.393C675.052,295.007 676.137,299.441 678.402,302.885C680.571,306.335 683.523,308.107 686.973,308.107C689.433,308.107 691.698,307.319 693.672,305.843C695.741,304.266 697.507,302.096 698.989,299.138L702.338,301.308ZM651.216,311.949C649.634,311.949 648.258,311.356 647.173,310.271C646.095,309.192 645.502,307.811 645.502,306.24C645.502,304.657 646.095,303.282 647.173,302.096C648.258,301.017 649.634,300.425 651.216,300.425C652.787,300.425 654.168,301.017 655.247,302.096C656.332,303.282 656.925,304.657 656.925,306.24C656.925,307.811 656.332,309.192 655.247,310.271C654.168,311.356 652.787,311.949 651.216,311.949M618.998,310.567L618.998,272.054L610.041,272.054L610.041,268.414L637.321,268.414L637.321,272.054L628.358,272.054L628.358,310.567L618.998,310.567ZM579.601,309.779L579.601,306.335C581.172,306.732 582.554,307.022 584.03,307.224C585.506,307.42 586.887,307.514 588.363,307.514C591.516,307.514 593.982,307.022 595.553,305.944C597.13,304.853 597.919,303.282 597.919,301.112C597.919,298.255 595.654,295.694 591.22,293.234C591.019,293.139 590.823,293.039 590.728,292.932L587.972,291.456C584.522,289.588 582.061,287.816 580.68,286.038C579.299,284.366 578.611,282.297 578.611,280.033C578.611,276.097 579.993,272.937 582.85,270.773C585.701,268.509 589.744,267.424 594.967,267.424C596.045,267.424 597.326,267.519 598.701,267.62C600.088,267.715 601.659,267.922 603.432,268.213L603.432,271.757C600.675,271.461 598.808,271.265 597.818,271.07C596.733,270.969 596.045,270.969 595.553,270.969C592.797,270.969 590.728,271.461 589.252,272.445C587.776,273.334 587.082,274.715 587.082,276.589C587.082,278.847 589.05,281.118 592.998,283.382C593.289,283.483 593.49,283.578 593.585,283.678L597.818,286.239C601.659,288.409 604.119,290.377 605.311,292.049C606.49,293.726 607.077,295.694 607.077,298.154C607.077,302.197 605.601,305.345 602.643,307.615C599.596,309.88 595.459,310.959 589.94,310.959C588.464,310.959 586.887,310.864 585.108,310.668C583.437,310.467 581.569,310.176 579.601,309.779M545.712,275.996C545.712,272.842 546.204,270.773 547.188,269.89C548.272,268.906 550.335,268.414 553.59,268.414L573.685,268.414L573.685,272.054L559.304,272.054C557.633,272.054 556.441,272.249 555.949,272.741C555.362,273.233 555.066,274.129 555.066,275.403L555.066,286.038L570.336,286.038L570.336,290.181L555.066,290.181L555.066,303.572C555.066,304.853 555.362,305.748 555.949,306.24C556.542,306.732 557.828,306.928 559.992,306.928L574.177,306.928L574.177,310.567L552.114,310.567C549.749,310.567 548.071,310.075 547.087,309.091C546.204,308.107 545.712,306.038 545.712,302.986L545.712,275.996ZM495.176,251.075L495.176,305.748L502.266,305.748C506.107,305.748 509.356,305.446 511.822,304.758C514.383,304.064 516.446,302.986 518.129,301.509C520.785,299.239 522.753,296.091 524.235,292.049C525.61,288.112 526.304,283.483 526.304,278.26C526.304,269.493 524.039,262.794 519.404,258.07C514.875,253.434 508.277,251.075 499.705,251.075L495.176,251.075ZM483.35,310.567L483.35,246.244L499.118,246.244C511.626,246.244 521.472,249.202 528.562,255.213C535.557,261.117 539.108,269.297 539.108,279.831C539.108,289.096 536.245,296.483 530.441,302.096C524.727,307.716 517.139,310.567 507.684,310.567L483.35,310.567ZM447.498,309.779L447.498,306.335C449.069,306.732 450.45,307.022 451.932,307.224C453.408,307.42 454.784,307.514 456.26,307.514C459.413,307.514 461.873,307.022 463.45,305.944C465.033,304.853 465.816,303.282 465.816,301.112C465.816,298.255 463.557,295.694 459.123,293.234C458.921,293.139 458.726,293.039 458.631,292.932L455.868,291.456C452.424,289.588 449.958,287.816 448.577,286.038C447.202,284.366 446.514,282.297 446.514,280.033C446.514,276.097 447.89,272.937 450.741,270.773C453.604,268.509 457.641,267.424 462.857,267.424C463.948,267.424 465.229,267.519 466.604,267.62C467.985,267.715 469.556,267.922 471.334,268.213L471.334,271.757C468.572,271.461 466.705,271.265 465.721,271.07C464.636,270.969 463.948,270.969 463.45,270.969C460.694,270.969 458.631,271.461 457.149,272.445C455.667,273.334 454.979,274.715 454.979,276.589C454.979,278.847 456.947,281.118 460.889,283.382C461.186,283.483 461.381,283.578 461.482,283.678L465.721,286.239C469.556,288.409 472.022,290.377 473.202,292.049C474.387,293.726 474.974,295.694 474.974,298.154C474.974,302.197 473.498,305.345 470.546,307.615C467.493,309.88 463.35,310.959 457.842,310.959C456.361,310.959 454.784,310.864 453.011,310.668C451.34,310.467 449.466,310.176 447.498,309.779M413.609,275.996C413.609,272.842 414.101,270.773 415.085,269.89C416.169,268.906 418.238,268.414 421.487,268.414L441.588,268.414L441.588,272.054L427.201,272.054C425.53,272.054 424.344,272.249 423.852,272.741C423.265,273.233 422.969,274.129 422.969,275.403L422.969,286.038L438.233,286.038L438.233,290.181L422.969,290.181L422.969,303.572C422.969,304.853 423.265,305.748 423.852,306.24C424.445,306.732 425.725,306.928 427.889,306.928L442.08,306.928L442.08,310.567L420.011,310.567C417.645,310.567 415.974,310.075 414.984,309.091C414.101,308.107 413.609,306.038 413.609,302.986L413.609,275.996ZM362.967,310.567L362.967,246.244L384.04,246.244C392.025,246.244 398.036,247.821 402.168,250.974C406.211,254.223 408.273,258.852 408.273,265.059C408.273,269.689 406.797,273.334 403.94,275.996C400.988,278.652 396.85,280.128 391.533,280.43L408.57,310.567L395.173,310.567L377.934,277.964C384.734,277.472 389.464,276.292 392.321,274.223C395.078,272.155 396.453,268.906 396.453,264.567C396.453,259.836 395.078,256.197 392.321,253.926C389.559,251.567 385.427,250.387 379.814,250.387L374.888,250.387L374.888,310.567L362.967,310.567Z" style="fill:rgb(192,79,51);fill-rule:nonzero;"/>
    </g>
</svg>
