<?xml version="1.0" encoding="UTF-8" standalone="no"?><!DOCTYPE svg PUBLIC "-//W3C//DTD SVG 1.1//EN" "http://www.w3.org/Graphics/SVG/1.1/DTD/svg11.dtd"><svg width="100%" height="100%" viewBox="0 0 150 150" version="1.1" xmlns="http://www.w3.org/2000/svg" xmlns:xlink="http://www.w3.org/1999/xlink" xml:space="preserve" xmlns:serif="http://www.serif.com/" style="fill-rule:evenodd;clip-rule:evenodd;stroke-linejoin:round;stroke-miterlimit:2;"><rect id="Artboard3" x="0" y="0" width="150" height="150" style="fill:none;"/><g id="Artboard31" serif:id="Artboard3"><path id="path1" d="M64.152,127.035c-0.091,-0.238 0.855,-1.859 1.085,-1.859c0.367,0 0.339,0.207 -0.15,1.111c-0.485,0.899 -0.785,1.139 -0.935,0.748Zm2.55,-0.216c0.154,-0.44 0.483,-0.778 0.623,-0.638c0.143,0.142 -0.343,1.039 -0.563,1.039c-0.162,0 -0.173,-0.076 -0.06,-0.401l-0,0Zm17.498,0.137c-0.266,-0.294 -0.183,-0.553 0.178,-0.553c0.306,-0 0.564,0.261 0.564,0.572c0,0.328 -0.438,0.317 -0.742,-0.019l0,0Zm-24.822,-0.479c-0.105,-0.275 0.052,-0.483 0.366,-0.483c0.324,-0 0.363,0.478 0.048,0.599c-0.301,0.115 -0.328,0.108 -0.414,-0.116l0,0Zm14.751,-0.824c-0.083,-0.215 0.137,-0.266 0.515,-0.121c0.326,0.125 0.258,0.326 -0.111,0.326c-0.179,-0 -0.361,-0.092 -0.404,-0.205Zm2.434,0.068c-0.047,-0.074 0.011,-0.136 0.128,-0.136c0.117,0 0.212,0.062 0.212,0.136c0,0.075 -0.058,0.137 -0.128,0.137c-0.071,-0 -0.166,-0.062 -0.212,-0.137Zm1.021,-0.052c0,-0.161 0.129,-0.22 0.477,-0.22c0.31,0 0.477,-0.064 0.477,-0.184c0,-0.265 -3.275,-0.426 -3.474,-0.171c-0.163,0.208 -0.361,0.153 -0.994,-0.276c-0.573,-0.389 -1.022,-0.428 -0.956,-0.084c0.025,0.131 0.183,0.258 0.352,0.282c0.324,0.046 0.289,0.297 -0.042,0.297c-0.314,-0 -0.607,-0.722 -0.517,-1.277c0.087,-0.537 0.041,-0.58 -0.36,-0.329c-0.145,0.09 -0.305,0.123 -0.356,0.073c-0.138,-0.138 -0.315,-2.157 -0.229,-2.603c0.049,-0.25 0.009,-0.429 -0.11,-0.503c-0.119,-0.074 -0.171,-0.311 -0.145,-0.669c0.052,-0.723 -0.101,-1.398 -0.3,-1.327c-0.087,0.03 -0.296,0.005 -0.465,-0.058c-0.205,-0.076 -0.306,-0.062 -0.306,0.042c-0,0.086 -0.038,0.118 -0.085,0.072c-0.046,-0.047 -0.173,0.004 -0.282,0.113c-0.199,0.199 -0.587,0.273 -0.587,0.112c-0,-0.047 0.132,-0.3 0.293,-0.561l0.294,-0.474l-0.328,0.098c-0.18,0.054 -0.467,0.186 -0.638,0.294c-0.296,0.187 -0.307,0.18 -0.227,-0.136l0.083,-0.332l-1.862,0.14l0.307,-0.294c0.417,-0.401 0.388,-0.616 -0.046,-0.332c-0.2,0.131 -0.391,0.177 -0.442,0.106c-0.098,-0.136 -0.705,-0.197 -0.662,-0.068c0.014,0.043 -0.022,0.09 -0.081,0.104c-0.059,0.014 -0.63,0.311 -1.27,0.66c-1.241,0.676 -1.651,0.7 -0.876,0.05c1.528,-1.28 -1.822,0.602 -8.511,4.784c-2.239,1.4 -2.438,1.46 -5.083,1.549c-1.774,0.06 -1.946,0.045 -1.907,-0.163c0.024,-0.126 0.181,-0.249 0.349,-0.273c0.342,-0.049 0.383,-0.165 0.142,-0.406c-0.223,-0.222 -0.587,-0.205 -1.082,0.051c-0.5,0.258 -0.921,0.165 -0.662,-0.147c0.137,-0.165 0.113,-0.221 -0.138,-0.314c-0.275,-0.102 -0.243,-0.136 0.337,-0.357c0.482,-0.184 0.623,-0.301 0.567,-0.468c-0.041,-0.123 -0.229,-0.652 -0.417,-1.177c-0.621,-1.731 -0.378,-3.307 0.624,-4.049c0.252,-0.186 1.04,-0.657 1.752,-1.047c1.385,-0.758 2.457,-1.542 1.976,-1.444c-3.569,0.723 -4.701,0.875 -4.701,0.631c-0,-0.085 0.073,-0.154 0.163,-0.154c0.126,0 0.126,-0.038 -0.002,-0.165c-0.129,-0.13 -0.26,-0.13 -0.6,-0.002c-0.659,0.249 -0.83,-0.045 -0.184,-0.315c0.674,-0.281 0.562,-0.367 -0.274,-0.211c-0.368,0.069 -0.688,0.107 -0.711,0.084c-0.022,-0.022 0.299,-0.182 0.715,-0.354c0.416,-0.173 0.756,-0.379 0.754,-0.459c-0.001,-0.08 -0.093,-0.697 -0.204,-1.371c-0.261,-1.589 -0.262,-2.92 -0.003,-3.289c0.287,-0.411 0.651,-0.528 3.752,-1.203c1.536,-0.335 3.836,-0.858 5.11,-1.163c3.791,-0.908 6.977,-1.601 9.417,-2.051c1.264,-0.232 2.308,-0.433 2.32,-0.446c0.075,-0.081 -0.932,-4.091 -1.158,-4.615c-0.153,-0.353 -0.59,-1.1 -0.972,-1.661c-0.832,-1.22 -1.292,-2.303 -1.51,-3.553c-0.19,-1.093 -0.101,-2.131 0.328,-3.82c0.258,-1.014 0.357,-1.226 0.576,-1.226c0.383,0 0.402,0.547 0.069,1.966c-0.155,0.661 -0.281,1.47 -0.28,1.798c0.004,1.379 0.686,3.22 1.728,4.672c0.725,1.008 1.093,1.906 1.403,3.425c0.526,2.571 1.017,3.635 2.197,4.762c0.407,0.389 0.624,0.535 0.505,0.34c-1.223,-1.992 -1.475,-2.848 -1.475,-5.001c-0,-1.429 0.019,-1.539 0.263,-1.539c0.211,0 0.293,0.154 0.417,0.784c0.197,0.994 0.541,2.078 0.659,2.077c0.092,-0.002 0.684,-1.04 1.4,-2.455c0.505,-0.998 0.633,-2.237 0.345,-3.333c-0.141,-0.54 -0.168,-0.861 -0.078,-0.951c0.248,-0.248 0.591,0.126 1.197,1.309c0.524,1.021 0.601,1.29 0.663,2.305c0.076,1.23 -0.069,1.807 -0.99,3.943c-0.474,1.099 -0.524,2.368 -0.126,3.195l0.258,0.538l0.15,-0.81c0.087,-0.469 0.472,-1.454 0.914,-2.335c0.931,-1.858 1.112,-2.655 1.027,-4.537c-0.055,-1.244 -0.13,-1.6 -0.567,-2.706c-0.728,-1.843 -0.953,-2.805 -0.943,-4.041c0.01,-1.327 0.267,-2.18 0.657,-2.18c0.219,0 0.265,0.08 0.237,0.409c-0.229,2.662 0.001,3.703 1.462,6.608c1.11,2.208 1.349,2.881 1.503,4.229c0.16,1.403 -0.036,2.814 -0.534,3.853c-0.222,0.461 -0.375,0.866 -0.341,0.899c0.149,0.149 1.02,-0.909 1.346,-1.636c0.568,-1.266 1.041,-3.547 1.001,-4.823c-0.029,-0.898 0.002,-1.096 0.178,-1.13c0.287,-0.055 0.446,0.171 0.746,1.061c0.52,1.546 0.248,3.832 -0.646,5.433l-0.409,0.732l0.423,-0.302c0.577,-0.41 1.167,-1.476 1.587,-2.866c0.192,-0.637 0.592,-1.788 0.889,-2.558c0.776,-2.016 0.813,-2.723 0.258,-4.993c-0.356,-1.459 -0.427,-1.973 -0.354,-2.561c0.113,-0.903 0.865,-2.468 1.218,-2.536c0.488,-0.094 0.531,0.19 0.144,0.948c-0.555,1.088 -0.598,2.373 -0.138,4.132c0.55,2.107 0.438,3.523 -0.443,5.593c-0.417,0.98 -1.175,3.455 -1.086,3.545c0.136,0.135 8.764,-0.629 13.922,-1.233c0.637,-0.074 0.682,-0.056 1.187,0.475c0.623,0.655 0.932,1.556 1.029,3.003c0.101,1.511 0.133,1.602 0.596,1.704c0.225,0.049 0.409,0.176 0.409,0.283c0,0.106 0.096,0.194 0.213,0.194c0.123,-0 0.172,-0.065 0.117,-0.154c-0.057,-0.092 -0.022,-0.13 0.085,-0.094c0.255,0.085 0.325,0.372 0.107,0.442c-0.099,0.032 -0.472,0.097 -0.828,0.144c-0.686,0.092 -0.852,0.281 -0.341,0.388c0.169,0.036 -0.064,0.061 -0.517,0.055c-0.453,-0.005 -0.943,0.058 -1.09,0.14c-0.254,0.142 -0.25,0.156 0.09,0.285c0.195,0.074 1.268,0.326 2.384,0.56c3.839,0.804 8.308,1.929 8.846,2.228c0.629,0.348 1.154,1.256 1.152,1.995c-0.001,0.265 -0.114,0.956 -0.253,1.535c-0.139,0.579 -0.22,1.085 -0.181,1.124c0.04,0.039 0.186,0.072 0.326,0.072c0.14,-0 0.288,0.088 0.329,0.195c0.041,0.108 0.166,0.161 0.276,0.119c0.13,-0.05 0.229,0.028 0.279,0.221c0.048,0.181 0.152,0.269 0.266,0.225c0.277,-0.106 0.899,0.168 0.827,0.364c-0.035,0.094 -0.124,0.157 -0.199,0.141c-0.075,-0.015 -0.608,-0.039 -1.184,-0.052c-0.929,-0.022 -1.069,0.008 -1.25,0.267c-0.112,0.16 -0.316,0.291 -0.452,0.291c-0.137,-0 -0.479,0.096 -0.762,0.214c-0.835,0.349 -2.298,0.269 -4.057,-0.222c-4.475,-1.251 -9.53,-2.563 -12.269,-3.186c-0.274,-0.063 -0.273,-0.052 0.11,0.993c0.167,0.454 0.189,0.748 0.096,1.262c-0.116,0.637 -0.106,0.674 0.199,0.751c0.177,0.044 0.286,0.138 0.243,0.208c-0.045,0.073 0.085,0.095 0.308,0.051c0.313,-0.061 0.335,-0.051 0.113,0.053c-0.15,0.071 -0.226,0.133 -0.17,0.139c0.277,0.026 -0.492,0.554 -0.807,0.554c-0.2,0 -0.466,0.093 -0.591,0.206c-0.17,0.153 -0.723,0.229 -2.157,0.294c-1.766,0.08 -2.265,0.197 -1.725,0.405c0.232,0.089 0.278,0.322 0.063,0.322c-0.295,-0 -2.302,-0.995 -2.233,-1.107c0.04,-0.064 -0.018,-0.082 -0.128,-0.04c-0.305,0.117 -0.768,-0.189 -0.768,-0.508c0,-0.184 -0.065,-0.257 -0.187,-0.21c-0.104,0.04 -0.257,0.003 -0.341,-0.081c-0.113,-0.113 -0.153,0.138 -0.153,0.963c0,0.786 -0.08,1.328 -0.272,1.833c-0.347,0.913 -0.343,1.002 0.068,1.491c0.623,0.74 0.33,1.094 -0.359,0.434c-0.243,-0.232 -0.456,-0.327 -0.605,-0.27c-0.214,0.082 -0.215,0.107 -0.008,0.335c0.28,0.31 0.282,0.43 0.005,0.43c-0.119,-0 -0.248,-0.119 -0.286,-0.264c-0.037,-0.144 -0.139,-0.241 -0.225,-0.215c-0.086,0.026 -0.33,0.085 -0.541,0.131c-0.27,0.06 -0.442,0.224 -0.581,0.557c-0.108,0.259 -0.273,0.48 -0.365,0.489c-0.535,0.056 -0.892,0.113 -1.225,0.195c-0.292,0.072 -0.374,0.044 -0.374,-0.128l-0.001,0Zm-1.923,-2.932c-0.194,-0.555 -0.084,-1.584 0.201,-1.9c0.12,-0.132 0.587,-0.417 1.038,-0.632c0.802,-0.383 1.032,-0.615 0.611,-0.615c-0.319,0 -1.31,0.531 -1.734,0.928c-0.675,0.633 -0.741,1.404 -0.211,2.444c0.221,0.433 0.277,0.298 0.095,-0.225Zm-22.943,-1.198c0,-0.465 -0.07,-0.915 -0.155,-1.001c-0.117,-0.117 -0.151,0.043 -0.137,0.64c0.011,0.438 -0.033,1.042 -0.096,1.342l-0.116,0.545l0.251,-0.341c0.18,-0.244 0.252,-0.58 0.253,-1.185Zm26.36,0.444c-0.004,-0.207 -0.058,-0.161 -0.205,0.178c-0.25,0.577 -0.247,0.706 0.01,0.367c0.11,-0.146 0.198,-0.391 0.195,-0.545l-0,-0Zm1.152,0.517c0.13,-0.338 -0.013,-0.384 -0.187,-0.06c-0.084,0.156 -0.095,0.284 -0.025,0.284c0.069,-0 0.165,-0.101 0.212,-0.224l-0,0Zm-2.4,-0.567c-0.055,-0.286 -0.467,-0.375 -0.729,-0.157c-0.269,0.223 -0.249,0.508 0.041,0.574c0.35,0.079 0.738,-0.155 0.688,-0.417Zm-23.545,-0.346c0,-0.663 0.105,-0.788 1.159,-1.38c0.673,-0.378 3.093,-1.785 4.863,-2.827c0.501,-0.295 1.325,-0.902 1.83,-1.348c0.506,-0.446 1.245,-0.997 1.643,-1.225c0.619,-0.354 0.922,-0.667 0.646,-0.667c-0.216,0 -2.137,1.226 -2.879,1.838c-0.465,0.383 -1.691,1.139 -2.725,1.679c-1.034,0.54 -2.523,1.319 -3.309,1.732c-0.786,0.413 -1.518,0.716 -1.626,0.675c-0.315,-0.121 0.167,-0.495 1.625,-1.262c4.241,-2.23 5.274,-2.809 5.841,-3.277c0.909,-0.75 1.619,-1.205 3.739,-2.396c1.036,-0.581 2.078,-1.225 2.317,-1.431c0.238,-0.206 0.821,-0.635 1.296,-0.954c0.474,-0.319 0.83,-0.611 0.792,-0.649c-0.113,-0.113 -5.828,3.084 -8.603,4.814c-0.6,0.374 -2.133,1.237 -3.407,1.917c-1.274,0.681 -2.745,1.483 -3.27,1.782c-0.682,0.39 -1.002,0.505 -1.124,0.406c-0.249,-0.202 -0.208,-0.513 0.068,-0.517c0.242,-0.004 1.107,-0.447 3.441,-1.763c0.712,-0.401 1.716,-0.939 2.231,-1.195c0.515,-0.256 1.435,-0.788 2.043,-1.181c1.491,-0.963 3.267,-2.015 4.143,-2.455c1.059,-0.531 3.498,-2 3.55,-2.139c0.025,-0.066 0.117,-0.12 0.204,-0.121c0.088,-0 0.343,-0.151 0.568,-0.336c0.645,-0.528 0.073,-0.44 -1.294,0.201c-0.637,0.298 -1.266,0.542 -1.397,0.543c-0.498,0.003 -0.203,-0.295 0.75,-0.758c1.854,-0.901 2.341,-1.621 0.574,-0.85c-0.522,0.228 -1.286,0.546 -1.698,0.706c-1.074,0.416 -4.533,2.299 -5.655,3.078c-1.184,0.821 -4.16,2.52 -4.942,2.819c-0.32,0.123 -0.623,0.183 -0.673,0.133c-0.152,-0.152 0.339,-0.461 3.435,-2.164c0.824,-0.453 2.109,-1.219 2.855,-1.703c0.746,-0.483 2.463,-1.458 3.815,-2.166c2.579,-1.351 3.199,-1.737 3.04,-1.896c-0.17,-0.17 -5.476,2.541 -8.824,4.509c-2.14,1.258 -7.37,4.274 -8.96,5.168c-1.283,0.721 -1.973,1.231 -1.316,0.972c1.019,-0.402 2.136,-0.092 3.254,0.905c0.793,0.707 1.482,1.894 1.639,2.827c0.123,0.728 0.341,0.7 0.341,-0.044l0,-0Zm-1.769,-3.425c-0.129,-0.156 -0.139,-0.26 -0.034,-0.365c0.141,-0.142 1.458,-0.733 1.995,-0.896c0.519,-0.157 0.062,0.242 -0.739,0.646c-0.439,0.222 -0.853,0.501 -0.92,0.619c-0.109,0.195 -0.137,0.195 -0.302,-0.004l0,0Zm-1.364,-0.583c-0,-0.146 1.23,-0.871 1.389,-0.818c0.073,0.024 -0.173,0.241 -0.546,0.483c-0.701,0.454 -0.843,0.511 -0.843,0.335Zm3.951,-0.965c-0,-0.132 0.452,-0.566 0.59,-0.566c0.162,-0 0.097,0.247 -0.123,0.467c-0.233,0.233 -0.467,0.282 -0.467,0.099Zm2.458,-1.422c0.005,-0.19 1.917,-1.564 2.893,-2.08c0.358,-0.19 0.937,-0.526 1.287,-0.748c0.35,-0.222 0.763,-0.402 0.916,-0.4c0.257,0.004 0.248,0.033 -0.099,0.339c-0.209,0.183 -0.914,0.648 -1.567,1.032c-0.653,0.384 -1.586,0.959 -2.073,1.276c-1.032,0.673 -1.365,0.815 -1.357,0.581Zm6.712,-4.266c0.492,-0.457 1.023,-0.584 1.086,-0.26c0.033,0.172 -0.968,0.725 -1.332,0.734c-0.223,0.006 -0.179,-0.079 0.246,-0.474Zm-13.074,10.354c0.286,-0.393 0.207,-0.595 -0.125,-0.319c-0.188,0.156 -0.241,0.148 -0.352,-0.05c-0.102,-0.182 -0.188,-0.202 -0.395,-0.091c-0.306,0.164 -0.364,0.472 -0.068,0.359c0.119,-0.046 0.231,0.029 0.282,0.189c0.114,0.36 0.355,0.328 0.658,-0.088l0,-0Zm29.452,-1.008c-0.046,-0.074 -0.219,-0.2 -0.383,-0.28c-0.283,-0.137 -0.282,-0.13 0.022,0.136c0.348,0.302 0.494,0.361 0.361,0.144l-0,0Zm-5.451,-2.12c1.399,-0.82 3.756,-1.133 5.041,-0.67c0.3,0.108 0.567,0.197 0.594,0.199c0.087,0.003 -0.106,-0.627 -0.537,-1.755c-0.364,-0.954 -0.465,-1.105 -0.745,-1.105c-0.396,0 -0.715,-0.491 -0.474,-0.73c0.118,-0.117 0.191,-0.095 0.294,0.086c0.194,0.345 0.429,0.137 0.328,-0.29c-0.237,-1.003 -1.097,-3.523 -1.272,-3.729c-0.28,-0.329 -0.462,-0.161 -0.415,0.383c0.063,0.723 -0.177,0.561 -0.504,-0.342c-0.332,-0.915 -0.547,-1.236 -0.828,-1.236c-0.275,-0 -0.248,0.371 0.16,2.159c0.048,0.208 0.018,0.301 -0.086,0.267c-0.087,-0.029 -0.351,-0.567 -0.585,-1.195c-0.545,-1.461 -0.846,-1.629 -0.71,-0.398c0.053,0.478 0.13,1.008 0.171,1.176c0.13,0.537 -0.217,0.336 -0.529,-0.306c-0.164,-0.338 -0.353,-0.613 -0.42,-0.613c-0.139,-0 -0.064,1.17 0.099,1.532c0.082,0.184 0.043,0.239 -0.167,0.239c-0.196,-0 -0.345,-0.174 -0.526,-0.613c-0.222,-0.54 -0.457,-0.804 -0.455,-0.511c0.001,0.175 0.925,5.395 1.024,5.79c0.072,0.284 0.045,0.375 -0.108,0.375c-0.148,0 -0.304,-0.439 -0.572,-1.601c-0.554,-2.41 -1.034,-4.174 -1.174,-4.319c-0.183,-0.19 -0.147,0.636 0.084,1.901c0.539,2.95 0.767,4.733 0.624,4.876c-0.081,0.081 -0.173,0.12 -0.205,0.088c-0.051,-0.052 -0.677,-2.797 -1.194,-5.237c-0.122,-0.575 -0.187,-0.713 -0.219,-0.464c-0.057,0.436 0.375,3.075 0.939,5.734l0.424,2l0.667,-0.667c0.367,-0.366 0.941,-0.827 1.276,-1.024Zm-1.672,0.446c0.02,-0.208 0.097,-0.381 0.17,-0.385c0.222,-0.01 0.223,0.215 0.002,0.497c-0.201,0.257 -0.208,0.252 -0.172,-0.112l-0,0Zm1.14,-0.622c-0.047,-0.076 -0.019,-0.179 0.062,-0.229c0.209,-0.13 0.345,0.047 0.17,0.222c-0.098,0.098 -0.174,0.101 -0.232,0.008l0,-0.001Zm1.009,-1.018c-0,-0.331 1.597,-0.745 2.247,-0.582c0.618,0.155 0.359,0.319 -0.762,0.483c-0.607,0.089 -1.189,0.194 -1.294,0.235c-0.113,0.043 -0.191,-0.013 -0.191,-0.136Zm3.645,-0.636c-0.206,-0.216 -0.589,-0.47 -0.852,-0.565c-0.484,-0.175 -0.657,-0.527 -0.259,-0.527c0.569,0 1.826,0.945 1.826,1.373c-0,0.244 -0.345,0.108 -0.715,-0.281Zm-3.781,-0.328c-0,-0.104 0.092,-0.225 0.204,-0.268c0.139,-0.054 0.204,0.007 0.204,0.19c0,0.147 -0.092,0.268 -0.204,0.268c-0.112,-0 -0.204,-0.085 -0.204,-0.19Zm1.037,-1.275c-0.115,-0.356 -0.25,-0.984 -0.3,-1.396c-0.136,-1.133 0.15,-0.706 0.482,0.72c0.324,1.388 0.316,1.323 0.154,1.323c-0.069,0 -0.22,-0.291 -0.336,-0.647Zm-1.516,0.205c-0.081,-0.221 -0.475,-2.125 -0.475,-2.292c-0,-0.07 0.089,-0.127 0.198,-0.127c0.117,0 0.23,0.182 0.276,0.443c0.197,1.126 0.318,1.688 0.409,1.907c0.071,0.171 0.036,0.239 -0.123,0.239c-0.123,-0 -0.251,-0.077 -0.285,-0.17Zm3.013,-0.764c-0.163,-0.26 -0.63,-1.834 -0.563,-1.9c0.138,-0.138 0.339,0.169 0.55,0.841c0.235,0.748 0.244,1.426 0.013,1.059l0,0Zm0.327,-1.996c-0,-0.187 0.061,-0.34 0.136,-0.34c0.075,-0 0.136,0.056 0.136,0.125c0,0.069 0.038,0.222 0.083,0.341c0.054,0.141 0.008,0.215 -0.136,0.215c-0.143,0 -0.219,-0.118 -0.219,-0.341Zm-1.464,6.406c0.776,-0.23 1.966,-0.264 2.69,-0.076c0.262,0.068 0.63,0.163 0.818,0.212l0.34,0.087l-0.317,-0.279c-0.687,-0.605 -2.26,-0.733 -3.526,-0.288c-0.904,0.318 -1.741,0.842 -1.941,1.217c-0.107,0.199 0.029,0.15 0.549,-0.201c0.381,-0.256 1.005,-0.558 1.387,-0.672Zm-27.267,0.821c0.439,-0.19 0.444,-0.199 0.101,-0.204c-0.197,-0.003 -0.435,0.086 -0.528,0.199c-0.211,0.254 -0.149,0.255 0.427,0.005l0,0Zm38.752,-0.77c0.884,-0.223 0.608,-0.393 -0.638,-0.393c-0.966,-0 -1.086,-0.028 -1.046,-0.239c0.034,-0.179 0.232,-0.26 0.793,-0.324c0.412,-0.048 0.916,-0.153 1.122,-0.235c0.205,-0.082 0.473,-0.11 0.594,-0.063c0.181,0.069 0.203,0.025 0.12,-0.243c-0.144,-0.463 -0.514,-0.957 -1.144,-1.526c-1.494,-1.35 -3.51,-1.647 -4.543,-0.67c-1.075,1.016 -0.511,2.409 1.338,3.304c1.122,0.543 2.269,0.674 3.404,0.389l-0,-0Zm-3.448,-0.891c-0.601,-0.296 -1.259,-1.071 -1.259,-1.483c-0,-0.472 0.339,-0.423 0.547,0.079c0.095,0.228 0.484,0.688 0.866,1.022c0.707,0.619 0.644,0.776 -0.154,0.382Zm0.376,-0.865c-0,-0.075 0.057,-0.136 0.128,-0.136c0.07,-0 0.166,0.061 0.212,0.136c0.047,0.075 -0.011,0.136 -0.128,0.136c-0.117,0 -0.212,-0.061 -0.212,-0.136Zm19.348,1.039c-0,-0.253 0.034,-0.667 0.077,-0.92c0.062,-0.372 0.048,-0.414 -0.075,-0.222c-0.226,0.354 -0.349,1.602 -0.158,1.602c0.086,-0 0.156,-0.207 0.156,-0.46Zm-0.936,-0.983c0.122,-0.382 0.398,-0.96 0.613,-1.285c0.443,-0.67 1.75,-1.581 2.461,-1.714c0.27,-0.051 0.42,-0.139 0.351,-0.208c-0.171,-0.171 -2.114,-0.718 -4.476,-1.26c-2.647,-0.607 -3.142,-0.684 -3.253,-0.504c-0.133,0.215 0.316,0.366 2.63,0.885c1.15,0.258 2.127,0.505 2.171,0.549c0.044,0.043 0.014,0.145 -0.067,0.226c-0.104,0.104 -0.781,0.004 -2.359,-0.348c-2.347,-0.524 -2.519,-0.586 -3.267,-1.179c-0.512,-0.406 -1.289,-0.741 -3.152,-1.36c-2.297,-0.762 -7.977,-1.934 -11.157,-2.302c-2.802,-0.324 -3.04,-0.326 -2.041,-0.018c0.574,0.177 0.749,0.294 0.749,0.498c0,0.241 -0.083,0.262 -0.885,0.224c-1.184,-0.056 -0.949,0.164 0.551,0.515c1.693,0.397 5.419,1.126 6.121,1.199c0.551,0.057 0.592,0.042 0.425,-0.159c-0.101,-0.122 -0.498,-0.312 -0.882,-0.424c-0.618,-0.179 -4.625,-1.015 -4.887,-1.019c-0.056,-0.001 -0.102,-0.126 -0.102,-0.277c-0,-0.215 0.067,-0.26 0.307,-0.206c0.168,0.038 1.067,0.196 1.996,0.35c2.869,0.477 3.997,0.79 4.683,1.299l0.303,0.226l-0.306,-0.071c-0.315,-0.073 -0.546,0.096 -0.322,0.235c0.24,0.148 -0.009,0.595 -0.37,0.664c-0.427,0.082 -1.213,-0.038 -4.315,-0.657c-2.702,-0.539 -4.02,-0.706 -4.02,-0.511c0,0.248 4.324,1.279 8.584,2.046c0.398,0.072 0.613,0.181 0.613,0.311c0,0.339 -1.245,0.202 -4.915,-0.54c-3.444,-0.696 -4.272,-0.815 -3.873,-0.553c0.331,0.218 1.965,0.619 6.472,1.59c1.705,0.367 3.443,0.451 3.614,0.174c0.118,-0.191 1.265,-0.033 4.561,0.63c4.347,0.875 7.562,1.688 7.562,1.913c-0,0.233 -0.272,0.295 -0.749,0.172c-2.38,-0.614 -5.74,-1.369 -6.949,-1.56c-0.825,-0.13 -1.944,-0.311 -2.487,-0.401c-1.019,-0.169 -1.325,-0.061 -0.545,0.192c0.597,0.193 2.204,0.524 3.78,0.776c0.713,0.114 2.215,0.472 3.339,0.795c1.124,0.323 2.274,0.628 2.555,0.679c0.521,0.094 0.702,0.424 0.313,0.573c-0.109,0.042 -1.339,-0.205 -2.734,-0.549c-2.652,-0.654 -2.931,-0.706 -2.716,-0.504c0.347,0.325 4.99,1.662 5.58,1.607c0.199,-0.019 0.332,-0.211 0.495,-0.719l-0,-0Zm-0.008,-2.019c-0.086,-0.103 -0.353,-0.215 -0.594,-0.248c-0.398,-0.055 -1.235,-0.233 -5.108,-1.088c-0.694,-0.153 -1.296,-0.332 -1.336,-0.397c-0.111,-0.179 0.191,-0.15 2.3,0.223c2.822,0.498 5.136,1.121 5.136,1.381c0,0.264 -0.225,0.337 -0.398,0.129Zm0.969,-0.728c0.048,-0.253 0.656,-0.424 0.656,-0.184c-0,0.132 -0.423,0.423 -0.615,0.423c-0.047,-0 -0.066,-0.108 -0.041,-0.239l-0,0Zm-10.99,-1.341c-0.822,-0.179 -1.558,-0.319 -1.635,-0.311c-0.329,0.036 -0.656,-0.024 -0.575,-0.104c0.177,-0.177 2.001,-0.032 2.966,0.236c2.11,0.584 1.627,0.699 -0.756,0.179Zm0.677,-0.738c-0.449,-0.133 -1.354,-0.318 -2.009,-0.412c-0.818,-0.117 -1.193,-0.227 -1.193,-0.352c0,-0.206 0.071,-0.198 2.453,0.294c0.862,0.178 1.797,0.364 2.078,0.413c0.281,0.049 0.511,0.143 0.511,0.21c-0,0.19 -0.944,0.112 -1.84,-0.153Zm11.566,5.252c0.271,-0.414 0.274,-0.482 0.021,-0.482c-0.11,0 -0.263,0.119 -0.341,0.264c-0.314,0.587 -0.043,0.772 0.32,0.218l0,-0Zm0.622,-2.304c-0.118,-0.129 -0.936,0.323 -1.234,0.682c-0.113,0.135 0.108,0.07 0.581,-0.172c0.419,-0.215 0.713,-0.445 0.653,-0.51Zm-40.258,-1.724c1.027,-0.683 0.843,-0.682 -0.474,0.003c-0.75,0.39 -0.931,0.533 -0.682,0.535c0.188,0.001 0.708,-0.241 1.156,-0.538l-0,-0Zm-17.006,-0.463c0.673,-0.024 0.438,-0.215 -0.265,-0.215c-0.822,0 -1.127,-0.195 -0.617,-0.394c0.173,-0.068 1.234,-0.314 2.358,-0.546c3.34,-0.692 3.553,-0.743 3.31,-0.797c-0.128,-0.028 -1.262,0.112 -2.521,0.312c-3.662,0.581 -3.823,0.588 -3.135,0.138c0.301,-0.197 1.246,-0.391 6.67,-1.37c2.645,-0.478 3.967,-0.787 4.668,-1.093c0.225,-0.098 1.127,-0.309 2.005,-0.468c1.985,-0.359 3.497,-0.751 3.7,-0.958c0.169,-0.174 0.139,-0.17 -2.366,0.277c-2.162,0.387 -2.862,0.459 -2.862,0.296c0,-0.079 0.813,-0.335 1.806,-0.57c0.993,-0.234 2.725,-0.684 3.849,-0.999l2.044,-0.572l-1.499,-0.148l0.409,-0.174c0.224,-0.096 0.576,-0.208 0.781,-0.25c0.205,-0.041 0.345,-0.119 0.311,-0.174c-0.081,-0.13 -2.168,0.166 -4.294,0.611c-3.677,0.768 -4.222,0.889 -6.122,1.36c-1.082,0.267 -3.32,0.791 -4.973,1.164c-1.654,0.373 -3.406,0.787 -3.893,0.921l-0.886,0.242l0.029,0.949c0.016,0.522 0.1,1.335 0.187,1.808l0.158,0.858l0.427,-0.098c0.234,-0.055 0.558,-0.104 0.721,-0.11l-0,0Zm-0.594,-2.578c0.135,-0.109 0.932,-0.324 1.771,-0.477c2.538,-0.463 2.723,-0.482 2.655,-0.277c-0.06,0.181 -2.388,0.696 -3.923,0.868c-0.671,0.076 -0.724,0.064 -0.503,-0.114Zm5.544,-0.9c0,-0.091 0.076,-0.14 0.169,-0.109c0.093,0.031 0.44,-0.026 0.771,-0.125c0.699,-0.21 1.104,-0.232 1.104,-0.06c0,0.143 -0.343,0.237 -1.328,0.365c-0.521,0.068 -0.716,0.049 -0.716,-0.071l0,-0Zm2.487,-0.313c0.031,-0.093 0.536,-0.281 1.122,-0.416c0.852,-0.198 1.088,-0.212 1.174,-0.073c0.08,0.13 -0.176,0.234 -1.009,0.41c-1.367,0.289 -1.357,0.288 -1.287,0.079l-0,0Zm0.511,-1.308c-0,-0.17 0.036,-0.182 2.389,-0.764c1.207,-0.299 1.949,-0.423 2.032,-0.341c0.231,0.232 -0.088,0.366 -1.696,0.718c-2.177,0.475 -2.725,0.553 -2.725,0.387Zm5.099,-1.046c0.145,-0.109 0.296,-0.165 0.337,-0.124c0.085,0.086 -0.261,0.329 -0.463,0.325c-0.075,-0.001 -0.018,-0.091 0.126,-0.201Zm1.168,-0.338c0,-0.132 0.057,-0.149 1.336,-0.402c0.891,-0.176 1.156,-0.179 1.054,-0.015c-0.07,0.114 -0.606,0.244 -1.947,0.472c-0.243,0.041 -0.443,0.017 -0.443,-0.055l0,-0Zm30.652,1.562c1.308,-0.264 2.429,-0.555 2.489,-0.646c0.123,-0.184 0.008,-1.056 -0.161,-1.232c-0.06,-0.062 -1.005,0.079 -2.101,0.313c-1.096,0.234 -2.314,0.461 -2.708,0.504c-0.657,0.072 -0.699,0.06 -0.507,-0.142c0.125,-0.132 1.208,-0.45 2.691,-0.79c1.594,-0.365 2.482,-0.63 2.482,-0.739c0,-0.31 -0.697,-1.009 -1,-1.003c-0.333,0.007 -1.209,0.374 -0.934,0.391c0.369,0.023 -0.007,0.284 -0.408,0.284c-0.231,0 -0.627,0.129 -0.881,0.286c-0.39,0.241 -1.643,0.661 -1.989,0.666c-0.056,0.001 -0.102,-0.081 -0.102,-0.183c0,-0.115 0.372,-0.283 0.978,-0.443c0.537,-0.142 1.001,-0.33 1.03,-0.419c0.13,-0.399 -0.508,-0.405 -3.983,-0.038c-1.949,0.205 -4.279,0.413 -5.178,0.462c-2.261,0.122 -2.952,0.215 -2.894,0.388c0.032,0.098 0.634,0.136 1.778,0.113c1.041,-0.02 1.729,0.019 1.729,0.098c0,0.216 -0.272,0.26 -1.771,0.286c-1.555,0.027 -2.044,0.102 -2.044,0.313c0,0.2 6.282,-0.202 8.788,-0.562c0.45,-0.065 0.865,-0.09 0.922,-0.056c0.249,0.147 -0.104,0.302 -1.024,0.449c-0.543,0.087 -1.921,0.338 -3.062,0.557c-1.141,0.22 -2.287,0.399 -2.547,0.399c-0.259,0 -0.51,0.062 -0.556,0.137c-0.135,0.218 1.329,0.159 3.202,-0.13c3.659,-0.564 5.025,-0.499 2.622,0.125c-0.655,0.171 -1.249,0.363 -1.319,0.428c-0.231,0.213 0.024,0.278 0.556,0.141c0.289,-0.075 0.832,-0.173 1.206,-0.219c1.424,-0.175 3.487,-0.497 4.851,-0.757c1.659,-0.316 2.074,-0.337 1.998,-0.099c-0.055,0.17 -1.174,0.467 -3.987,1.058c-1.975,0.414 -2.24,0.523 -1.295,0.533c0.412,0.004 1.82,-0.209 3.129,-0.473l-0,-0Zm-8.579,-2.242c0,-0.075 0.261,-0.131 0.579,-0.123c0.492,0.011 0.528,0.03 0.239,0.123c-0.491,0.157 -0.818,0.157 -0.818,-0Zm5.723,19.803c-0.739,-0.299 -0.903,-1.064 -0.347,-1.62c0.268,-0.268 0.473,-0.335 1.032,-0.335c0.59,0 0.76,0.062 1.096,0.399c0.479,0.478 0.496,0.7 0.092,1.165c-0.232,0.267 -0.471,0.367 -0.988,0.413c-0.374,0.034 -0.773,0.024 -0.885,-0.022l-0,0Zm1.022,-1.137c0.049,-0.079 -0.09,-0.136 -0.333,-0.136c-0.229,-0 -0.417,0.061 -0.417,0.136c0,0.075 0.15,0.136 0.333,0.136c0.183,0 0.37,-0.061 0.417,-0.136Zm5.552,0.342c-0.517,-0.225 -0.632,-0.751 -0.164,-0.751c0.397,0 1.084,0.382 1.084,0.602c-0,0.144 -0.31,0.38 -0.454,0.347c-0.013,-0.003 -0.223,-0.092 -0.466,-0.198Zm-40.501,-0.522c0,-0.362 0.26,-0.541 0.537,-0.37c0.266,0.164 0.109,0.613 -0.232,0.662c-0.245,0.035 -0.305,-0.023 -0.305,-0.292Zm-11.036,0.059c-0,-0.078 0.128,-0.21 0.284,-0.294c0.244,-0.131 0.278,-0.117 0.237,0.096c-0.05,0.261 -0.521,0.44 -0.521,0.198Zm38.763,-0.055c-0.346,-0.42 -1.43,-2.153 -1.43,-2.286c-0,-0.343 0.379,0.029 1.117,1.093c0.697,1.006 0.847,1.381 0.544,1.364c-0.052,-0.003 -0.156,-0.08 -0.231,-0.171Zm3.893,-0.468c-0.431,-0.524 -0.511,-0.718 -0.293,-0.718c0.2,-0 0.965,0.818 0.965,1.032c-0,0.327 -0.233,0.218 -0.672,-0.314Zm-5.244,0.148c-0.047,-0.123 -0.058,-0.252 -0.024,-0.286c0.109,-0.109 0.353,0.109 0.353,0.313c0,0.268 -0.223,0.249 -0.329,-0.027l0,-0Zm-22.38,-0.248c-1.223,-0.531 -0.88,-2.37 0.572,-3.073c1.033,-0.5 2.04,-0.172 2.551,0.829c0.346,0.678 0.311,1.429 -0.085,1.825c-0.589,0.589 -2.152,0.805 -3.038,0.419Zm1.182,-1.136c-0,-0.06 -0.064,-0.173 -0.141,-0.25c-0.284,-0.284 0.011,-0.595 0.564,-0.595c0.55,0 0.647,-0.101 0.367,-0.381c-0.224,-0.224 -0.806,-0.206 -1.152,0.036c-0.413,0.29 -0.486,0.724 -0.173,1.036c0.27,0.27 0.535,0.346 0.535,0.154l-0,-0Zm8.447,0.722c0,-0.337 0.185,-0.457 0.333,-0.217c0.099,0.16 -0.052,0.558 -0.211,0.558c-0.067,-0 -0.122,-0.154 -0.122,-0.341Zm34.521,0.137c-0.118,-0.308 0.098,-0.485 0.471,-0.387c0.19,0.049 0.294,0.166 0.269,0.302c-0.058,0.303 -0.631,0.368 -0.74,0.085Zm-37.11,-0.315c0,-0.061 0.221,-0.475 0.491,-0.92c0.27,-0.445 0.635,-1.131 0.81,-1.525c0.187,-0.419 0.407,-0.715 0.531,-0.715c0.245,-0 0.275,0.155 0.069,0.361c-0.079,0.079 -0.278,0.474 -0.443,0.879c-0.388,0.954 -1.07,2.029 -1.287,2.03c-0.094,-0 -0.171,-0.05 -0.171,-0.11l0,-0Zm19.429,-0.694c-0.133,-0.146 -0.178,-0.294 -0.105,-0.339c0.124,-0.077 0.276,0.056 0.488,0.427c0.151,0.264 -0.121,0.201 -0.383,-0.088Zm-17.794,-0.074c0,-0.22 0.193,-0.383 0.313,-0.263c0.106,0.106 -0.041,0.46 -0.191,0.46c-0.067,-0 -0.122,-0.089 -0.122,-0.197Zm-29.157,-0.198c-0,-0.254 0.248,-0.423 0.624,-0.423c0.264,0 0.245,0.496 -0.022,0.599c-0.389,0.149 -0.602,0.087 -0.602,-0.176l-0,0Zm3.205,-0.145c-0.124,-0.201 0.019,-0.384 0.494,-0.629c0.679,-0.351 1.116,0.007 0.49,0.402c-0.457,0.288 -0.885,0.387 -0.984,0.227Zm47.923,-0.586c-0.597,-0.3 -0.745,-0.509 -0.359,-0.509c0.273,-0 1.279,0.555 1.279,0.706c-0,0.179 -0.3,0.115 -0.92,-0.197Zm-26.467,0.054c0,-0.303 1.879,-2.471 2.141,-2.471c0.176,0 0.17,0.056 -0.037,0.375c-0.916,1.409 -2.104,2.592 -2.104,2.096l0,-0Zm39.309,-0.392c-1.123,-0.229 -1.457,-0.447 -0.675,-0.438c0.626,0.007 1.668,0.192 1.795,0.32c0.24,0.239 -0.266,0.292 -1.12,0.118Zm3.134,-0.261c-0.699,-0.211 -0.995,-0.392 -0.86,-0.527c0.13,-0.13 1.895,0.371 1.844,0.524c-0.075,0.224 -0.251,0.225 -0.984,0.003l-0,-0Zm-14.103,-0.047c0,-0.075 0.065,-0.136 0.145,-0.136c0.079,0 0.106,0.061 0.06,0.136c-0.047,0.075 -0.111,0.137 -0.144,0.137c-0.034,-0 -0.061,-0.062 -0.061,-0.137l0,0Zm4.962,0.008c-0.896,-0.214 -1.044,-0.589 -0.159,-0.401c1.109,0.235 1.193,0.263 1.193,0.396c-0,0.151 -0.414,0.153 -1.034,0.005l-0,0Zm-6.528,-0.551l-0.545,-0.25l0.545,0.048c0.299,0.027 0.621,0.052 0.715,0.056c0.094,0.005 0.17,0.1 0.17,0.212c0,0.261 -0.207,0.246 -0.885,-0.066l-0,0Zm2.958,-0.327c-1.489,-0.434 -2.179,-0.766 -1.589,-0.764c0.512,0.002 3.655,0.903 3.709,1.064c0.087,0.26 -0.469,0.182 -2.12,-0.3Zm13.835,-0.044c-0.833,-0.218 -1.038,-0.448 -0.4,-0.448c0.526,-0 1.796,0.389 1.796,0.55c0,0.178 -0.459,0.144 -1.396,-0.102Zm-43.565,-0.452c0.082,-0.152 0.204,-0.242 0.272,-0.2c0.178,0.11 0.005,0.476 -0.225,0.476c-0.153,0 -0.163,-0.058 -0.047,-0.276l0,-0Zm45.949,-0.012c-0.244,-0.071 -0.443,-0.207 -0.443,-0.304c0,-0.141 0.153,-0.145 0.775,-0.021c0.427,0.085 0.8,0.227 0.829,0.316c0.064,0.191 -0.513,0.196 -1.161,0.009l-0,-0Zm-18.763,-0.384c-0.043,-0.069 -0.016,-0.165 0.06,-0.212c0.163,-0.1 0.411,0.027 0.411,0.211c0,0.166 -0.369,0.167 -0.471,0.002l0,-0.001Zm-54.155,-0.498c-0.471,-0.396 -0.522,-0.725 -0.199,-1.272c0.298,-0.506 0.637,-0.694 1.391,-0.775c1.666,-0.18 2.615,1.431 1.253,2.126c-0.806,0.411 -1.905,0.376 -2.445,-0.079Zm2.168,-1.153c-0.333,-0.216 -0.8,-0.302 -1.054,-0.193c-0.19,0.081 -0.145,0.123 0.216,0.204c0.251,0.057 0.524,0.171 0.607,0.254c0.104,0.104 0.194,0.107 0.293,0.009c0.098,-0.099 0.079,-0.182 -0.062,-0.274l0,0Zm53.959,1.143c-1.109,-0.24 -1.457,-0.518 -0.479,-0.383c1.217,0.169 1.614,0.274 1.671,0.443c0.065,0.196 -0.03,0.192 -1.192,-0.06l0,0Zm-59.589,-0.409c-0.227,-0.226 -0.067,-0.454 0.318,-0.454c0.435,-0 0.51,0.116 0.245,0.381c-0.181,0.181 -0.424,0.212 -0.563,0.073l-0,-0Zm9.446,-1.403c0,-0.162 0.451,-0.414 0.741,-0.414c0.278,-0 0.276,0.355 -0.002,0.462c-0.328,0.126 -0.739,0.099 -0.739,-0.048l0,-0Zm70.374,-0.123c-0.667,-0.145 -0.523,-0.495 0.205,-0.495c0.521,-0 0.613,0.04 0.613,0.27c-0,0.3 -0.207,0.357 -0.818,0.225Zm-80.247,-0.693c-0.05,-0.08 -0.01,-0.174 0.089,-0.209c0.319,-0.113 1.398,-0.336 1.643,-0.34c0.433,-0.005 0.249,0.257 -0.272,0.389c-1.053,0.269 -1.372,0.304 -1.46,0.16Zm-5.326,-0.565c-0.147,-0.236 0.072,-0.357 0.787,-0.436c0.396,-0.043 0.919,-0.121 1.162,-0.173c0.346,-0.073 0.443,-0.048 0.443,0.113c-0,0.147 -0.26,0.251 -0.92,0.365c-0.506,0.088 -1.027,0.181 -1.158,0.207c-0.131,0.026 -0.272,-0.008 -0.314,-0.076Zm3.263,-0.714c-0.382,-0.162 -0.791,-0.375 -0.908,-0.472c-0.117,-0.098 -0.442,-0.159 -0.721,-0.137c-0.72,0.059 -0.773,-0.255 -0.088,-0.524c0.581,-0.228 0.575,-0.219 1.41,-2.151c0.582,-1.345 0.921,-1.79 1.577,-2.07c0.575,-0.244 1.141,-0.236 2.098,0.033c1.44,0.404 3.114,2.285 3.117,3.502c0.003,1.077 -0.418,1.366 -2.631,1.803c-2.033,0.402 -2.935,0.405 -3.854,0.016l0,-0Zm5.317,-1.672c0.796,-0.305 -0.568,-2.299 -1.933,-2.826c-0.929,-0.359 -1.545,-0.299 -2.016,0.197l-0.4,0.422l0.475,0.362c0.262,0.198 0.605,0.484 0.762,0.633c0.699,0.664 0.916,0.806 1.59,1.039c0.758,0.261 1.17,0.308 1.522,0.173Zm-2.737,-1.614c-0.784,-0.803 -0.882,-1.028 -0.447,-1.028c0.325,-0 1.628,1.249 1.628,1.56c0,0.411 -0.465,0.201 -1.181,-0.532Zm-5.686,2.959c-0.164,-0.164 -0.074,-0.308 0.191,-0.308c0.15,-0 0.273,0.054 0.273,0.121c-0,0.153 -0.355,0.296 -0.464,0.187Zm82.501,-0.024c-0.284,-0.18 -0.071,-0.557 0.314,-0.557c0.389,0 0.526,0.156 0.407,0.465c-0.091,0.237 -0.424,0.28 -0.721,0.092Zm-69.137,-0.238c-0.051,-0.05 -0.093,-0.141 -0.093,-0.2c0,-0.122 1.277,-0.528 1.66,-0.528c0.44,0 0.263,0.245 -0.331,0.458c-0.876,0.315 -1.135,0.372 -1.236,0.27Zm75.894,-0.269c-0.229,-0.23 -0.073,-0.459 0.314,-0.459c0.273,0 0.409,0.068 0.409,0.205c-0,0.112 -0.056,0.204 -0.125,0.204c-0.069,0 -0.21,0.033 -0.314,0.072c-0.104,0.04 -0.231,0.03 -0.284,-0.022l0,-0Zm-77.077,-1.051c0,-0.209 1.78,-0.77 2.441,-0.77c0.607,-0 0.517,0.237 -0.159,0.413c-0.318,0.083 -0.881,0.239 -1.251,0.346c-0.835,0.242 -1.031,0.244 -1.031,0.011l0,0Zm62.676,-1.572c-1.263,-0.289 -1.608,-0.472 -1.718,-0.913c-0.123,-0.49 0.033,-1.286 0.33,-1.688c0.492,-0.665 1.09,-0.957 1.958,-0.957c1.377,-0 2.131,0.51 2.845,1.924c0.276,0.548 0.487,0.793 0.734,0.855c0.216,0.054 0.347,0.183 0.347,0.339c0,0.191 -0.192,0.306 -0.792,0.474c-0.997,0.28 -2.385,0.267 -3.704,-0.034l-0,-0Zm0.688,-1.675c1.162,-0.392 1.346,-0.577 0.925,-0.927c-0.388,-0.324 -1.324,-0.361 -1.877,-0.075c-0.332,0.172 -0.69,0.785 -0.69,1.183c0,0.205 0.741,0.124 1.642,-0.181Zm7.657,1.569c-0.272,-0.11 -0.196,-0.567 0.122,-0.738c0.387,-0.207 1.578,-0.085 1.853,0.189c0.387,0.388 -0.003,0.641 -0.969,0.629c-0.46,-0.006 -0.912,-0.042 -1.006,-0.08Zm-84.646,-1.545c-0.349,-0.348 -0.345,-0.688 0.012,-1.142c0.418,-0.531 1.034,-0.808 1.596,-0.717c1.111,0.18 1.531,1.339 0.674,1.861c-0.62,0.378 -1.903,0.377 -2.282,-0.002l0,0Zm1.908,-0.953c-0,-0.075 -0.184,-0.137 -0.409,-0.137c-0.225,0 -0.409,0.062 -0.409,0.137c0,0.074 0.184,0.136 0.409,0.136c0.225,-0 0.409,-0.062 0.409,-0.136Zm11.195,1.106c-0.145,-0.091 -0.136,-0.133 0.046,-0.202c0.27,-0.104 0.514,0.015 0.402,0.195c-0.096,0.156 -0.211,0.158 -0.448,0.007l-0,0Zm0.931,-0.204c-0,-0.113 0.052,-0.237 0.116,-0.277c0.202,-0.124 3.873,-0.769 3.949,-0.693c0.186,0.186 -0.34,0.378 -1.897,0.691c-0.93,0.187 -1.798,0.373 -1.93,0.412c-0.153,0.047 -0.238,-0 -0.238,-0.133Zm-3.92,-0.382c0.066,-0.201 1.032,-0.402 1.134,-0.237c0.088,0.143 -0.047,0.208 -0.669,0.321c-0.403,0.072 -0.511,0.053 -0.465,-0.084Zm1.467,-0.314c0,-0.11 0.169,-0.238 0.375,-0.283c0.206,-0.045 0.528,-0.136 0.715,-0.202c1.633,-0.577 7.103,-1.399 7.724,-1.161c0.43,0.165 -0.025,0.33 -1.32,0.479c-0.712,0.082 -2.428,0.386 -3.815,0.674c-1.524,0.317 -2.581,0.477 -2.673,0.404c-0.094,-0.075 -0.217,-0.042 -0.323,0.085c-0.219,0.265 -0.683,0.268 -0.683,0.005l0,-0.001Zm78.579,-0.291c-0.054,-0.053 -0.098,-0.182 -0.098,-0.286c0,-0.141 0.166,-0.179 0.648,-0.148c0.466,0.03 0.647,0.099 0.647,0.246c-0,0.141 -0.17,0.217 -0.55,0.245c-0.303,0.022 -0.594,-0.003 -0.647,-0.057l-0,0Zm-80.895,-0.44c0,-0.063 0.537,-0.255 1.192,-0.424c0.656,-0.17 1.591,-0.421 2.078,-0.556l0.886,-0.247l-0.63,-0.01c-0.346,-0.005 -1.35,0.115 -2.231,0.268c-0.881,0.153 -1.636,0.244 -1.678,0.202c-0.155,-0.155 0.214,-0.309 1.473,-0.612c2.215,-0.533 2.081,-0.733 -0.238,-0.355c-1.793,0.292 -2.987,0.392 -2.827,0.237c0.074,-0.073 1.178,-0.399 2.452,-0.725c2.531,-0.646 2.556,-0.854 0.048,-0.395c-0.845,0.154 -1.629,0.28 -1.741,0.28c-0.399,0 0.157,-0.361 1.148,-0.747c1.127,-0.438 1.366,-0.615 0.828,-0.615c-0.347,-0 -0.366,-0.024 -0.197,-0.239c0.164,-0.209 0.161,-0.218 -0.024,-0.074c-0.116,0.09 -0.418,0.137 -0.671,0.105c-0.254,-0.032 -0.539,0.007 -0.634,0.086c-0.095,0.078 -0.314,0.126 -0.487,0.105c-0.173,-0.021 -0.441,0.032 -0.597,0.118c-0.155,0.086 -0.608,0.199 -1.006,0.251c-1.06,0.141 -0.849,-0.213 0.276,-0.46c0.482,-0.106 1.011,-0.256 1.174,-0.333c0.164,-0.077 0.398,-0.102 0.521,-0.055c0.305,0.117 0.632,-0.241 0.659,-0.72c0.023,-0.421 0.653,-1.237 0.955,-1.237c0.1,0 0.555,-0.186 1.011,-0.414c0.658,-0.329 0.842,-0.492 0.89,-0.784c0.033,-0.203 0.071,-1.465 0.084,-2.806c0.026,-2.711 0.078,-2.916 0.917,-3.607c0.45,-0.371 0.978,-0.628 2.296,-1.117l0.409,-0.151l-0.496,-0.257c-0.742,-0.383 -1.722,-1.429 -1.883,-2.008c-0.081,-0.291 -0.141,-2.126 -0.141,-4.321l-0.001,-3.816l-0.885,-0.953c-1.973,-2.122 -2.491,-4.48 -1.364,-6.212c0.374,-0.576 1.336,-1.077 2.067,-1.077c0.275,0 0.917,0.192 1.425,0.426c0.924,0.426 0.925,0.426 1.505,0.194c0.845,-0.338 2.796,-0.72 4.6,-0.901c0.867,-0.087 1.662,-0.183 1.766,-0.214c0.153,-0.045 0.172,-0.295 0.096,-1.296c-0.108,-1.432 -0.402,-2.134 -1.337,-3.188c-0.329,-0.371 -1.208,-1.442 -1.953,-2.38c-2.189,-2.754 -6.059,-7.478 -6.196,-7.563c-0.07,-0.043 -0.406,0.017 -0.748,0.133c-0.341,0.116 -0.683,0.21 -0.759,0.21c-0.181,0 -1.78,-1.597 -2.075,-2.073c-0.347,-0.559 -5.896,-7.182 -8.835,-10.545c-1.161,-1.328 -1.388,-1.525 -1.851,-1.599c-0.985,-0.157 -1.407,-0.943 -1.062,-1.98l0.219,-0.659l-0.413,-0.443c-0.54,-0.578 -0.54,-1.078 0.001,-1.694c0.39,-0.444 1.384,-1.036 1.74,-1.036c0.088,0 0.41,0.226 0.715,0.501c0.491,0.444 0.638,0.501 1.306,0.511c0.649,0.009 0.798,0.063 1.082,0.393c0.181,0.21 0.329,0.504 0.329,0.653c-0,0.149 0.264,0.559 0.587,0.912c1.009,1.1 2.817,3.247 5.477,6.5c3.352,4.099 4.026,4.876 5.099,5.875l0.895,0.834l-0.013,0.801c-0.008,0.441 -0.057,0.955 -0.109,1.142c-0.083,0.295 0.146,0.63 1.72,2.521c0.999,1.199 2.486,3.007 3.306,4.019c4.143,5.113 4.142,5.111 3.953,6.107c-0.052,0.276 -0.124,1.13 -0.159,1.898l-0.064,1.396l1.493,0c3.109,0 6.078,0.493 7.747,1.285c1.075,0.51 2.105,1.371 2.351,1.965c0.114,0.274 0.146,2.123 0.117,6.638l-0.041,6.258l-0.352,0.75c-0.457,0.968 -0.959,1.553 -1.717,1.997l-0.609,0.358l0.855,0.457c1.028,0.549 1.703,1.174 1.883,1.742c0.072,0.23 0.15,1.777 0.172,3.438c0.04,2.97 0.036,3.024 -0.266,3.347c-0.331,0.354 -0.405,0.671 -0.144,0.617c0.089,-0.019 0.186,0.073 0.214,0.203c0.038,0.171 -0.009,0.215 -0.162,0.156c-0.248,-0.095 -0.285,0.095 -0.062,0.318c0.113,0.112 0.015,0.191 -0.374,0.299c-0.29,0.08 -0.604,0.146 -0.698,0.147c-0.094,0 -0.707,0.187 -1.363,0.416c-3.065,1.068 -6.076,1.612 -9.534,1.725c-1.29,0.042 -2.314,0.13 -2.274,0.194c0.04,0.065 0.407,0.118 0.814,0.118c0.64,0 0.742,0.036 0.742,0.261c-0,0.144 -0.077,0.289 -0.171,0.322c-0.093,0.033 -1.028,0.031 -2.078,-0.004c-1.419,-0.049 -2.221,-0.008 -3.133,0.159c-2.885,0.527 -6.7,1.165 -6.983,1.167c-0.169,0.002 -0.307,-0.049 -0.307,-0.113l0,0Zm6.06,-1.745c0.564,-0.124 1.025,-0.281 1.025,-0.349c0,-0.069 -0.107,-0.095 -0.238,-0.058c-0.131,0.036 -0.775,0.142 -1.431,0.235c-0.656,0.093 -1.192,0.221 -1.192,0.283c-0,0.179 0.715,0.136 1.836,-0.111l-0,0Zm13.152,-2.281c2.723,-0.466 5.086,-1.473 5.634,-2.401c0.248,-0.419 0.288,-1.516 0.135,-3.674c-0.069,-0.962 -0.126,-1.218 -0.239,-1.066c-0.082,0.111 -0.281,0.273 -0.444,0.359c-0.162,0.087 -0.337,0.346 -0.387,0.577c-0.131,0.594 -0.402,0.631 -0.909,0.124l-0.439,-0.439l0.315,-0.256c0.173,-0.14 0.471,-0.255 0.662,-0.255c0.191,0 0.552,-0.156 0.802,-0.347c1.201,-0.916 -0.127,-2.586 -2.188,-2.752c-1.009,-0.081 -1.272,0.114 -0.642,0.476c0.465,0.267 0.697,0.684 0.697,1.253c0,1.062 -2.532,2.084 -6.112,2.469c-3.567,0.383 -8.278,-0.345 -9.44,-1.458c-0.568,-0.545 -0.544,-1.248 0.061,-1.779c0.248,-0.218 0.646,-0.477 0.886,-0.576c0.479,-0.199 0.548,-0.347 0.22,-0.473c-0.918,-0.352 -3.434,0.54 -4.065,1.44c-0.595,0.85 0.058,2.088 1.101,2.088c0.455,-0 0.521,0.04 0.511,0.308c-0.009,0.267 0.127,0.351 1.022,0.63c2.289,0.715 3.335,0.831 7.471,0.83c2.818,-0.001 3.849,0.04 3.849,0.156c-0,0.172 -1.17,0.405 -2.657,0.529c-1.374,0.114 -1.782,0.207 -1.551,0.353c0.104,0.065 0.393,0.12 0.643,0.121c0.301,0.002 0.435,0.059 0.398,0.172c-0.035,0.106 -0.377,0.186 -0.897,0.211c-0.498,0.024 -0.841,0.102 -0.841,0.191c-0,0.108 0.78,0.123 2.759,0.054c1.838,-0.064 2.714,-0.051 2.623,0.04c-0.292,0.291 -4.268,0.668 -6.302,0.596c-1.266,-0.044 -1.702,0.124 -0.749,0.29c0.964,0.168 4.19,0.239 5.528,0.122c1.138,-0.1 1.641,-0.043 1.434,0.163c-0.173,0.174 -3.732,0.479 -5.582,0.479c-1.637,0 -2.178,0.04 -2.066,0.153c0.252,0.252 1.215,0.382 3.552,0.479c2.12,0.089 2.608,0.196 2.193,0.482c-0.356,0.244 -5.479,0.036 -7.137,-0.29c-2.849,-0.56 -4.186,-1.068 -5.144,-1.954c-0.339,-0.315 -0.511,-0.404 -0.511,-0.267c0,0.114 0.222,0.416 0.493,0.672c1.207,1.138 3.461,1.829 7.683,2.356c1.438,0.179 6.172,0.064 7.63,-0.186l-0,0Zm-2.249,-0.492c-0.104,-0.167 0.271,-0.33 0.473,-0.206c0.08,0.049 0.11,0.147 0.067,0.217c-0.104,0.168 -0.434,0.162 -0.54,-0.011l-0,0Zm1.295,-0.135c-0,-0.075 0.015,-0.14 0.034,-0.145c0.019,-0.004 0.494,-0.082 1.056,-0.172l1.022,-0.164l-0.036,-1.326c-0.028,-1.047 0.003,-1.327 0.15,-1.327c0.139,0 0.207,0.349 0.27,1.389c0.046,0.765 0.065,1.41 0.04,1.434c-0.043,0.044 -2.237,0.447 -2.434,0.447c-0.056,0 -0.102,-0.061 -0.102,-0.136Zm4.36,-2.861c-0,-1.692 0.034,-2.044 0.197,-2.044c0.16,-0 0.205,0.349 0.238,1.873c0.046,2.068 0.03,2.214 -0.245,2.214c-0.154,0 -0.19,-0.387 -0.19,-2.043Zm1.503,0.579c-0.003,-0.305 0.059,-0.443 0.2,-0.443c0.26,-0 0.262,0.28 0.004,0.621c-0.189,0.25 -0.2,0.241 -0.204,-0.178l0,-0Zm-4.988,-0.64c-0.093,-0.37 0.029,-0.667 0.224,-0.547c0.17,0.105 0.164,0.88 -0.006,0.88c-0.074,0 -0.172,-0.15 -0.218,-0.333l0,0Zm-3.941,-0.212c0.047,-0.075 0.142,-0.136 0.213,-0.136c0.07,-0 0.128,0.061 0.128,0.136c-0,0.075 -0.096,0.136 -0.213,0.136c-0.116,0 -0.174,-0.061 -0.128,-0.136Zm8.839,-0.579c0.045,-0.169 0.083,-0.383 0.084,-0.477c0.001,-0.093 0.063,-0.17 0.138,-0.17c0.075,-0 0.136,0.214 0.136,0.477c0,0.348 -0.059,0.477 -0.22,0.477c-0.162,-0 -0.199,-0.082 -0.138,-0.307Zm-4.324,-0.57c-0.124,-0.189 -0.378,-0.349 -0.595,-0.374c-0.562,-0.065 -0.514,-0.536 0.07,-0.687c0.821,-0.213 1.504,0.384 1.243,1.086c-0.149,0.4 -0.446,0.39 -0.718,-0.025l0,0Zm-15.653,-2.457c-0.272,-0.374 -0.295,-0.481 -0.106,-0.481c0.073,-0 0.228,0.184 0.344,0.408c0.252,0.488 0.098,0.535 -0.238,0.073l-0,-0Zm1.124,-0.533c-0,-0.199 0.375,-0.573 0.475,-0.473c0.032,0.033 0.024,0.195 -0.02,0.36c-0.085,0.327 -0.455,0.419 -0.455,0.113l-0,0Zm17.576,-0.085c0,-0.3 0.017,-0.309 0.33,-0.189c0.308,0.118 0.266,0.462 -0.057,0.462c-0.182,-0 -0.273,-0.091 -0.273,-0.273l0,0Zm1.226,-0.194c0,-0.211 -0.16,-0.458 -0.442,-0.68c-0.245,-0.193 -0.355,-0.35 -0.246,-0.35c0.314,-0.003 0.961,0.701 0.961,1.045c-0,0.174 -0.061,0.316 -0.136,0.316c-0.075,-0 -0.137,-0.149 -0.137,-0.331Zm-14.381,6.608c-0.071,-0.069 -0.667,-0.255 -1.324,-0.413c-0.657,-0.157 -1.684,-0.46 -2.282,-0.672c-0.598,-0.211 -1.088,-0.329 -1.088,-0.261c0,0.245 1.767,0.944 3.017,1.194c1.483,0.297 1.861,0.331 1.677,0.152Zm-5.343,-2.474c-0.641,-0.572 -0.882,-0.484 -0.26,0.095c0.287,0.267 0.563,0.444 0.613,0.394c0.051,-0.05 -0.109,-0.27 -0.353,-0.489Zm12.231,-6.396c4.433,-0.337 7.548,-1.585 8.041,-3.223c0.1,-0.332 0.184,-2.436 0.232,-5.808l0.075,-5.287l-0.623,0.42c-1.019,0.688 -2.119,1.111 -3.706,1.427l-1.499,0.298l-0.035,5.664l-0.036,5.664l-0.305,0.097c-0.585,0.184 -5.864,0.245 -7.094,0.081c-0.653,-0.087 -1.279,-0.192 -1.389,-0.235c-0.171,-0.066 -0.201,-0.676 -0.201,-4.082c-0,-3.469 -0.028,-4.005 -0.205,-4.005c-0.177,0 -0.204,0.53 -0.204,3.952c-0,2.173 -0.035,3.951 -0.077,3.951c-0.043,-0 -0.202,-0.067 -0.355,-0.149c-0.267,-0.143 -0.277,-0.254 -0.246,-2.691c0.054,-4.29 -0.102,-3.984 -0.354,0.694c-0.055,1.03 -0.117,1.873 -0.136,1.873c-0.42,0 -0.436,-0.152 -0.366,-3.38c0.039,-1.776 0.039,-3.197 0.001,-3.16c-0.038,0.038 -0.109,1.203 -0.158,2.589c-0.083,2.351 -0.188,3.679 -0.291,3.679c-0.025,-0 -0.202,-0.06 -0.394,-0.133l-0.349,-0.133l-0.001,-2.49c-0.001,-2.907 -0.128,-5.147 -0.292,-5.147c-0.064,0 -0.116,1.621 -0.116,3.603c0,2.164 -0.052,3.635 -0.131,3.684c-0.072,0.044 -0.247,-0.034 -0.387,-0.175c-0.236,-0.235 -0.264,-0.606 -0.354,-4.589c-0.053,-2.383 -0.048,-4.381 0.013,-4.438c0.06,-0.058 0.263,-0.128 0.45,-0.155c0.334,-0.049 0.332,-0.054 -0.118,-0.296c-0.326,-0.175 -0.416,-0.288 -0.312,-0.392c0.104,-0.104 0.201,-0.101 0.335,0.011c0.104,0.086 0.229,0.116 0.278,0.066c0.126,-0.125 0.113,-0.998 -0.015,-0.998c-0.057,0 -0.428,-0.282 -0.823,-0.628l-0.719,-0.629l0.04,5.714l0.04,5.715l0.341,0.497c0.924,1.349 4.606,2.408 9.265,2.665c0.187,0.01 1.168,-0.044 2.18,-0.121l-0,-0Zm7.244,-4.16c0.031,-0.823 0.1,-1.214 0.221,-1.254c0.136,-0.046 0.167,0.208 0.136,1.136c-0.028,0.844 -0.092,1.212 -0.22,1.254c-0.144,0.048 -0.172,-0.188 -0.137,-1.136Zm-4.025,0.785c-0.037,-0.06 -0.017,-0.19 0.044,-0.29c0.146,-0.235 0.427,-0.063 0.327,0.199c-0.084,0.218 -0.265,0.263 -0.371,0.091l-0,0Zm-0.064,-3.428c-0.045,-2.128 0.027,-3.003 0.245,-3.003c0.134,-0 0.263,4.295 0.144,4.76c-0.218,0.852 -0.345,0.278 -0.389,-1.757Zm4.177,0.165c-0.07,-0.608 0.041,-1.67 0.175,-1.67c0.067,0 0.123,0.46 0.123,1.022c-0,0.979 -0.208,1.43 -0.298,0.648Zm0.025,-3.577c0,-0.727 0.056,-1.226 0.136,-1.226c0.081,-0 0.137,0.499 0.137,1.226c-0,0.727 -0.056,1.226 -0.137,1.226c-0.08,0 -0.136,-0.499 -0.136,-1.226Zm-4.087,0.019c-0,-0.073 -0.038,-0.23 -0.083,-0.349c-0.054,-0.141 -0.007,-0.215 0.136,-0.215c0.241,-0 0.305,0.476 0.083,0.613c-0.075,0.046 -0.136,0.024 -0.136,-0.049l-0,0Zm-0.068,-1.245c-0.1,-0.161 0.029,-0.409 0.212,-0.409c0.07,-0 0.128,0.123 0.128,0.272c0,0.288 -0.198,0.367 -0.34,0.137Zm4.18,-1.261c0.024,-0.168 0.105,-0.306 0.18,-0.306c0.075,-0 0.155,0.138 0.179,0.306c0.03,0.211 -0.026,0.307 -0.179,0.307c-0.154,-0 -0.21,-0.096 -0.18,-0.307Zm-18.319,-0.047c-0.132,-0.133 0.05,-0.464 0.255,-0.464c0.105,0 0.19,0.123 0.19,0.273c0,0.256 -0.265,0.37 -0.445,0.191Zm13.657,-0.055c2.658,-0.526 4.016,-1.06 4.961,-1.951c0.407,-0.383 0.494,-0.561 0.494,-1.007c-0,-0.343 -0.088,-0.621 -0.239,-0.758c-0.223,-0.202 -0.238,-0.179 -0.238,0.379c-0,0.783 -0.497,1.318 -1.771,1.91c-1.889,0.876 -4.572,1.232 -8.38,1.109c-1.386,-0.044 -2.919,-0.147 -3.406,-0.229c-2.572,-0.431 -4.465,-1.135 -5.05,-1.879c-0.33,-0.42 -0.342,-1.14 -0.023,-1.428c0.311,-0.282 1.39,-0.771 1.709,-0.775c0.369,-0.005 0.156,0.223 -0.293,0.312c-0.463,0.093 -1.248,0.716 -1.248,0.991c-0,0.27 0.096,0.246 0.805,-0.201c0.344,-0.216 0.84,-0.459 1.102,-0.539c0.733,-0.225 2.79,-0.541 4.19,-0.645l1.26,-0.093l0,-0.663c0,-0.634 -0.017,-0.664 -0.374,-0.664c-1.67,0.002 -5.406,0.778 -6.574,1.367c-1.009,0.507 -1.394,0.942 -1.411,1.589c-0.019,0.776 0.437,1.281 1.752,1.941c1.243,0.625 3.853,1.252 6.224,1.495c1.855,0.191 4.831,0.071 6.51,-0.261l0,0Zm-10.623,-4.821c0,-0.029 0.123,-0.084 0.273,-0.123c0.149,-0.04 0.272,-0.016 0.272,0.052c0,0.068 -0.123,0.123 -0.272,0.123c-0.15,0 -0.273,-0.023 -0.273,-0.052Zm-5.069,1.228l-0.313,-0.255l-0.041,0.69c-0.03,0.515 0.038,0.838 0.273,1.277l0.313,0.587l0.041,-1.022c0.037,-0.928 0.012,-1.046 -0.273,-1.277l0,0Zm5.137,1.292c0.45,-0.139 1.461,-0.326 2.248,-0.416c2.082,-0.236 2.317,-0.279 2.317,-0.423c-0,-0.285 -2.684,-0.095 -4.224,0.301c-0.624,0.16 -1.635,0.611 -1.635,0.73c-0,0.13 0.493,0.057 1.294,-0.192Zm-6.433,-1.096c0.048,-0.547 0.03,-0.803 -0.047,-0.681c-0.114,0.18 -0.19,1.742 -0.078,1.614c0.027,-0.031 0.083,-0.451 0.125,-0.933l0,0Zm6.433,0.113c0.6,-0.136 1.703,-0.314 2.453,-0.396c1.756,-0.19 1.975,-0.24 1.975,-0.45c0,-0.135 -0.274,-0.149 -1.26,-0.064c-2.907,0.251 -5.28,0.886 -5.28,1.413c0,0.166 0.08,0.161 0.511,-0.029c0.281,-0.124 1.002,-0.337 1.601,-0.474l0,0Zm6.449,0.168c0.123,-0.078 -0.001,-0.145 -0.383,-0.206c-0.617,-0.098 -0.97,0.01 -0.664,0.203c0.236,0.15 0.812,0.151 1.047,0.003l0,-0Zm3.836,-0.829c-0.201,-0.107 -1.162,-0.202 -3.711,-0.366c-1.163,-0.075 -1.328,-0.059 -1.328,0.133c-0,0.185 0.233,0.224 1.533,0.257c3.334,0.083 3.701,0.081 3.506,-0.024l0,0Zm2.863,-0.347c-0.187,-0.107 -0.401,-0.194 -0.476,-0.194c-0.075,-0 0.017,0.087 0.204,0.194c0.187,0.107 0.402,0.195 0.477,0.195c0.075,-0 -0.017,-0.088 -0.205,-0.195Zm-17.14,-0.479l0.361,-0.411l-0.501,-0.211c-0.775,-0.326 -1.157,-0.364 -1.454,-0.145c-0.15,0.111 -0.242,0.229 -0.204,0.262c0.234,0.207 1.281,0.916 1.352,0.916c0.047,0 0.248,-0.185 0.446,-0.411Zm12.467,-0.32c0.048,-0.048 -0.031,-0.095 -0.175,-0.105c-0.143,-0.01 -0.476,-0.035 -0.738,-0.055c-0.262,-0.02 -0.814,-0.045 -1.226,-0.054c-0.59,-0.013 -0.698,-0.047 -0.506,-0.159c0.564,-0.328 5.071,-0.141 6.997,0.291c0.347,0.078 0.662,0.109 0.701,0.07c0.121,-0.121 -0.806,-0.448 -1.926,-0.679c-1.314,-0.271 -6.073,-0.551 -6.256,-0.367c-0.072,0.071 -0.086,0.38 -0.032,0.698l0.096,0.57l1.49,-0.062c0.819,-0.035 1.528,-0.101 1.575,-0.148l0,-0Zm-3.74,-5.737c-0.066,-0.347 -0.679,-1.108 -0.797,-0.99c-0.076,0.076 0.653,1.316 0.778,1.323c0.046,0.002 0.054,-0.148 0.019,-0.333Zm-1.669,-2.11c-0,-0.128 -2.05,-2.888 -2.636,-3.548c-0.166,-0.188 -1.2,-1.445 -2.298,-2.793c-2.756,-3.385 -2.757,-3.387 -2.964,-3.317c-0.185,0.061 1.959,2.805 5.508,7.051c0.902,1.08 1.783,2.137 1.957,2.35c0.335,0.411 0.433,0.469 0.433,0.257Zm-9.05,-9.336c0.117,-0.464 1.07,-1.297 1.484,-1.297c0.243,-0 0.314,-0.057 0.258,-0.205c-0.129,-0.333 -0.688,-0.233 -1.198,0.214c-0.57,0.5 -1.085,1.294 -0.965,1.487c0.148,0.239 0.333,0.152 0.421,-0.199Zm0.612,-2.12c0.288,-0.147 0.622,-0.267 0.742,-0.267c0.12,-0 0.18,-0.062 0.134,-0.137c-0.046,-0.075 -0.286,-0.136 -0.533,-0.136c-0.799,0 -2.124,1.178 -2.124,1.89c-0,0.328 0.045,0.302 0.628,-0.364c0.345,-0.395 0.864,-0.838 1.153,-0.986Zm-14.036,-12.515c0.445,-0.791 2.096,-2.059 2.681,-2.059c0.248,0 0.213,-0.228 -0.051,-0.329c-0.335,-0.129 -0.721,0.03 -1.519,0.626c-0.839,0.626 -1.527,1.515 -1.527,1.972c-0,0.44 0.071,0.404 0.416,-0.21l0,-0Zm0.599,-2.391c0.395,-0.329 0.397,-0.34 0.149,-0.615c-0.332,-0.367 -0.566,-0.352 -1.12,0.071l-0.459,0.349l0.31,0.382c0.335,0.415 0.414,0.402 1.12,-0.187l-0,0Zm5.305,66.354c-0.048,-0.123 -0.053,-0.257 -0.012,-0.298c0.102,-0.103 1.051,-0.316 1.424,-0.32c0.542,-0.006 0.336,0.366 -0.289,0.523c-0.328,0.083 -0.695,0.188 -0.817,0.235c-0.136,0.053 -0.253,-0.001 -0.306,-0.14l-0,0Zm76.997,-0.076c-0.15,-0.243 0.074,-0.409 0.553,-0.409c0.378,0 0.469,0.053 0.469,0.273c0,0.219 -0.091,0.272 -0.469,0.272c-0.257,0 -0.506,-0.061 -0.553,-0.136Zm2.385,-0.554c-0,-0.235 0.072,-0.274 0.442,-0.238c0.29,0.028 0.457,0.124 0.486,0.281c0.037,0.191 -0.051,0.239 -0.441,0.239c-0.401,-0 -0.487,-0.05 -0.487,-0.282Zm-12.092,-0.217c-0.094,-0.038 -0.171,-0.217 -0.171,-0.398c0,-0.256 0.072,-0.33 0.324,-0.33c0.385,0 0.692,0.323 0.581,0.612c-0.077,0.202 -0.396,0.252 -0.734,0.116Zm17.905,-0.137c-0.254,-0.254 0.043,-0.318 1.476,-0.318c0.862,-0 1.567,0.052 1.567,0.117c0,0.215 -2.841,0.402 -3.043,0.201Zm3.556,-0.142c0.169,-0.033 0.414,-0.031 0.545,0.003c0.13,0.034 -0.009,0.061 -0.308,0.059c-0.3,-0.001 -0.407,-0.029 -0.237,-0.062l-0,-0Zm-4.915,-0.99c-1.231,-0.225 -1.653,-0.769 -1.283,-1.653c0.461,-1.101 1.546,-1.851 2.873,-1.988c1.242,-0.129 2.276,0.405 2.808,1.449c0.224,0.438 0.363,0.533 1.084,0.733c0.639,0.178 0.828,0.289 0.828,0.487c-0,0.316 -0.141,0.372 -1.772,0.711c-1.501,0.312 -3.596,0.432 -4.538,0.261Zm1.66,-1.425c0.208,-0.108 0.465,-0.301 0.572,-0.43c0.107,-0.129 0.368,-0.307 0.581,-0.397c0.359,-0.151 0.37,-0.178 0.16,-0.388c-0.231,-0.231 -0.598,-0.29 -1.425,-0.231c-0.659,0.047 -0.993,0.195 -1.559,0.692c-0.689,0.605 -0.641,0.788 0.223,0.849c0.394,0.027 0.795,0.061 0.893,0.075c0.097,0.014 0.347,-0.063 0.555,-0.17Zm-0.8,-0.482c-0,-0.22 0.514,-0.437 0.622,-0.262c0.099,0.16 -0.164,0.388 -0.452,0.392c-0.094,0.001 -0.17,-0.057 -0.17,-0.13Zm-14.579,1.699c-0,-0.173 0.333,-0.205 2.18,-0.205c1.847,0 2.18,0.032 2.18,0.205c-0,0.173 -0.333,0.204 -2.18,0.204c-1.847,0 -2.18,-0.031 -2.18,-0.204Zm5.404,0.113c-0.05,-0.05 -0.09,-0.142 -0.09,-0.204c-0,-0.15 2.415,-0.147 2.508,0.004c0.114,0.183 -2.24,0.379 -2.418,0.201l0,-0.001Zm-78.571,-0.499c-0,-0.229 0.285,-0.364 0.77,-0.364c0.25,0 0.328,0.064 0.294,0.239c-0.059,0.312 -1.064,0.43 -1.064,0.125Zm70.033,-1.185c-0,-0.264 0.122,-0.269 6.744,-0.269c4.192,0 6.745,0.05 6.745,0.131c-0,0.229 -0.763,0.264 -7.187,0.336c-6.205,0.07 -6.302,0.067 -6.302,-0.198Zm-68.183,-0.176c-0.23,-0.168 -0.231,-0.194 -0.016,-0.408c0.126,-0.126 0.316,-0.23 0.422,-0.23c0.106,0 0.278,-0.199 0.383,-0.442c0.26,-0.606 0.701,-1.04 1.366,-1.341c0.68,-0.309 1.064,-0.323 1.576,-0.059c0.946,0.49 1.283,1.624 0.613,2.063c-0.819,0.536 -3.791,0.822 -4.344,0.417l-0,0Zm3.872,-1.382c0,-0.277 -0.485,-0.509 -0.926,-0.444l-0.368,0.054l0.443,0.188c0.243,0.104 0.442,0.237 0.442,0.295c0,0.059 0.092,0.106 0.205,0.106c0.112,0 0.204,-0.089 0.204,-0.199Zm61.995,0.653c-0.338,-0.025 -0.828,-0.086 -1.09,-0.135l-0.477,-0.089l0.681,-0.157c0.941,-0.216 2.004,-0.118 1.947,0.179c-0.047,0.246 -0.168,0.269 -1.061,0.202Zm1.635,-0.166c-0,-0.158 0.125,-0.29 0.324,-0.339c0.439,-0.111 13.282,-0.107 14.372,0.004c0.531,0.054 0.792,0.129 0.675,0.195c-0.224,0.126 -8.937,0.397 -12.748,0.397c-2.482,0 -2.623,-0.014 -2.623,-0.257l-0,-0Zm-72.214,-0.21c0,-0.265 0.3,-0.342 1.864,-0.478c1.294,-0.113 1.762,-0.032 1.468,0.254c-0.147,0.143 -1.989,0.419 -2.797,0.419c-0.373,-0 -0.535,-0.059 -0.535,-0.195Zm37.606,-0.009c-0,-0.113 0.092,-0.205 0.204,-0.205c0.113,0 0.205,0.092 0.205,0.205c-0,0.112 -0.092,0.204 -0.205,0.204c-0.112,-0 -0.204,-0.092 -0.204,-0.204Zm0.881,-0.219c-0.101,-0.319 0.105,-0.611 0.333,-0.47c0.082,0.05 0.148,0.241 0.148,0.424c0,0.412 -0.354,0.446 -0.481,0.047l0,-0.001Zm22.554,-0.126c0,-0.189 0.173,-0.233 1.329,-0.334c0.806,-0.071 0.987,-0.051 0.987,0.107c0,0.12 -0.198,0.228 -0.511,0.28c-0.797,0.131 -1.805,0.102 -1.805,-0.053l0,-0Zm2.498,-0.169c-0,-0.225 1.347,-0.434 3.701,-0.572c0.675,-0.04 2.116,-0.132 3.202,-0.204c1.087,-0.072 2.78,-0.139 3.762,-0.15c0.982,-0.01 1.871,-0.073 1.975,-0.139c0.436,-0.276 -8.162,-0.056 -11.187,0.286c-0.637,0.072 -2.461,0.169 -4.053,0.216c-2.609,0.077 -2.895,0.064 -2.895,-0.134c-0,-0.184 0.182,-0.221 1.124,-0.226c1.612,-0.008 5.112,-0.343 4.978,-0.477c-0.097,-0.097 -0.911,-0.177 -1.913,-0.187c-0.807,-0.009 -1.056,-0.056 -1.056,-0.202c0,-0.149 0.422,-0.211 1.971,-0.288c1.084,-0.054 2.249,-0.057 2.589,-0.006c0.373,0.056 0.618,0.04 0.618,-0.04c-0,-0.229 -2.159,-0.321 -4.565,-0.194c-1.274,0.067 -2.392,0.096 -2.485,0.065c-0.371,-0.123 0.02,-0.301 0.688,-0.314c0.389,-0.007 0.861,-0.062 1.048,-0.122c0.189,-0.06 -0.236,-0.076 -0.956,-0.036c-1.114,0.062 -1.323,0.04 -1.49,-0.161c-0.167,-0.201 -0.167,-0.25 0.002,-0.357c0.108,-0.068 0.338,-0.124 0.511,-0.126c0.503,-0.003 0.215,-0.241 -0.418,-0.346c-0.639,-0.105 -0.919,-0.275 -0.919,-0.555c0,-0.334 0.7,-0.372 2.373,-0.129c2.216,0.321 5.786,0.425 7.577,0.22c2.144,-0.245 5.089,-1.026 6.725,-1.783c0.777,-0.359 2.424,-1.476 2.601,-1.763c0.067,-0.109 -0.203,-4.152 -0.464,-6.954c-0.074,-0.787 -0.202,-2.381 -0.285,-3.543c-0.274,-3.833 -0.677,-8.646 -0.757,-9.027c-0.043,-0.206 -0.12,-0.373 -0.17,-0.372c-0.564,0.015 -3.815,0.944 -5.497,1.572c-0.431,0.16 -0.641,0.157 -1.499,-0.025c-1.361,-0.289 -5.538,-0.191 -6.68,0.156l-0.777,0.236l-1.539,-0.488c-0.847,-0.269 -2.107,-0.644 -2.8,-0.833c-0.693,-0.189 -1.504,-0.498 -1.803,-0.687c-0.298,-0.188 -0.569,-0.342 -0.603,-0.342c-0.065,-0 -0.094,0.237 -0.424,3.474c-0.419,4.1 -0.59,5.109 -1.014,5.986l-0.399,0.827l-0.008,-0.501c-0.003,-0.276 0.148,-1.87 0.337,-3.543c0.189,-1.673 0.405,-3.685 0.481,-4.472c0.222,-2.305 0.366,-3.01 0.682,-3.347c0.193,-0.205 0.261,-0.401 0.203,-0.583c-0.048,-0.152 -0.141,-1.061 -0.207,-2.022c-0.07,-1.036 -0.201,-1.912 -0.321,-2.155c-0.186,-0.377 -0.55,-2.389 -0.911,-5.041c-0.082,-0.6 -0.227,-1.65 -0.322,-2.334l-0.172,-1.245l-2.035,-2.754c-2.956,-4.003 -3.95,-4.964 -5.823,-5.631c-0.958,-0.341 -1.13,-0.663 -0.611,-1.142c0.339,-0.313 2.441,-1.395 3.289,-1.694c0.298,-0.104 0.602,-0.332 0.704,-0.527c0.109,-0.206 0.442,-0.445 0.839,-0.601c0.362,-0.142 1.241,-0.52 1.953,-0.839c3.873,-1.736 5.811,-2.483 6.676,-2.571c0.487,-0.05 1.315,-0.148 1.839,-0.218c0.525,-0.07 1.491,-0.196 2.146,-0.28c0.719,-0.092 1.192,-0.215 1.191,-0.309c-0.001,-0.086 -0.153,-0.892 -0.338,-1.792c-0.185,-0.899 -0.337,-1.776 -0.339,-1.949c-0.008,-0.932 4.007,-1.393 5.758,-0.66c0.821,0.342 0.848,0.464 0.461,2.027c-0.19,0.77 -0.386,1.624 -0.435,1.897c-0.104,0.578 -0.421,0.463 2.797,1.015c1.469,0.252 2.93,0.626 4.802,1.23l2.691,0.868l2.394,0c1.435,0 2.502,0.059 2.665,0.146c0.171,0.091 1.441,0.143 3.432,0.139c2.375,-0.005 3.239,0.038 3.48,0.173c0.498,0.28 3.563,3.619 3.558,3.877c-0.016,0.894 0.164,7.729 0.289,10.943c0.112,2.882 0.112,3.975 -0.001,4.186c-0.121,0.225 -2.878,2.482 -5.404,4.423c-0.393,0.301 -0.569,0.313 -1.692,0.106c-1.583,-0.291 -1.514,-0.209 -2.114,-2.507l-0.385,-1.472l0.358,-0.358c0.344,-0.344 0.383,-0.351 1.055,-0.196c0.384,0.088 0.779,0.161 0.878,0.161c0.188,-0 2.134,-1.525 2.566,-2.011c0.239,-0.268 0.238,-0.375 -0.034,-3.119c-0.795,-8.041 -0.682,-7.289 -1.163,-7.746c-0.237,-0.225 -0.733,-0.561 -1.103,-0.748c-0.579,-0.292 -0.83,-0.335 -1.829,-0.309c-1.031,0.027 -1.181,0.064 -1.363,0.336c-0.112,0.168 -0.392,0.552 -0.621,0.854l-0.416,0.548l-3.921,0l-0.1,0.477c-0.055,0.262 -0.261,1.918 -0.456,3.679c-0.874,7.856 -1.2,10.084 -1.565,10.696c-0.19,0.318 -0.262,0.83 -0.325,2.308c-0.074,1.748 -0.058,1.934 0.195,2.345c0.24,0.388 0.344,1.238 0.811,6.616c0.295,3.394 0.628,7.091 0.74,8.215c0.113,1.124 0.293,3.086 0.401,4.36c0.233,2.746 0.309,3.005 0.923,3.138c0.248,0.054 0.486,0.153 0.529,0.221c0.043,0.067 0.465,0.201 0.937,0.298c0.542,0.11 0.93,0.272 1.051,0.439c0.175,0.238 0.402,0.268 2.368,0.307c1.775,0.036 2.174,0.079 2.174,0.239c0,0.107 -0.046,0.199 -0.102,0.204c-0.056,0.005 -0.807,0.034 -1.669,0.065c-0.862,0.031 -2.15,0.102 -2.862,0.158l-1.294,0.1l1.363,0.085c0.749,0.046 2.371,0.096 3.604,0.111c1.234,0.015 2.271,0.056 2.305,0.09c0.165,0.165 -0.26,0.228 -2.343,0.346c-2.731,0.155 -3.506,0.224 -3.605,0.323c-0.067,0.067 5.185,0.14 5.918,0.082c0.338,-0.026 0.484,0.136 0.337,0.375c-0.066,0.106 -0.89,0.218 -2.342,0.318c-1.231,0.084 -2.268,0.179 -2.304,0.211c-0.196,0.177 0.5,0.314 1.7,0.334c0.749,0.013 1.423,0.037 1.498,0.055c0.075,0.017 0.305,0.038 0.511,0.047c0.219,0.009 0.375,0.093 0.375,0.202c0,0.133 -0.286,0.214 -0.988,0.279c-1.745,0.161 -2.282,0.248 -2.282,0.37c0,0.065 1.717,0.118 3.815,0.118c3.3,0 3.815,0.028 3.815,0.205c0,0.139 -0.14,0.204 -0.443,0.205c-1.233,0.002 -7.309,0.424 -7.664,0.532c-0.36,0.11 -0.312,0.128 0.409,0.15c0.45,0.014 0.94,0.038 1.09,0.055c0.15,0.016 1.33,0.041 2.623,0.054c1.942,0.021 2.35,0.06 2.35,0.222c0,0.251 -0.397,0.296 -4.224,0.478c-3.288,0.157 -7.31,0.248 -15.328,0.346c-2.773,0.033 -5.414,0.101 -5.87,0.15c-0.69,0.075 -0.829,0.055 -0.829,-0.117l-0,-0Zm9.326,-2.073c0.137,-0.119 -3.095,-0.205 -4.296,-0.114l-1.465,0.112l1.703,0.079c1.474,0.068 3.944,0.022 4.058,-0.077Zm-2.211,-24.87c1.188,-0.304 1.671,-0.58 0.696,-0.397c-0.676,0.126 -1.998,0.536 -1.998,0.619c0,0.093 0.21,0.057 1.302,-0.222Zm-12.498,-0.476c-0.087,-0.087 -2.641,-0.961 -3.157,-1.08c-0.56,-0.129 -0.402,0.215 0.194,0.424c0.931,0.325 3.117,0.81 2.963,0.656Zm10.999,-0.613c2.822,-0.595 5.258,-1.606 5.602,-2.324c0.167,-0.35 0.312,-3.126 0.163,-3.125c-0.048,-0 -0.613,0.28 -1.256,0.622c-1.065,0.566 -1.155,0.645 -1.006,0.882c0.122,0.196 0.125,0.362 0.011,0.663c-0.124,0.329 -0.117,0.388 0.037,0.329c0.239,-0.092 0.24,0.118 0.003,0.676c-0.274,0.649 -0.59,0.865 -1.722,1.181c-3.429,0.957 -8.291,0.936 -11.986,-0.053c-2.065,-0.553 -2.729,-1.082 -2.729,-2.176c0,-0.185 -0.065,-0.377 -0.144,-0.426c-0.08,-0.049 -0.108,-0.256 -0.062,-0.463c0.075,-0.344 0.018,-0.407 -0.734,-0.808l-0.816,-0.435l0.067,0.992c0.132,1.96 0.174,2.123 0.642,2.48c0.891,0.68 2.605,1.298 4.971,1.792c3.116,0.651 6.446,0.723 8.958,0.193l0.001,0Zm-13.564,-0.745c-0,-0.036 -0.178,-0.157 -0.395,-0.269c-0.338,-0.175 -0.407,-0.177 -0.47,-0.012c-0.072,0.188 0.134,0.297 0.627,0.33c0.131,0.008 0.238,-0.014 0.238,-0.049l-0,-0Zm11.99,-3.198c1.09,-0.117 2.589,-0.554 5.207,-1.518c1.497,-0.551 2.145,-0.908 2.273,-1.254c0.152,-0.408 0.294,-4.845 0.147,-4.583c-0.063,0.114 -0.186,0.879 -0.273,1.699c-0.169,1.597 -0.304,2.106 -0.559,2.106c-0.121,0 -0.137,-0.694 -0.065,-2.805c0.067,-1.944 0.052,-2.778 -0.047,-2.717c-0.079,0.048 -0.143,0.352 -0.143,0.675c0,0.322 -0.055,0.886 -0.122,1.252c-0.067,0.366 -0.164,1.263 -0.217,1.994c-0.052,0.731 -0.151,1.329 -0.219,1.329c-0.067,-0 -0.125,-0.813 -0.127,-1.806c-0.005,-2.13 -0.15,-2.077 -0.479,0.177c-0.24,1.643 -0.273,1.765 -0.48,1.765c-0.08,-0 -0.103,-0.98 -0.06,-2.555c0.079,-2.917 -0.089,-2.879 -0.35,0.079c-0.17,1.919 -0.29,2.476 -0.531,2.476c-0.089,-0 -0.14,-0.742 -0.14,-2.052c0,-2.218 -0.18,-2.636 -0.314,-0.731c-0.051,0.719 -0.168,1.307 -0.299,1.508c-0.119,0.181 -0.173,0.398 -0.121,0.482c0.052,0.085 0.037,0.118 -0.034,0.074c-0.076,-0.047 -0.127,0.261 -0.123,0.751c0.004,0.595 -0.049,0.849 -0.186,0.894c-0.198,0.066 -0.184,-2.023 0.075,-10.993c0.078,-2.711 0.063,-3.178 -0.1,-3.124c-0.308,0.101 -0.382,1.093 -0.657,8.738c-0.142,3.958 -0.287,7.226 -0.323,7.262c-0.467,0.467 -7.607,0.354 -8.089,-0.127c-0.071,-0.071 -0.192,-2.035 -0.521,-8.45c-0.335,-6.546 -0.419,-7.449 -0.695,-7.449c-0.146,0 -0.194,0.195 -0.193,0.784c0.001,0.844 0.327,7.219 0.545,10.661c0.148,2.328 0.175,4.275 0.062,4.388c-0.252,0.252 -4.562,-1.087 -5.358,-1.665l-0.518,-0.375l-0.227,-1.684c-0.863,-6.392 -1.863,-14.172 -1.863,-14.498c0,-0.324 0.342,-0.256 3.913,0.778l2.968,0.86l5.377,0.042c3.097,0.025 5.495,-0.01 5.654,-0.083c0.153,-0.069 1.81,-0.578 3.683,-1.131c2.561,-0.757 3.415,-1.062 3.448,-1.234c0.053,-0.278 0.323,-0.339 -3.924,0.888l-3.338,0.965l-5.041,0.073c-2.776,0.04 -5.256,0.019 -5.518,-0.048c-0.263,-0.067 -2.068,-0.538 -4.013,-1.047c-1.945,-0.509 -3.585,-0.896 -3.645,-0.859c-0.06,0.038 -0.078,0.386 -0.04,0.775c0.376,3.815 1.159,10.008 1.787,14.128c0.398,2.618 0.424,2.663 1.933,3.357c1.3,0.598 2.947,1.053 5.136,1.419c2.922,0.487 4.895,0.607 6.744,0.409l0,-0Zm2.453,-1.574c-0,-0.188 0.061,-0.341 0.136,-0.341c0.075,0 0.136,0.153 0.136,0.341c0,0.187 -0.061,0.34 -0.136,0.34c-0.075,0 -0.136,-0.153 -0.136,-0.34Zm2.336,-0.47c0.059,-0.176 0.246,-0.208 0.263,-0.045c0.006,0.055 -0.064,0.124 -0.154,0.154c-0.09,0.03 -0.139,-0.02 -0.109,-0.109Zm0.88,-0.632c-0.117,-0.304 -0.107,-0.329 0.122,-0.329c0.112,0 0.204,0.088 0.204,0.196c0,0.289 -0.23,0.382 -0.326,0.133Zm1.007,-0.099c0,-0.11 0.097,-0.238 0.215,-0.283c0.149,-0.057 0.201,-0.014 0.17,0.144c-0.056,0.289 -0.385,0.408 -0.385,0.139Zm12.023,0.068c-0.382,-0.721 -0.67,-0.95 -0.503,-0.4c0.105,0.343 0.742,1.239 0.823,1.157c0.029,-0.029 -0.115,-0.369 -0.32,-0.757Zm2.117,-2.784c1.01,-0.768 1.867,-1.475 1.904,-1.573c0.17,-0.442 -0.198,-0.249 -1.671,0.875c-2.444,1.867 -2.214,1.768 -3.406,1.468c-0.285,-0.071 -0.36,-0.049 -0.312,0.095c0.063,0.187 0.899,0.501 1.39,0.521c0.142,0.005 1.085,-0.618 2.095,-1.386Zm-36.973,-8.19c-0.047,-0.123 -0.143,-0.224 -0.212,-0.224c-0.07,-0 -0.059,0.128 0.025,0.284c0.174,0.324 0.317,0.278 0.187,-0.06l-0,-0Zm-1.007,-1.603c-0.232,-0.32 -0.389,-0.666 -0.349,-0.77c0.04,-0.103 -0.265,-0.619 -0.677,-1.145c-0.77,-0.985 -0.901,-1.252 -0.544,-1.115c0.112,0.043 0.204,0.126 0.204,0.184c-0,0.058 0.153,0.206 0.341,0.329c0.187,0.123 0.34,0.171 0.34,0.107c0,-0.293 -0.874,-1.391 -1.234,-1.55c-0.544,-0.241 -0.434,-0.438 0.291,-0.52c0.406,-0.046 0.543,-0.107 0.42,-0.186c-0.101,-0.065 -0.956,-0.073 -1.902,-0.019l-1.718,0.099l0.402,0.289c0.856,0.612 1.885,1.694 3.296,3.465c0.888,1.115 1.484,1.757 1.509,1.627c0.023,-0.117 -0.147,-0.475 -0.379,-0.795l0,-0Zm32.566,-5.071c0.837,-1.591 0.847,-1.623 0.762,-2.437l-0.086,-0.825l0.715,0.086c0.394,0.047 1.629,0.086 2.745,0.087l2.029,0.001l1.377,1.335c1.617,1.568 1.854,1.763 1.854,1.533c-0,-0.09 -0.687,-0.866 -1.526,-1.725l-1.525,-1.561l-2.779,0.015c-1.528,0.009 -2.814,-0.02 -2.857,-0.063c-0.136,-0.136 -0.714,-0.086 -0.714,0.062c-0,0.077 0.092,0.361 0.204,0.63c0.112,0.269 0.204,0.58 0.204,0.691c0,0.219 -0.534,1.406 -1.372,3.049c-0.52,1.02 -0.57,1.452 -0.113,0.977c0.129,-0.133 0.615,-0.968 1.082,-1.855l-0,0Zm7.08,1.477c-0.097,-0.116 -0.206,-0.181 -0.244,-0.143c-0.037,0.037 0.011,0.163 0.107,0.279c0.097,0.116 0.206,0.18 0.244,0.143c0.037,-0.038 -0.011,-0.163 -0.107,-0.279Zm-21.063,-0.02l0.639,-0.087l-0.324,-0.356c-0.179,-0.195 -0.563,-0.692 -0.855,-1.104c-0.773,-1.091 -2.418,-3.139 -2.475,-3.082c-0.027,0.026 0.081,0.395 0.239,0.818c0.159,0.423 0.261,0.845 0.227,0.938c-0.06,0.167 -0.163,-0.021 -0.561,-1.025c-0.319,-0.806 -0.508,-0.639 -0.461,0.409c0.054,1.233 -0.193,1.308 -0.367,0.113c-0.17,-1.167 -0.418,-1.315 -0.54,-0.324c-0.138,1.122 -0.222,1.472 -0.354,1.472c-0.067,-0 -0.084,-0.475 -0.038,-1.071c0.05,-0.655 0.03,-1.103 -0.053,-1.154c-0.155,-0.096 -0.82,1.04 -1.137,1.943c-0.118,0.333 -0.286,0.63 -0.375,0.659c-0.237,0.079 -0.2,-0.147 0.156,-0.953c0.175,-0.395 0.364,-0.902 0.42,-1.125l0.101,-0.407l-0.263,0.338c-0.565,0.728 -1.913,2.687 -2.262,3.289c-0.272,0.469 -0.322,0.653 -0.192,0.705c0.257,0.103 7.725,0.107 8.475,0.004l-0,0Zm-6.981,-0.684c0.066,-0.342 0.385,-0.389 0.385,-0.057c-0,0.167 -0.088,0.284 -0.215,0.284c-0.127,-0 -0.196,-0.093 -0.17,-0.227l-0,-0Zm2.02,-0.046c-0,-0.075 0.092,-0.136 0.204,-0.136c0.112,0 0.204,0.061 0.204,0.136c0,0.075 -0.092,0.137 -0.204,0.137c-0.112,-0 -0.204,-0.062 -0.204,-0.137Zm-0.273,-0.809c0,-0.071 0.061,-0.166 0.136,-0.213c0.075,-0.046 0.137,0.012 0.137,0.129c-0,0.116 -0.062,0.212 -0.137,0.212c-0.075,0 -0.136,-0.058 -0.136,-0.128Zm-2.356,-1.153c0.921,-1.342 1.675,-2.526 1.675,-2.632c-0,-0.255 0.059,-0.276 -4.428,1.526c-2.099,0.842 -4.151,1.641 -4.561,1.776l-0.745,0.244l1.086,0.304c0.597,0.167 1.852,0.521 2.789,0.786c0.937,0.266 1.884,0.472 2.106,0.459c0.36,-0.021 0.577,-0.279 2.078,-2.463Zm-5.671,1.094c0.198,-0.178 0.942,-0.48 0.942,-0.383c-0,0.127 -0.598,0.434 -0.847,0.434c-0.084,-0 -0.127,-0.023 -0.095,-0.051l-0,-0Zm2.168,-0.41c0,-0.029 0.123,-0.085 0.273,-0.124c0.15,-0.039 0.238,-0.015 0.196,0.052c-0.073,0.119 -0.469,0.179 -0.469,0.072l0,-0Zm1.772,-0.365c-0,-0.079 0.061,-0.106 0.136,-0.06c0.075,0.046 0.136,0.111 0.136,0.144c0,0.033 -0.061,0.061 -0.136,0.061c-0.075,-0 -0.136,-0.065 -0.136,-0.145Zm-1.779,-0.324c0.229,-0.275 0.93,-0.655 1.099,-0.596c0.066,0.024 -0.197,0.219 -0.585,0.435c-0.447,0.248 -0.635,0.307 -0.514,0.161Zm13.905,2.165c1.948,-0.522 3.542,-1.036 3.542,-1.142c0,-0.16 -8.419,-3.688 -8.801,-3.688c-0.133,-0 0.374,0.82 1.184,1.918c1.038,1.407 2.567,3.259 2.69,3.259c0.05,-0 0.673,-0.156 1.385,-0.347Zm-1.845,-1.297c-0.049,-0.08 -0.057,-0.178 -0.017,-0.218c0.097,-0.097 0.363,0.075 0.363,0.235c0,0.174 -0.235,0.163 -0.346,-0.017l-0,0Zm-22.639,0.073c0.839,-0.042 1.801,-0.112 2.139,-0.156l0.613,-0.081l-0.409,-0.176c-0.225,-0.097 -0.815,-0.278 -1.312,-0.401l-0.904,-0.225l-1.018,0.424c-0.56,0.233 -1.134,0.518 -1.276,0.634c-0.243,0.196 -0.231,0.205 0.191,0.133c0.248,-0.041 1.137,-0.11 1.976,-0.152Zm33.999,-0.182c0.065,-0.458 -0.152,-0.612 -0.717,-0.506c-0.396,0.075 -0.487,0.152 -0.487,0.415c0,0.373 0.178,0.477 0.75,0.44c0.316,-0.02 0.419,-0.099 0.454,-0.349Zm-4.318,-0.255c0.37,-0.219 0.395,-0.281 0.31,-0.784c-0.171,-1.021 -0.259,-1.132 -0.97,-1.232c-0.36,-0.051 -1.328,-0.211 -2.153,-0.355c-4.121,-0.72 -6.239,-1.07 -6.447,-1.067c-0.16,0.002 8.263,3.503 8.811,3.661c0.026,0.008 0.228,-0.093 0.449,-0.223Zm-0.554,-0.524c0.007,-0.158 0.039,-0.191 0.083,-0.082c0.039,0.098 0.034,0.216 -0.011,0.261c-0.045,0.045 -0.078,-0.035 -0.072,-0.179Zm-20.38,-0.662c1.574,-0.622 3.658,-1.442 4.632,-1.824c1.951,-0.764 1.861,-0.869 -0.369,-0.426c-1.328,0.264 -5.955,0.927 -8.623,1.237c-1.307,0.151 -2.737,0.462 -3.067,0.666c-0.34,0.21 0.008,0.404 1.865,1.042c1.318,0.452 1.864,0.579 2.224,0.517c0.262,-0.045 1.764,-0.591 3.338,-1.212Zm-4.045,0.24c0.098,-0.039 0.216,-0.035 0.261,0.011c0.045,0.045 -0.035,0.077 -0.179,0.071c-0.159,-0.006 -0.191,-0.039 -0.082,-0.082l-0,-0Zm2.034,-0.192c0.093,-0.119 0.129,-0.257 0.079,-0.307c-0.049,-0.049 -0.018,-0.089 0.07,-0.089c0.233,-0 0.194,0.212 -0.08,0.426c-0.211,0.165 -0.219,0.162 -0.069,-0.03l-0,-0Zm28.372,-0.118c0.11,-0.07 0.171,-0.155 0.136,-0.188c-0.035,-0.034 -0.923,-0.103 -1.972,-0.153c-1.523,-0.074 -1.942,-0.137 -2.078,-0.313c-0.093,-0.122 -0.17,-0.264 -0.17,-0.317c0,-0.086 1.898,-0.052 3.584,0.064c0.558,0.038 0.641,0.013 0.563,-0.174c-0.05,-0.121 -0.12,-0.321 -0.156,-0.445c-0.095,-0.331 -0.446,-0.383 -2.594,-0.385c-1.924,-0.002 -1.942,0.001 -1.941,0.304c0,0.41 0.265,1.355 0.439,1.567c0.167,0.205 3.872,0.24 4.189,0.04l-0,-0Zm-5.633,-1.539c-0.045,-0.168 -0.083,-0.378 -0.084,-0.466c-0.002,-0.172 -0.557,-0.375 -2.659,-0.97c-1.224,-0.347 -1.48,-0.376 -2.521,-0.284c-0.637,0.056 -1.71,0.145 -2.384,0.197c-0.674,0.052 -1.304,0.136 -1.399,0.186c-0.096,0.05 1.376,0.355 3.27,0.677c1.893,0.322 3.872,0.664 4.397,0.759c1.435,0.261 1.476,0.258 1.38,-0.099Zm-2.402,-0.791c-0,-0.079 0.061,-0.106 0.136,-0.06c0.075,0.046 0.136,0.111 0.136,0.144c0,0.033 -0.061,0.06 -0.136,0.06c-0.075,0 -0.136,-0.065 -0.136,-0.144Zm-1.499,-0.265c-0,-0.074 0.061,-0.136 0.136,-0.136c0.075,0 0.136,0.062 0.136,0.136c0,0.075 -0.061,0.137 -0.136,0.137c-0.075,-0 -0.136,-0.062 -0.136,-0.137Zm-18.735,0.829c0.525,-0.066 1.843,-0.255 2.93,-0.42c1.086,-0.166 2.497,-0.38 3.134,-0.476c0.637,-0.096 1.092,-0.182 1.011,-0.19c-0.08,-0.008 -0.816,-0.132 -1.635,-0.275c-2.552,-0.446 -2.729,-0.456 -3.564,-0.213c-0.912,0.265 -3.508,1.301 -4.072,1.625c-0.39,0.224 -0.388,0.225 0.425,0.147c0.45,-0.044 1.247,-0.133 1.771,-0.198Zm0.341,-0.42c-0,-0.075 0.065,-0.136 0.144,-0.136c0.08,0 0.107,0.061 0.06,0.136c-0.046,0.075 -0.111,0.137 -0.144,0.137c-0.033,-0 -0.06,-0.062 -0.06,-0.137l-0,0Zm9.326,-1.328c-0.052,-0.431 -0.149,-0.876 -0.217,-0.988c-0.116,-0.195 -0.1,0.019 0.101,1.328c0.117,0.767 0.215,0.48 0.116,-0.34Zm-1.29,-0.249c-0.06,-0.269 -0.144,-0.522 -0.185,-0.564c-0.042,-0.042 -0.431,-0.01 -0.864,0.071c-0.433,0.081 -1.339,0.191 -2.014,0.244c-0.674,0.053 -1.144,0.125 -1.044,0.159c0.279,0.096 3.303,0.544 3.789,0.562c0.423,0.015 0.427,0.009 0.318,-0.472l0,-0Zm6.884,0.2c0.824,-0.084 1.59,-0.185 1.703,-0.225c0.112,-0.039 -0.409,-0.152 -1.158,-0.251c-0.75,-0.099 -1.659,-0.251 -2.021,-0.338c-0.757,-0.181 -0.851,-0.123 -0.985,0.611l-0.098,0.532l0.53,-0.088c0.291,-0.048 1.204,-0.157 2.029,-0.241Zm-2.778,-4.841c0.583,-0.34 0.565,-0.49 -0.084,-0.707c-0.675,-0.226 -3.101,-0.151 -3.644,0.111c-0.668,0.323 -0.462,0.552 0.783,0.871c0.611,0.157 2.51,-0.02 2.945,-0.275Zm-2.741,-0.322c0,-0.075 0.092,-0.136 0.205,-0.136c0.112,-0 0.204,0.061 0.204,0.136c0,0.075 -0.092,0.136 -0.204,0.136c-0.113,0 -0.205,-0.061 -0.205,-0.136Zm1.772,0c-0,-0.075 0.061,-0.136 0.136,-0.136c0.075,-0 0.136,0.061 0.136,0.136c0,0.075 -0.061,0.136 -0.136,0.136c-0.075,0 -0.136,-0.061 -0.136,-0.136Zm31.61,63.085c-0,-0.075 0.245,-0.137 0.545,-0.137c0.3,0 0.545,0.062 0.545,0.137c-0,0.075 -0.245,0.136 -0.545,0.136c-0.3,-0 -0.545,-0.061 -0.545,-0.136Zm-98.033,-1.908c-0.148,-0.24 0.071,-0.409 0.53,-0.409c0.512,0 0.64,0.084 0.536,0.354c-0.084,0.22 -0.937,0.264 -1.066,0.055l-0,0Zm93.109,-0.169c-0.569,-0.212 -0.065,-0.345 1.393,-0.367c1.189,-0.017 1.502,0.016 1.456,0.155c-0.067,0.204 -2.404,0.378 -2.849,0.212Zm-88.077,-0.664c-0.172,-0.277 0.27,-0.389 1.542,-0.391c0.973,-0.001 1.26,0.04 1.26,0.183c0,0.319 -2.614,0.513 -2.802,0.208Zm5.174,-0.135c-0.459,-0.508 -1.546,-0.952 -3.309,-1.351c-1.932,-0.438 -2.517,-0.627 -3.539,-1.145c-0.774,-0.393 -2.683,-2.12 -2.82,-2.553c-0.132,-0.416 0.29,-0.764 1.14,-0.941c1.064,-0.22 2.4,0.013 3.704,0.647c0.896,0.435 1.318,0.793 3.421,2.893c1.32,1.318 2.373,2.473 2.339,2.567c-0.095,0.268 -0.651,0.199 -0.936,-0.117Zm34.088,-1.001c-0.336,-0.709 -0.525,-1.949 -0.422,-2.774c0.148,-1.179 0.423,-1.921 1.197,-3.228c0.875,-1.476 1.172,-2.195 1.342,-3.246c0.169,-1.046 -0.049,-2.135 -0.664,-3.327c-1.019,-1.971 -1.131,-2.246 -1.289,-3.17c-0.211,-1.228 -0.048,-2.04 0.76,-3.798c0.654,-1.422 0.834,-2.336 0.652,-3.311c-0.125,-0.671 -0.004,-1.065 0.329,-1.065c0.424,0 0.686,1.519 0.469,2.717c-0.083,0.453 -0.393,1.332 -0.691,1.952c-0.643,1.34 -0.853,2.418 -0.666,3.415c0.073,0.387 0.498,1.471 0.945,2.408c0.447,0.936 0.883,2.036 0.969,2.444c0.313,1.487 -0.064,2.956 -1.317,5.126c-0.392,0.679 -0.815,1.537 -0.94,1.906c-0.273,0.804 -0.317,2.608 -0.084,3.448c0.28,1.005 -0.17,1.388 -0.59,0.503Zm-32.937,-0.722c-0.173,-0.281 -0.821,-1.052 -1.439,-1.714c-2.182,-2.334 -3.174,-4.321 -3.174,-6.356c0,-1.774 0.896,-1.82 2.65,-0.135c1.439,1.381 2.103,2.998 2.397,5.832c0.083,0.799 0.208,1.677 0.279,1.95c0.253,0.987 -0.2,1.256 -0.713,0.423Zm-1.028,-3.904c-0.211,-0.493 -0.459,-0.896 -0.553,-0.897c-0.245,-0.002 -0.225,0.074 0.341,1.282c0.62,1.327 0.802,0.997 0.212,-0.385Zm-1.668,-3.424c-0.659,-0.872 -0.894,-0.888 -0.422,-0.028c0.445,0.811 0.705,1.089 0.867,0.928c0.087,-0.087 -0.068,-0.4 -0.445,-0.9l-0,0Zm33.105,7.28c-0.675,-0.933 -1.004,-1.962 -0.997,-3.12c0.006,-1.038 0.031,-1.131 1.111,-4.087c0.333,-0.914 0.423,-1.378 0.424,-2.199c0.002,-1 -0.03,-1.106 -0.804,-2.657c-1.345,-2.693 -1.397,-3.75 -0.343,-6.93c0.588,-1.771 0.629,-1.986 0.574,-2.998c-0.072,-1.344 -0.202,-1.601 -1.673,-3.296c-1.979,-2.282 -2.543,-3.787 -2.239,-5.976c0.188,-1.348 0.49,-2.101 1.552,-3.874c0.473,-0.788 0.983,-1.68 1.135,-1.982c0.404,-0.802 0.578,-1.934 0.443,-2.873c-0.228,-1.587 -0.427,-2.064 -1.552,-3.731c-1.623,-2.404 -1.819,-4.085 -0.732,-6.268c0.321,-0.645 0.523,-0.897 0.746,-0.928c0.422,-0.06 0.4,0.265 -0.102,1.52c-0.758,1.893 -0.542,3.174 0.907,5.375c1.444,2.193 1.849,3.615 1.568,5.508c-0.158,1.066 -0.56,1.949 -1.816,3.99c-1.063,1.727 -1.273,2.413 -1.273,4.159c0,1.339 0.029,1.491 0.438,2.316c0.242,0.489 0.966,1.492 1.622,2.245c1.502,1.727 1.879,2.504 1.884,3.884c0.003,0.847 -0.094,1.312 -0.571,2.725c-1.099,3.254 -1.051,4.192 0.361,7.014c1.594,3.187 1.601,4.13 0.057,7.565c-0.477,1.06 -0.52,1.255 -0.51,2.316c0.008,0.858 0.087,1.344 0.307,1.878c0.162,0.397 0.296,0.78 0.296,0.852c-0,0.317 -0.441,0.085 -0.813,-0.428l0,-0Zm9.343,-0.333c-0.191,-0.416 -0.471,-0.932 -0.623,-1.145c-0.591,-0.831 -0.207,-1.213 0.483,-0.481c0.915,0.97 1.359,2.382 0.748,2.382c-0.186,-0 -0.363,-0.22 -0.608,-0.756Zm3.4,-0.551c-0.523,-0.951 -0.544,-1.282 -0.083,-1.282c0.558,0 1.239,1.977 0.738,2.142c-0.085,0.027 -0.38,-0.359 -0.655,-0.86Zm8.541,0.802c-0.295,-0.057 -0.306,-0.112 -0.306,-1.548c-0,-0.902 -0.054,-1.49 -0.136,-1.49c-0.083,0 -0.137,0.591 -0.137,1.499c0,1.464 -0.007,1.499 -0.306,1.497c-0.381,-0.003 -0.572,-0.129 -0.693,-0.456c-0.052,-0.14 -0.034,-2.378 0.04,-4.973c0.074,-2.596 0.168,-6.987 0.209,-9.759l0.074,-5.039l0.317,-0.165c1.05,-0.55 6.84,-0.586 7.711,-0.048c0.206,0.128 0.225,0.397 0.479,6.612c0.476,11.661 0.524,13.296 0.395,13.425c-0.25,0.25 -2.858,0.54 -4.869,0.54l-2.025,0.001l0.099,-2.044c0.089,-1.83 0.076,-2.044 -0.121,-2.044c-0.186,0 -0.225,0.216 -0.251,1.397c-0.018,0.768 -0.025,1.688 -0.016,2.044c0.009,0.356 -0.022,0.639 -0.07,0.628c-0.048,-0.01 -0.225,-0.045 -0.394,-0.077l0,-0Zm-10.506,-1.381c-0.16,-0.437 -0.655,-1.301 -1.102,-1.919c-1.161,-1.607 -1.307,-2.062 -1.276,-3.961c0.03,-1.868 0.278,-3.18 0.613,-3.243c0.432,-0.083 0.519,0.394 0.309,1.688c-0.384,2.369 -0.196,3.315 0.968,4.855c0.508,0.673 0.839,1.285 1.029,1.905c0.462,1.506 -0.019,2.106 -0.541,0.675Zm7.747,-0.014c0,-0.445 0.062,-0.847 0.137,-0.893c0.085,-0.053 0.136,0.248 0.136,0.809c-0,0.505 -0.059,0.894 -0.136,0.894c-0.076,-0 -0.137,-0.361 -0.137,-0.81Zm11.309,0.07c0,-0.463 0.053,-0.623 0.205,-0.623c0.131,0 0.211,0.146 0.224,0.409c0.012,0.225 0.027,0.485 0.034,0.577c0.008,0.093 -0.093,0.189 -0.224,0.215c-0.199,0.038 -0.239,-0.057 -0.239,-0.578l0,0Zm1.388,0.05c0.033,-0.098 0.14,-0.206 0.239,-0.238c0.102,-0.034 0.153,0.017 0.119,0.119c-0.033,0.098 -0.14,0.206 -0.239,0.238c-0.102,0.034 -0.153,-0.017 -0.119,-0.119Zm1.655,-0.688c0.048,-0.179 0.088,-0.77 0.089,-1.313c0.002,-0.59 0.059,-0.988 0.143,-0.988c0.232,0 0.108,2.484 -0.128,2.562c-0.142,0.047 -0.169,-0.019 -0.104,-0.261Zm1.02,-1.483c0.024,-0.675 0.095,-1.227 0.156,-1.227c0.141,0 0.337,2.11 0.215,2.308c-0.05,0.08 -0.163,0.145 -0.252,0.145c-0.117,0 -0.15,-0.343 -0.119,-1.226Zm14.195,1.121c-0,-0.206 3.457,-0.304 3.509,-0.1c0.021,0.085 -0.643,0.151 -1.737,0.175c-0.975,0.021 -1.772,-0.013 -1.772,-0.075Zm-18.446,-1.496c-0.05,-0.656 -0.149,-2.449 -0.219,-3.985c-0.07,-1.537 -0.165,-3.422 -0.21,-4.19c-0.069,-1.164 -0.05,-1.397 0.114,-1.397c0.282,0 0.348,0.489 0.494,3.655c0.305,6.586 0.313,7.109 0.106,7.109c-0.145,0 -0.216,-0.297 -0.285,-1.192Zm12.077,1.059c-0.722,-0.171 -0.89,-0.389 -0.815,-1.056c0.131,-1.164 1.222,-2.206 2.317,-2.214c0.828,-0.007 2.054,0.864 2.625,1.864c0.196,0.343 0.352,0.444 0.733,0.476c0.318,0.027 0.499,0.118 0.527,0.263c0.042,0.223 -0.34,0.396 -1.051,0.477c-0.181,0.021 -0.628,0.102 -0.994,0.18c-0.754,0.162 -2.678,0.168 -3.342,0.01l-0,0Zm2.496,-1.11c0.041,-0.065 -0.078,-0.119 -0.264,-0.119c-0.757,-0 -1.023,-0.384 -0.496,-0.713c0.661,-0.413 -0.067,-0.834 -0.792,-0.459c-0.588,0.304 -1.053,0.986 -0.844,1.238c0.256,0.308 2.212,0.351 2.396,0.053l-0,0Zm-13.32,1.014c0.098,-0.04 0.216,-0.035 0.261,0.01c0.045,0.046 -0.035,0.078 -0.179,0.072c-0.159,-0.007 -0.191,-0.039 -0.082,-0.082Zm4.081,-0.827c-0.064,-0.703 -0.019,-0.899 0.177,-0.777c0.163,0.1 0.167,1.424 0.005,1.424c-0.068,0 -0.149,-0.291 -0.182,-0.647l0,0Zm-23.858,0.012c-0.229,-0.23 0.026,-2.888 0.79,-8.221c0.112,-0.787 0.206,-1.477 0.207,-1.533c0.004,-0.182 0.554,-0.108 0.628,0.085c0.039,0.103 -0.055,1.191 -0.209,2.419c-0.154,1.227 -0.341,2.767 -0.416,3.423c-0.331,2.887 -0.462,3.719 -0.601,3.813c-0.187,0.126 -0.283,0.129 -0.399,0.014l0,-0Zm19.616,-0.678c-0.147,-1.077 -0.108,-1.986 0.084,-1.923c0.116,0.038 0.183,0.457 0.209,1.306c0.042,1.31 -0.144,1.701 -0.293,0.617Zm4.072,-0.764c-0.141,-0.425 -0.131,-1.738 0.014,-1.738c0.178,0 0.324,0.622 0.324,1.38c-0,0.499 -0.215,0.727 -0.338,0.358l0,-0Zm14.576,-0.108c-1.978,-0.211 -2.52,-0.487 -2.52,-1.282c-0,-1.47 1.362,-2.543 2.712,-2.139c0.833,0.25 1.375,1.087 1.375,2.125c0,0.413 0.031,0.436 0.784,0.594c1.564,0.329 1.492,0.644 -0.171,0.749c-0.599,0.038 -1.58,0.017 -2.18,-0.047l0,-0Zm-0.885,-1.56c-0,-0.112 0.213,-0.342 0.475,-0.511c0.261,-0.17 0.476,-0.344 0.477,-0.388c0,-0.045 -0.155,-0.152 -0.347,-0.239c-0.441,-0.202 -0.795,-0.029 -1.157,0.566c-0.368,0.603 -0.336,0.775 0.143,0.775c0.271,-0 0.409,-0.068 0.409,-0.203Zm-10.015,1.157c-0.176,-0.286 0.114,-0.409 0.962,-0.409c0.659,-0 0.878,0.047 0.878,0.19c-0,0.104 -0.097,0.227 -0.216,0.272c-0.348,0.134 -1.532,0.095 -1.624,-0.053l0,-0Zm-6.523,-1.654c-0.086,-0.838 -0.338,-4.593 -0.383,-5.695c-0.042,-1.056 0.239,-1.039 0.337,0.02c0.259,2.778 0.401,6.125 0.266,6.26c-0.103,0.103 -0.167,-0.067 -0.22,-0.585l-0,-0Zm-18.968,-0.356c0.089,-0.868 0.248,-1.274 0.428,-1.094c0.044,0.044 0.037,0.515 -0.015,1.047c-0.072,0.729 -0.146,0.967 -0.301,0.967c-0.172,-0 -0.19,-0.15 -0.112,-0.92l0,-0Zm17.611,-0.477c-0.046,-0.468 -0.117,-1.986 -0.158,-3.372c-0.042,-1.387 -0.107,-2.965 -0.146,-3.509c-0.057,-0.796 -0.033,-0.988 0.123,-0.988c0.219,0 0.297,1.029 0.448,5.893c0.057,1.842 0.04,2.828 -0.048,2.828c-0.075,-0 -0.173,-0.384 -0.219,-0.852l-0,-0Zm2.315,0.007c-0.126,-1.05 -0.109,-2.97 0.027,-2.97c0.148,-0 0.307,3.437 0.165,3.584c-0.058,0.06 -0.144,-0.216 -0.192,-0.614l-0,0Zm1.564,-1.165c-0.205,-2.345 -0.427,-5.314 -0.427,-5.708c-0,-0.177 0.082,-0.321 0.182,-0.321c0.139,-0 0.223,0.576 0.352,2.418c0.094,1.33 0.226,2.94 0.294,3.577c0.166,1.554 0.158,1.771 -0.062,1.771c-0.141,0 -0.224,-0.427 -0.339,-1.737l0,-0Zm7.407,1.465c-0.178,-0.289 0.119,-0.409 1.008,-0.409c0.992,-0 1.189,0.075 0.95,0.362c-0.18,0.217 -1.828,0.256 -1.958,0.047l0,-0Zm-23.367,-0.197c0,-0.108 0.062,-0.234 0.137,-0.28c0.074,-0.047 0.136,0.042 0.136,0.196c-0,0.154 -0.062,0.281 -0.136,0.281c-0.075,-0 -0.137,-0.089 -0.137,-0.197Zm20.166,-0.422c-0,-0.19 0.114,-0.574 0.254,-0.852c0.292,-0.582 0.512,-1.517 0.631,-2.685c0.29,-2.838 1.605,-5.177 3.374,-6.001c1.402,-0.653 1.764,-0.33 1.47,1.314c-0.265,1.485 -1.007,2.811 -2.623,4.689c-1.707,1.983 -2.049,2.455 -1.992,2.741c0.046,0.234 1.166,-0.541 3.213,-2.224c1.103,-0.906 1.9,-1.347 2.927,-1.618c1.413,-0.372 1.585,0.31 0.333,1.317c-0.769,0.619 -1.671,1.101 -5.301,2.837c-1.952,0.932 -2.286,1.003 -2.286,0.482Zm-20.166,-1.414c0,-0.901 0.038,-1.101 0.21,-1.101c0.175,-0 0.204,0.177 0.171,1.045c-0.026,0.685 -0.099,1.064 -0.21,1.101c-0.127,0.042 -0.171,-0.225 -0.171,-1.045Zm34.472,0.874c-0,-0.112 0.092,-0.204 0.204,-0.204c0.113,0 0.205,0.092 0.205,0.204c-0,0.113 -0.092,0.205 -0.205,0.205c-0.112,-0 -0.204,-0.092 -0.204,-0.205Zm-46.847,-2.616c-0.849,-2.141 -0.481,-3.701 1.508,-6.405c1.268,-1.723 1.744,-2.848 1.84,-4.349c0.093,-1.443 -0.267,-2.689 -1.125,-3.894c-0.335,-0.471 -0.745,-1.118 -0.911,-1.437c-0.289,-0.557 -0.291,-0.591 -0.058,-0.818c0.231,-0.225 0.253,-0.224 0.442,0.035c2.076,2.842 2.54,3.873 2.54,5.647c0,1.808 -0.522,3.139 -2.094,5.335c-0.514,0.72 -1.105,1.67 -1.312,2.112c-0.384,0.82 -0.415,1.216 -0.274,3.526c0.042,0.677 -0.322,0.839 -0.556,0.248l-0,-0Zm-37.063,-0.161c-0.309,-0.196 -0.126,-0.624 0.287,-0.672c0.433,-0.05 0.635,0.272 0.372,0.59c-0.19,0.228 -0.389,0.253 -0.659,0.082Zm44.227,-0.813c-0.084,-0.32 0.12,-0.534 0.319,-0.335c0.075,0.076 0.052,0.224 -0.059,0.376c-0.176,0.241 -0.187,0.239 -0.26,-0.041l-0,0Zm5.45,-0.508c-0.156,-0.156 -0.122,-1.119 0.043,-1.221c0.241,-0.149 0.28,0.009 0.167,0.682c-0.059,0.352 -0.154,0.595 -0.21,0.539l-0,-0Zm-5.255,-1.079c0.024,-0.3 0.104,-0.527 0.179,-0.505c0.165,0.049 0.099,0.722 -0.089,0.914c-0.087,0.089 -0.118,-0.052 -0.09,-0.409Zm15.644,-1.351c-0,-0.598 0.057,-1.034 0.136,-1.034c0.077,0 0.136,0.387 0.136,0.886c0,0.487 0.005,0.93 0.011,0.985c0.005,0.054 -0.056,0.12 -0.137,0.147c-0.096,0.032 -0.146,-0.308 -0.146,-0.984l-0,-0Zm-12.716,0.639c-0.269,-0.04 -0.437,-0.179 -0.554,-0.457c-0.092,-0.22 -0.44,-0.574 -0.772,-0.787c-1.05,-0.672 -1.15,-0.856 -1.15,-2.112c-0,-0.914 0.054,-1.197 0.306,-1.603c0.225,-0.361 0.307,-0.701 0.307,-1.272l-0,-0.779l0.579,0.091c1.121,0.177 2.743,0.619 3.157,0.86c0.447,0.259 1.027,1.168 0.855,1.34c-0.057,0.056 -0.3,-0.013 -0.542,-0.154l-0.438,-0.257l0.511,0.628c0.466,0.572 0.511,0.7 0.511,1.46c-0,1.029 -0.223,1.582 -0.904,2.251c-0.438,0.429 -1.296,0.947 -1.442,0.869c-0.022,-0.011 -0.212,-0.046 -0.424,-0.078Zm0.278,-2.115c0.393,-0.43 0.485,-0.83 0.325,-1.412c-0.215,-0.778 -0.637,-1.143 -1.322,-1.143c-0.463,-0 -0.636,0.072 -0.862,0.359c-0.296,0.376 -0.379,1.064 -0.146,1.208c0.075,0.046 0.136,-0.029 0.136,-0.166c0,-0.414 0.397,-0.856 0.767,-0.856c0.549,-0 0.848,0.239 1.021,0.819c0.143,0.475 0.132,0.577 -0.084,0.816c-0.298,0.329 -0.777,0.35 -1.231,0.052c-0.384,-0.251 -0.434,-0.117 -0.124,0.326c0.295,0.422 1.132,0.42 1.52,-0.003l-0,-0Zm-0.642,-1.064c-0,-0.071 -0.062,-0.129 -0.137,-0.129c-0.074,0 -0.136,0.096 -0.136,0.213c0,0.117 0.062,0.174 0.136,0.128c0.075,-0.046 0.137,-0.142 0.137,-0.212Zm1.907,-0.828c0,-0.627 -1.185,-1.576 -1.533,-1.228c-0.117,0.117 -0.103,0.156 0.058,0.156c0.117,0 0.452,0.27 0.742,0.6c0.545,0.619 0.733,0.74 0.733,0.472l0,0Zm0.138,-0.934c-0.161,-0.226 -0.427,-0.48 -0.59,-0.565c-0.265,-0.136 -0.258,-0.11 0.061,0.239c0.197,0.216 0.437,0.546 0.534,0.733c0.101,0.196 0.199,0.269 0.231,0.172c0.031,-0.092 -0.075,-0.353 -0.236,-0.579l-0,0Zm-2.863,-1.39c0,-0.136 -0.061,-0.247 -0.136,-0.247c-0.075,0 -0.136,0.118 -0.136,0.262c-0,0.144 -0.036,0.373 -0.08,0.511c-0.072,0.228 -0.06,0.227 0.137,-0.015c0.118,-0.146 0.215,-0.376 0.215,-0.511l0,-0Zm3.474,6.02c-0.11,-0.178 0.049,-0.68 0.214,-0.68c0.07,-0 0.127,0.184 0.127,0.408c0,0.403 -0.174,0.541 -0.341,0.272Zm11.464,-2.266c-0.122,-0.893 -0.107,-1.548 0.035,-1.548c0.203,-0 0.287,0.386 0.287,1.305c0,1.016 -0.195,1.163 -0.322,0.243Zm-16.799,-1.972c0.119,-2.393 0.21,-2.982 0.463,-2.982c0.14,-0 0.179,0.094 0.129,0.306c-0.067,0.282 -0.25,2.806 -0.284,3.906c-0.008,0.27 -0.095,0.493 -0.206,0.53c-0.162,0.054 -0.178,-0.223 -0.102,-1.76Zm20.482,1.423c-0.139,-0.14 -0.107,-0.7 0.046,-0.795c0.081,-0.05 0.136,0.112 0.136,0.401c-0,0.498 -0.025,0.551 -0.182,0.394l0,0Zm-0.806,-0.829c-0.035,-0.281 -0.057,-0.521 -0.049,-0.533c0.008,-0.012 0.245,-0.064 0.526,-0.117c0.421,-0.079 0.511,-0.056 0.511,0.127c-0,0.169 -0.082,0.201 -0.341,0.136c-0.316,-0.079 -0.34,-0.05 -0.34,0.407c-0,0.647 -0.225,0.633 -0.307,-0.02l0,0Zm-3.967,-0.068c-0.046,-0.169 -0.083,-0.616 -0.084,-0.995c-0.003,-0.681 0.003,-0.691 0.614,-0.987c0.817,-0.397 0.882,-0.384 0.882,0.183c0,0.474 -0.009,0.482 -0.511,0.442l-0.51,-0.039l-0.041,0.851c-0.041,0.861 -0.2,1.108 -0.35,0.545l-0,0Zm1.004,-1.601c-0,-0.075 -0.065,-0.136 -0.145,-0.136c-0.079,-0 -0.106,0.061 -0.06,0.136c0.047,0.075 0.112,0.136 0.145,0.136c0.033,0 0.06,-0.061 0.06,-0.136Zm3.633,0.591c-0.171,-0.172 -0.091,-0.591 0.114,-0.591c0.127,0 0.204,0.129 0.204,0.341c-0,0.331 -0.133,0.435 -0.318,0.25Zm-0.833,-0.17c-0.044,-0.071 -0.022,-0.165 0.049,-0.209c0.071,-0.044 0.165,-0.022 0.209,0.049c0.044,0.071 0.022,0.165 -0.049,0.209c-0.071,0.044 -0.165,0.021 -0.209,-0.049l0,-0Zm5.808,-0.59c0.048,-0.332 0.463,-0.487 0.693,-0.258c0.192,0.193 -0.117,0.563 -0.471,0.563c-0.197,0 -0.254,-0.078 -0.222,-0.305Zm-7.518,-0.376c-0,-0.151 0.091,-0.272 0.204,-0.272c0.114,-0 0.204,0.121 0.204,0.272c0,0.152 -0.09,0.273 -0.204,0.273c-0.113,-0 -0.204,-0.121 -0.204,-0.273Zm1.302,-0.357c-0.099,-0.395 -0.033,-0.534 0.187,-0.398c0.176,0.109 0.196,0.755 0.024,0.755c-0.067,0 -0.162,-0.16 -0.211,-0.357l0,0Zm1.014,-0.188c-0,-0.3 0.06,-0.545 0.134,-0.545c0.171,0 0.328,0.618 0.226,0.885c-0.152,0.396 -0.36,0.199 -0.36,-0.34Zm-26.503,-0.988c-0.184,-1.133 -0.627,-2.166 -1.502,-3.506c-1.095,-1.677 -1.393,-2.358 -1.593,-3.647c-0.302,-1.942 0.153,-3.377 1.758,-5.548c0.922,-1.246 1.407,-2.186 1.407,-2.723c0,-0.172 0.039,-0.508 0.087,-0.746c0.068,-0.342 0.147,-0.424 0.374,-0.391c0.263,0.037 0.288,0.125 0.283,0.995c-0.008,1.15 -0.253,1.71 -1.431,3.269c-2.343,3.098 -2.331,4.934 0.058,8.71c1.267,2.004 1.734,4.166 0.899,4.166c-0.184,0 -0.27,-0.146 -0.34,-0.579Zm-14.7,-2.167c-0.474,-0.524 -0.866,-1.124 -1.044,-1.601c-0.93,-2.485 -0.604,-4.354 1.239,-7.098c1.042,-1.551 1.267,-2.142 1.331,-3.489c0.075,-1.598 -0.129,-2.305 -1.335,-4.608c-1.125,-2.148 -1.271,-2.642 -1.259,-4.258c0.01,-1.464 0.095,-1.815 0.442,-1.815c0.321,0 0.455,0.411 0.346,1.062c-0.046,0.278 -0.022,0.965 0.053,1.527c0.117,0.865 0.316,1.377 1.297,3.338c1.277,2.552 1.529,3.456 1.379,4.946c-0.123,1.214 -0.493,2.1 -1.577,3.774c-1.047,1.618 -1.424,2.491 -1.566,3.627c-0.17,1.366 0.458,3.124 1.566,4.38c0.342,0.388 0.542,0.731 0.495,0.852c-0.156,0.406 -0.617,0.192 -1.367,-0.637l0,0Zm9.708,-0.626c-0.011,-0.056 -0.031,-0.807 -0.043,-1.669c-0.023,-1.663 -0.012,-1.622 -1.042,-3.951c-0.373,-0.844 -0.451,-1.188 -0.449,-1.976c0.002,-0.524 0.08,-1.218 0.173,-1.541c0.142,-0.488 0.222,-0.581 0.47,-0.545c0.25,0.035 0.293,0.12 0.266,0.519c-0.14,2 -0.097,2.358 0.402,3.407c0.858,1.8 0.978,2.261 0.973,3.746c-0.004,1.43 -0.173,2.112 -0.521,2.112c-0.115,0 -0.218,-0.046 -0.229,-0.102l-0,0Zm-13.886,-1.958c-0.116,-0.217 -0.136,-0.76 -0.07,-1.89c0.165,-2.827 0.495,-3.847 1.842,-5.698c0.886,-1.219 1.146,-1.961 1.075,-3.071c-0.069,-1.077 -0.473,-1.908 -1.807,-3.709c-1.49,-2.013 -1.633,-2.429 -1.639,-4.759c-0.007,-2.641 0.178,-3.265 1.887,-6.374c0.64,-1.163 0.661,-1.237 0.73,-2.594c0.083,-1.635 -0.111,-2.491 -0.854,-3.759c-0.537,-0.916 -0.622,-1.511 -0.215,-1.511c0.174,-0 0.455,0.321 0.864,0.988c0.93,1.519 1.09,2.082 1.079,3.809c-0.008,1.144 -0.232,1.743 -0.652,1.743c-0.153,-0 -0.187,0.07 -0.118,0.238c0.255,0.619 0.204,0.812 -0.668,2.532c-1.097,2.165 -1.37,3.29 -1.277,5.259c0.081,1.712 0.382,2.456 1.687,4.166c1.408,1.844 1.727,2.557 1.796,4.019c0.07,1.466 -0.166,2.127 -1.329,3.728c-0.536,0.738 -0.944,1.474 -1.107,1.996c-0.226,0.727 -0.466,2.626 -0.568,4.494c-0.039,0.702 -0.38,0.908 -0.656,0.393l0,0Zm-3.02,-1.993c-0.115,-0.131 -0.352,-0.515 -0.527,-0.852c-0.552,-1.067 -0.393,-3.008 0.228,-2.77c0.14,0.053 0.194,0.315 0.194,0.929c0,0.702 0.084,1.02 0.468,1.784c0.258,0.512 0.438,0.979 0.401,1.039c-0.118,0.19 -0.546,0.117 -0.764,-0.13Zm1.172,-5.685c-0.075,-0.195 0.671,-2.424 0.904,-2.699c0.163,-0.193 0.544,0.061 0.541,0.36c-0.001,0.16 -0.201,0.782 -0.442,1.38c-0.438,1.083 -0.816,1.445 -1.003,0.959Zm16.663,-1.253c-0.183,-0.183 -0.08,-0.5 0.363,-1.117c0.737,-1.026 0.821,-1.363 0.741,-2.99c-0.08,-1.638 -0.052,-1.797 0.313,-1.797c0.171,0 0.286,0.127 0.341,0.375c0.045,0.206 0.108,0.458 0.14,0.56c0.032,0.103 0.063,0.721 0.068,1.375c0.01,1.37 -0.158,1.88 -0.976,2.964c-0.511,0.677 -0.775,0.845 -0.99,0.63l0,0Zm-16.615,-4.095c-0.166,-0.2 -0.562,-0.649 -0.88,-0.996c-0.734,-0.805 -1.144,-1.733 -1.227,-2.78c-0.053,-0.681 0.022,-1.112 0.431,-2.459c0.273,-0.897 0.544,-1.679 0.601,-1.737c0.058,-0.058 0.224,-0.019 0.369,0.087c0.258,0.189 0.256,0.216 -0.124,1.382c-0.722,2.216 -0.632,3.349 0.36,4.567c0.955,1.172 1.189,1.536 1.189,1.846c0,0.459 -0.374,0.506 -0.719,0.09Zm15.363,-2.361c-0.123,-0.238 -0.489,-0.819 -0.812,-1.291c-0.632,-0.924 -0.892,-1.844 -0.614,-2.178c0.246,-0.297 0.632,-0.022 0.734,0.523c0.048,0.253 0.368,0.899 0.712,1.437c0.671,1.049 0.845,1.81 0.434,1.894c-0.148,0.031 -0.311,-0.107 -0.454,-0.385Zm-24.499,-6.351c-0.2,-0.2 -0.085,-0.591 0.173,-0.591c0.348,0 0.482,0.235 0.276,0.483c-0.18,0.217 -0.309,0.248 -0.449,0.108Zm7.724,-0.386c-0.109,-0.285 0.052,-0.648 0.258,-0.58c0.267,0.088 0.302,0.784 0.039,0.784c-0.12,0 -0.253,-0.092 -0.297,-0.204Zm7.854,-2.317c-0,-0.198 0.443,-1.215 0.984,-2.261l0.985,-1.9l0.052,-1.404c0.063,-1.705 -0.118,-2.65 -0.749,-3.912c-0.508,-1.015 -0.514,-1.402 -0.021,-1.33c0.478,0.07 1.306,1.82 1.566,3.314c0.173,0.992 0.186,1.446 0.069,2.384c-0.131,1.045 -0.251,1.364 -1.229,3.27c-0.824,1.606 -1.152,2.122 -1.37,2.155c-0.231,0.035 -0.287,-0.027 -0.287,-0.316l-0,-0Zm6.301,-0.985c-0.254,-0.089 -0.206,-0.505 0.124,-1.064c0.449,-0.761 0.493,-2.159 0.116,-3.64c-0.314,-1.227 -0.288,-1.873 0.073,-1.873c0.252,0 0.393,0.358 0.849,2.153c0.406,1.598 0.354,2.223 -0.304,3.613c-0.354,0.748 -0.538,0.923 -0.858,0.811l0,0Zm4.827,-0.773c-0.04,-0.105 0.011,-0.304 0.114,-0.442c0.175,-0.237 0.2,-0.239 0.421,-0.021c0.195,0.192 0.205,0.268 0.06,0.443c-0.218,0.263 -0.498,0.273 -0.595,0.02l0,0Zm-19.574,-0.692c-0.2,-0.241 -0.09,-0.615 0.182,-0.615c0.272,-0 0.542,0.367 0.449,0.611c-0.101,0.263 -0.415,0.265 -0.631,0.004l-0,-0Zm0.946,-2.125c-0.181,-0.338 -0.082,-0.67 0.201,-0.67c0.251,-0 0.534,0.496 0.433,0.76c-0.11,0.285 -0.46,0.235 -0.634,-0.09Zm13.736,-3.745c-0.037,-0.037 -0.355,-0.638 -0.705,-1.335c-0.757,-1.505 -0.94,-2.613 -0.682,-4.142c0.237,-1.407 0.44,-1.94 0.74,-1.94c0.409,0 0.445,0.231 0.198,1.242c-0.162,0.659 -0.216,1.3 -0.175,2.071c0.05,0.951 0.142,1.298 0.629,2.354c0.314,0.682 0.571,1.308 0.571,1.392c0,0.171 -0.471,0.464 -0.576,0.358Zm-12.286,-0.704c-0.196,-0.196 -0.069,-0.581 0.191,-0.581c0.176,-0 0.272,0.09 0.272,0.258c0,0.258 -0.311,0.475 -0.463,0.323Zm2.463,-4.022c-0.742,-0.995 -1.051,-1.565 -0.967,-1.784c0.154,-0.402 0.541,-0.245 0.874,0.354c0.176,0.318 0.464,0.768 0.638,1c0.372,0.496 0.396,0.677 0.101,0.79c-0.303,0.117 -0.281,0.129 -0.646,-0.36Zm3.992,-0.136c-0.401,-0.652 -0.584,-1.413 -0.597,-2.487c-0.013,-0.975 0.232,-1.839 0.522,-1.839c0.346,0 0.455,0.285 0.328,0.854c-0.158,0.701 -0.024,1.855 0.325,2.797c0.147,0.397 0.233,0.811 0.191,0.92c-0.128,0.334 -0.483,0.221 -0.769,-0.245Zm1.139,-6.583c-0.107,-0.28 0.108,-0.489 0.35,-0.34c0.206,0.127 0.111,0.553 -0.123,0.553c-0.08,0 -0.182,-0.096 -0.227,-0.213Zm1.982,-2.273c-0.049,-0.522 0.173,-0.819 0.515,-0.688c0.375,0.143 0.107,0.858 -0.322,0.858c-0.097,-0 -0.184,-0.077 -0.193,-0.17Z" style="fill-rule:nonzero;"/></g></svg>