<?xml version="1.0" encoding="UTF-8" standalone="no"?><!DOCTYPE svg PUBLIC "-//W3C//DTD SVG 1.1//EN" "http://www.w3.org/Graphics/SVG/1.1/DTD/svg11.dtd"><svg width="100%" height="100%" viewBox="0 0 150 150" version="1.1" xmlns="http://www.w3.org/2000/svg" xmlns:xlink="http://www.w3.org/1999/xlink" xml:space="preserve" xmlns:serif="http://www.serif.com/" style="fill-rule:evenodd;clip-rule:evenodd;stroke-linejoin:round;stroke-miterlimit:2;"><rect id="Artboard1" x="0" y="0" width="150" height="150" style="fill:none;"/><g id="Artboard11" serif:id="Artboard1"><path id="path1" d="M64.887,124.973c-0.287,-0.03 -0.522,-0.098 -0.522,-0.152c-0,-0.106 2.296,-0.252 4.169,-0.266c1.957,-0.014 0.87,-0.199 -1.334,-0.227c-1.112,-0.014 -2.053,-0.043 -2.09,-0.065c-0.038,-0.022 -2.088,-0.078 -4.557,-0.124c-4.397,-0.082 -8.34,-0.252 -8.451,-0.363c-0.344,-0.345 1.776,-0.366 12.386,-0.123c1.792,0.041 3.227,0.043 3.19,0.004c-0.038,-0.039 -1.808,-0.126 -3.935,-0.194c-5.315,-0.171 -7.129,-0.245 -9.275,-0.377c-1.015,-0.062 -3.089,-0.143 -4.611,-0.181c-3.903,-0.095 -5.097,-0.179 -4.929,-0.346c0.169,-0.169 5.054,-0.19 10.277,-0.044c2.029,0.057 3.661,0.077 3.627,0.044c-0.034,-0.032 -1.085,-0.093 -2.336,-0.135c-1.251,-0.042 -2.966,-0.105 -3.811,-0.139c-0.845,-0.035 -3.501,-0.118 -5.902,-0.185c-4.578,-0.127 -5.922,-0.215 -5.639,-0.368c0.092,-0.05 1.856,-0.13 3.918,-0.178c2.063,-0.049 3.765,-0.102 3.783,-0.12c0.018,-0.017 -1.807,-0.074 -4.057,-0.126c-5.726,-0.134 -7.381,-0.221 -7.437,-0.39c-0.072,-0.219 2.491,-0.336 5.305,-0.243c1.348,0.045 2.416,0.046 2.373,0.003c-0.043,-0.043 -2.159,-0.147 -4.702,-0.231c-4.244,-0.139 -5.157,-0.231 -4.76,-0.476c0.063,-0.04 2.323,-0.111 5.02,-0.16c2.698,-0.048 4.767,-0.127 4.598,-0.176c-0.169,-0.048 -0.695,-0.099 -1.168,-0.112c-0.473,-0.014 -1.165,-0.061 -1.537,-0.105c-0.567,-0.067 -0.676,-0.119 -0.676,-0.326c0,-0.22 0.109,-0.254 1.045,-0.326c0.575,-0.044 2.193,-0.085 3.596,-0.092c2.085,-0.01 2.551,-0.043 2.551,-0.182c0,-0.264 0.409,-0.318 2.414,-0.32l1.861,-0.002l0.258,-0.645c0.141,-0.355 0.668,-1.835 1.17,-3.289c0.502,-1.454 1.192,-3.442 1.532,-4.417l0.62,-1.774l-0.301,-0.356c-0.165,-0.197 -0.3,-0.402 -0.3,-0.457c0,-0.202 0.61,-2.442 0.747,-2.742c0.078,-0.17 0.263,-0.364 0.411,-0.432c0.209,-0.095 0.361,-0.426 0.671,-1.458c0.221,-0.734 1.002,-3.189 1.737,-5.454c0.734,-2.265 1.784,-5.529 2.332,-7.254c0.549,-1.724 1.502,-4.642 2.119,-6.484c1.054,-3.15 1.109,-3.363 0.917,-3.576c-0.242,-0.267 -0.265,-1.218 -0.044,-1.866c0.119,-0.349 0.233,-0.451 0.606,-0.543c0.393,-0.097 0.471,-0.175 0.538,-0.532c0.054,-0.285 0.171,-0.453 0.371,-0.529c0.27,-0.103 0.292,-0.176 0.292,-1.011c-0,-0.971 0.111,-1.196 0.59,-1.196c0.163,0 0.449,-0.124 0.636,-0.277c0.186,-0.152 0.439,-0.335 0.562,-0.407c0.203,-0.119 0.184,-0.16 -0.209,-0.46c-0.811,-0.619 -0.986,-0.58 -2.563,0.564c-0.778,0.565 -2.382,1.77 -3.566,2.678c-1.183,0.909 -2.566,1.961 -3.073,2.338c-2.772,2.063 -4.934,3.655 -6.578,4.844c-1.934,1.398 -2.889,2.133 -3.041,2.339c-0.049,0.067 -0.091,0.326 -0.092,0.574c-0.002,0.514 -0.102,0.652 -1.838,2.547c-1.464,1.598 -3.57,3.475 -4.93,4.396c-0.959,0.65 -1.094,0.705 -1.717,0.702c-1.09,-0.007 -2.048,-0.648 -2.537,-1.698c-0.569,-1.222 -0.239,-2.745 0.783,-3.619c0.715,-0.611 4.261,-2.737 5.811,-3.484c1.736,-0.836 2.383,-1.078 2.887,-1.078c0.466,-0 0.661,-0.103 1.679,-0.887c0.633,-0.487 1.926,-1.471 2.872,-2.186c2.613,-1.972 5.277,-4.008 6.593,-5.038c0.651,-0.509 2.377,-1.811 3.837,-2.893l2.654,-1.967l-0.072,-1.047c-0.065,-0.943 -0.039,-1.128 0.257,-1.869l0.329,-0.821l-0.509,-0.806c-0.28,-0.443 -0.535,-0.805 -0.566,-0.805c-0.067,-0 -2.179,1.439 -4.18,2.847l-1.37,0.964l-0.044,0.977c-0.042,0.919 -0.07,1.004 -0.463,1.409c-0.526,0.543 -1.779,1.057 -2.579,1.057c-0.421,-0 -0.876,0.126 -1.538,0.428c-1.379,0.628 -1.976,1.117 -2.148,1.759c-0.113,0.422 -0.249,0.595 -0.677,0.861c-0.295,0.183 -0.593,0.48 -0.661,0.66c-0.168,0.442 -1.064,0.986 -1.747,1.061c-0.372,0.04 -0.689,0.174 -0.949,0.4c-0.214,0.187 -0.569,0.379 -0.788,0.427c-0.22,0.048 -0.57,0.192 -0.778,0.319c-0.234,0.142 -0.615,0.232 -0.994,0.235c-0.571,0.004 -0.723,0.08 -2.132,1.068c-1.376,0.964 -1.544,1.124 -1.802,1.707c-0.302,0.682 -0.478,0.828 -1.168,0.969c-0.256,0.053 -0.655,0.302 -0.984,0.614c-0.814,0.773 -1.632,1.211 -2.08,1.112c-0.931,-0.204 -1.855,-1.343 -1.854,-2.285c0.001,-0.643 0.372,-1.118 1.29,-1.655c0.526,-0.307 0.942,-0.658 1.124,-0.946c0.341,-0.538 0.85,-0.833 1.441,-0.833c0.346,-0 0.723,-0.226 2.065,-1.238c1.131,-0.853 1.714,-1.378 1.875,-1.69c0.129,-0.249 0.3,-0.508 0.38,-0.576c0.081,-0.068 0.288,-0.372 0.461,-0.677c0.233,-0.41 0.545,-0.697 1.205,-1.106c0.49,-0.304 1.035,-0.701 1.211,-0.882c0.176,-0.181 0.754,-0.525 1.283,-0.766c0.53,-0.24 1.194,-0.615 1.476,-0.832c0.282,-0.217 0.532,-0.409 0.557,-0.426c0.025,-0.018 -0.157,-0.393 -0.404,-0.835l-0.449,-0.802l-0.528,0.55c-0.412,0.431 -0.614,0.551 -0.925,0.551c-0.583,0 -2.049,1.137 -2.219,1.721c-0.224,0.77 -1.686,1.448 -2.772,1.285c-0.528,-0.079 -0.575,-0.055 -2.391,1.181c-1.487,1.012 -1.852,1.317 -1.852,1.545c-0,0.155 -0.089,0.354 -0.199,0.441c-0.109,0.088 -0.365,0.336 -0.57,0.552c-0.205,0.217 -0.529,0.428 -0.721,0.471c-0.191,0.042 -0.519,0.236 -0.729,0.432c-1.245,1.163 -3.31,-0.105 -3.313,-2.036c-0.001,-0.669 0.389,-1.201 1.092,-1.485c0.351,-0.142 0.79,-0.404 0.975,-0.582c0.403,-0.385 1.68,-0.856 2.11,-0.776c0.233,0.042 0.584,-0.147 1.476,-0.797c1.83,-1.335 1.934,-1.426 2.023,-1.784c0.146,-0.578 0.554,-1.02 1.277,-1.38c0.6,-0.299 0.694,-0.393 0.675,-0.671c-0.028,-0.395 -0.903,-1.993 -1.009,-1.841c-0.108,0.158 -1.345,0.896 -1.5,0.896c-0.072,0 -0.356,0.228 -0.631,0.505c-0.434,0.438 -0.554,0.497 -0.903,0.44c-0.624,-0.101 -1.002,-0.419 -1.352,-1.135c-0.489,-0.998 -0.298,-1.524 0.698,-1.936c0.245,-0.101 0.627,-0.41 0.849,-0.686c0.222,-0.276 0.504,-0.534 0.627,-0.573c0.123,-0.039 0.342,-0.282 0.487,-0.54c0.271,-0.482 0.887,-0.87 1.381,-0.87c0.155,0 0.45,-0.184 0.672,-0.419c0.256,-0.272 0.558,-0.448 0.857,-0.499c0.545,-0.094 4.058,-2.653 4.291,-3.126c0.08,-0.162 0.312,-0.4 0.516,-0.529c0.205,-0.13 0.481,-0.421 0.615,-0.649c0.332,-0.562 1.439,-1.294 1.957,-1.294c1.117,0 2.387,1.215 2.741,2.624c0.211,0.836 -0.005,1.184 -0.931,1.502c-0.405,0.139 -1.012,0.464 -1.348,0.721c-0.575,0.44 -0.652,0.464 -1.263,0.401l-0.651,-0.067l-1.816,1.252c-0.998,0.688 -1.946,1.345 -2.105,1.46c-0.268,0.193 -0.278,0.238 -0.131,0.615c0.207,0.529 1.013,1.943 1.109,1.943c0.041,-0 0.232,-0.165 0.425,-0.366c0.193,-0.201 0.73,-0.511 1.194,-0.688c0.773,-0.295 0.867,-0.371 1.117,-0.895c0.197,-0.411 0.42,-0.652 0.797,-0.858c0.288,-0.157 0.692,-0.531 0.897,-0.83c0.418,-0.608 0.906,-0.912 1.459,-0.912c0.229,-0 0.524,-0.133 0.774,-0.348c0.222,-0.191 1.538,-1.197 2.924,-2.234c5.772,-4.32 5.324,-3.949 5.497,-4.545c0.281,-0.973 1.281,-1.717 2.313,-1.723c0.444,-0.002 0.833,-0.245 3.812,-2.377c7.008,-5.018 7.163,-5.135 7.318,-5.508c0.082,-0.199 0.308,-0.474 0.502,-0.612c0.194,-0.138 0.386,-0.384 0.426,-0.546c0.089,-0.353 1.217,-1.345 1.815,-1.595c0.235,-0.098 0.7,-0.206 1.033,-0.239c0.519,-0.052 0.792,-0.197 1.901,-1.017c0.713,-0.526 1.663,-1.219 2.112,-1.539c0.472,-0.337 0.871,-0.726 0.944,-0.922c0.071,-0.187 0.31,-0.533 0.532,-0.77c0.222,-0.237 0.469,-0.596 0.549,-0.799c0.165,-0.418 1.307,-1.473 1.797,-1.659c0.179,-0.068 0.452,-0.124 0.608,-0.124c0.167,0 0.985,-0.525 2.004,-1.288c1.61,-1.204 1.727,-1.319 1.799,-1.773c0.059,-0.366 0.204,-0.592 0.592,-0.925c0.283,-0.242 0.552,-0.44 0.599,-0.44c0.047,0 0.122,-0.229 0.167,-0.508c0.107,-0.673 0.524,-1.065 2.321,-2.187c2.037,-1.27 2.612,-1.338 4.265,-0.503c3.774,1.909 9.13,9.038 8.824,11.748c-0.095,0.845 -0.746,1.658 -2.402,3.001c-1.568,1.272 -2.5,1.727 -3.535,1.727c-0.375,0 -0.825,0.271 -2.869,1.726c-1.792,1.276 -2.459,1.82 -2.56,2.087c-0.075,0.199 -0.266,0.416 -0.425,0.482c-0.158,0.065 -0.699,0.294 -1.2,0.508c-0.764,0.325 -1.024,0.379 -1.599,0.331l-0.686,-0.058l-2.732,1.842c-1.707,1.151 -2.762,1.941 -2.811,2.104c-0.1,0.331 -0.662,0.937 -0.869,0.937c-0.086,0 -0.339,0.158 -0.561,0.352c-0.77,0.671 -1.173,0.809 -2.371,0.813l-1.106,0.003l-2.892,1.967c-1.591,1.082 -3.321,2.244 -3.845,2.582l-0.953,0.615l0.074,0.491c0.118,0.788 0.56,1.564 1.121,1.967c0.626,0.45 0.678,0.558 0.501,1.028c-0.129,0.341 -0.095,0.437 0.448,1.253c0.695,1.045 0.972,1.76 0.867,2.239l-0.077,0.348l0.657,-0.084c0.361,-0.047 0.765,-0.16 0.899,-0.252c0.387,-0.266 0.986,-0.203 1.404,0.149c0.878,0.738 0.809,2.756 -0.11,3.215c-0.423,0.212 -0.934,0.196 -1.294,-0.04c-0.23,-0.151 -0.524,-0.187 -1.225,-0.152c-0.841,0.043 -0.958,0.082 -1.308,0.431l-0.384,0.384l0.376,0.083c0.512,0.112 0.597,0.252 0.698,1.143c0.076,0.663 0.126,0.779 0.369,0.84c0.155,0.039 0.398,0.204 0.541,0.368c0.142,0.163 0.383,0.298 0.536,0.299c0.535,0.003 0.636,0.177 0.66,1.124c0.015,0.58 0.076,0.912 0.173,0.945c0.3,0.1 0.612,0.518 0.612,0.819c0,0.266 0.055,0.307 0.411,0.307c0.633,-0 0.864,0.345 0.922,1.38c0.045,0.801 0.026,0.889 -0.242,1.093l-0.292,0.221l0.411,1.143c1.054,2.933 1.61,4.505 2.926,8.273c0.779,2.232 1.932,5.551 2.562,7.377c0.629,1.826 1.292,3.734 1.473,4.242c0.181,0.507 0.43,1.24 0.554,1.629c0.124,0.39 0.341,0.805 0.483,0.923c0.179,0.147 0.393,0.704 0.689,1.794c0.237,0.869 0.431,1.665 0.431,1.768c-0,0.104 -0.137,0.316 -0.304,0.47l-0.303,0.282l0.908,2.622c0.5,1.442 1.39,3.977 1.979,5.634c1.313,3.697 1.334,3.776 1.027,3.941c-0.128,0.068 -1.118,0.19 -2.2,0.269c-1.99,0.147 -2.647,0.339 -1.159,0.339c1.129,0 1.012,0.28 -0.161,0.386c-0.676,0.061 -10.68,0.29 -12.669,0.29c-0.292,0 -0.393,0.051 -0.367,0.185c0.032,0.159 0.468,0.18 3.2,0.151c1.785,-0.019 3.164,0.013 3.164,0.075c-0,0.184 -1.039,0.265 -3.383,0.265c-1.233,0 -2.415,0.035 -2.626,0.077c-0.441,0.088 -0.522,0.41 -0.108,0.426c0.788,0.031 1.744,0.125 1.796,0.177c0.167,0.167 -0.073,0.203 -1.954,0.295c-0.103,0.005 -0.198,0.134 -0.211,0.286c-0.023,0.276 -0.018,0.276 1.585,0.236c1.298,-0.033 1.598,-0.01 1.554,0.122c-0.041,0.123 -0.451,0.173 -1.63,0.199c-1.469,0.032 -1.599,0.055 -1.935,0.338c-0.199,0.167 -0.426,0.305 -0.505,0.308c-0.08,0.002 -0.698,0.053 -1.374,0.114c-1.381,0.123 -8.69,0.253 -9.498,0.168l0,-0Zm10.047,-7.356c-0.122,-3.819 -0.303,-6.68 -0.431,-6.808c-0.163,-0.163 0.097,12.076 0.271,12.718c0.212,0.786 0.286,-1.944 0.16,-5.91Zm0.944,0.646c-0.089,-5.861 -0.178,-7.868 -0.343,-7.766c-0.058,0.036 -0.106,0.491 -0.107,1.011c-0.002,1.026 -0.228,1.047 -0.254,0.023c-0.008,-0.304 -0.059,-0.691 -0.113,-0.86c-0.171,-0.534 -0.132,2.008 0.066,4.303c0.102,1.183 0.244,3.285 0.316,4.672c0.181,3.488 0.235,4.057 0.387,4.057c0.093,-0 0.107,-1.596 0.048,-5.441l0,0.001Zm-3.645,4.333c0,-0.076 -0.68,-0.119 -1.813,-0.114c-1.128,0.005 -1.721,0.049 -1.568,0.114c0.354,0.152 3.381,0.152 3.381,0Zm-0.413,-0.823c-0.047,-0.047 -0.427,-0.098 -0.843,-0.114c-0.494,-0.018 -0.696,0.011 -0.581,0.084c0.206,0.13 1.552,0.158 1.424,0.03l-0,0Zm-18.865,-0.308c-0.114,-0.114 -0.18,-0.114 -0.295,0c-0.115,0.115 -0.082,0.148 0.148,0.148c0.229,-0 0.262,-0.033 0.147,-0.148Zm-7.186,-0.798c-0.118,-0.031 -0.312,-0.031 -0.43,0c-0.119,0.031 -0.022,0.057 0.215,0.057c0.237,-0 0.333,-0.026 0.215,-0.057Zm8.734,-1.646c1.268,-3.226 3.23,-8.87 3.218,-9.256c-0.002,-0.077 -0.197,0.331 -0.433,0.906c-0.653,1.588 -0.674,1.633 -0.73,1.577c-0.029,-0.029 0.028,-0.354 0.126,-0.723c0.185,-0.695 0.23,-1.067 0.114,-0.952c-0.255,0.255 -3.007,8.865 -3.007,9.407c0,0.445 0.341,-0.014 0.712,-0.959Zm25.14,0.661c-0.152,-0.029 -0.428,-0.03 -0.615,-0.002c-0.187,0.028 -0.063,0.052 0.275,0.053c0.338,0.001 0.491,-0.022 0.34,-0.051l-0,0Zm10.626,-0.088c0.092,-0.066 -0.135,-0.733 -3.48,-10.245c-0.391,-1.11 -0.478,-1.26 -0.73,-1.26c-0.457,-0 -0.889,-0.212 -0.973,-0.477c-0.043,-0.135 -0.267,-0.308 -0.498,-0.384c-0.231,-0.077 -0.519,-0.275 -0.64,-0.441l-0.219,-0.301l-2.398,0.229c-1.523,0.146 -2.532,0.299 -2.768,0.421c-0.203,0.105 -0.632,0.23 -0.952,0.279l-0.583,0.087l0,0.819c0,0.86 -0.212,1.366 -0.572,1.366c-0.16,-0 -0.179,0.133 -0.119,0.83c0.039,0.456 0.101,1.826 0.138,3.043c0.037,1.217 0.099,2.743 0.137,3.392l0.071,1.179l4.63,0.082c5.405,0.095 7.764,0.2 7.764,0.345c0,0.057 -1.065,0.115 -2.367,0.128c-1.301,0.013 -2.505,0.036 -2.674,0.05c-0.169,0.015 -1.87,0.031 -3.78,0.038c-2.201,0.007 -3.474,0.056 -3.474,0.133c0,0.077 1.914,0.133 5.316,0.153c4.73,0.029 5.32,0.054 5.353,0.227c0.034,0.172 -0.326,0.197 -3.195,0.226c-1.777,0.018 -3.453,0.076 -3.724,0.13c-0.27,0.054 1.805,0.069 4.611,0.033c2.806,-0.035 5.113,-0.072 5.126,-0.082l-0,0Zm-2.421,-0.298c-0,-0.153 0.403,-0.218 1.291,-0.21c1.151,0.01 0.949,0.247 -0.246,0.288c-0.582,0.02 -1.045,-0.015 -1.045,-0.078Zm-15.922,-0.376c-0.135,-0.053 -3.648,-0.092 -7.807,-0.086c-4.159,0.006 -6.897,0.041 -6.086,0.077c2.395,0.107 14.161,0.115 13.893,0.009l-0,0Zm1.871,-2.961c-0.044,-1.685 -0.128,-2.914 -0.208,-3.043c-0.133,-0.217 -0.117,0.812 0.073,4.486c0.124,2.418 0.211,1.49 0.135,-1.443Zm-1.781,-0.432c-0.018,-1.42 -0.065,-3.26 -0.104,-4.088c-0.066,-1.385 -0.091,-1.506 -0.311,-1.506c-0.132,-0 -0.375,-0.136 -0.541,-0.302c-0.259,-0.258 -0.302,-0.416 -0.302,-1.099c0,-0.439 -0.052,-0.83 -0.115,-0.869c-0.063,-0.039 -0.699,-0.116 -1.413,-0.172c-0.972,-0.076 -1.36,-0.157 -1.542,-0.321c-0.204,-0.185 -0.609,-0.238 -2.526,-0.333l-2.283,-0.114l-0.862,0.744c-0.732,0.631 -0.935,0.745 -1.334,0.745c-0.334,-0 -0.498,0.062 -0.56,0.215c-0.343,0.846 -3.061,8.657 -3.251,9.344l-0.114,0.414l15.291,-0.076l-0.033,-2.582Zm4.275,-7.192l-0,-1.604l-2.427,0.033c-2.735,0.038 -2.592,-0.023 -2.434,1.032l0.081,0.539l4.78,-0Zm-3.864,-0.44c-0.209,-0.208 -0.24,-0.334 -0.114,-0.46c0.044,-0.044 0.147,0.01 0.228,0.121c0.09,0.124 0.208,0.163 0.307,0.102c0.125,-0.077 0.108,-0.138 -0.073,-0.274c-0.222,-0.166 -0.219,-0.173 0.072,-0.135c0.378,0.05 0.483,0.453 0.175,0.678c-0.284,0.208 -0.36,0.204 -0.595,-0.032l-0,0Zm2.098,-0.114c-0.076,-0.198 0.02,-0.554 0.15,-0.551c0.326,0.007 0.632,0.185 0.632,0.368c0,0.36 -0.655,0.514 -0.782,0.183Zm14.668,-0.729c0.087,-0.104 0.125,-0.275 0.085,-0.378c-0.061,-0.16 -0.112,-0.15 -0.331,0.069c-0.142,0.142 -0.337,0.228 -0.433,0.191c-0.208,-0.08 -0.218,-0.016 -0.046,0.304c0.138,0.258 0.415,0.187 0.725,-0.186l0,-0Zm-29.886,-0.316c-0,-0.116 -0.039,-0.093 -0.106,0.062c-0.058,0.135 -0.106,0.329 -0.106,0.43c0,0.116 0.039,0.094 0.106,-0.061c0.058,-0.136 0.106,-0.329 0.106,-0.431l-0,0Zm-0.79,-0.297c0.281,-1.036 0.24,-1.181 -0.39,-1.366l-0.52,-0.154l-0.125,0.448c-0.068,0.246 -0.124,0.568 -0.125,0.717c0,0.148 -0.056,0.303 -0.123,0.345c-0.068,0.042 -0.123,0.185 -0.123,0.318c-0,0.264 0.363,0.461 0.873,0.473c0.291,0.007 0.339,-0.064 0.533,-0.781Zm-1.011,0.274c-0.232,-0.232 -0.177,-0.346 0.167,-0.346c0.229,0 0.306,0.057 0.277,0.205c-0.052,0.266 -0.255,0.33 -0.444,0.141Zm0.29,-0.662c-0.13,-0.095 -0.198,-0.212 -0.151,-0.259c0.048,-0.047 0.179,0.006 0.291,0.119c0.266,0.265 0.167,0.364 -0.14,0.14Zm28.962,0.372l-0.097,-0.363l-0.157,0.292c-0.086,0.16 -0.101,0.257 -0.034,0.215c0.067,-0.041 0.157,0.015 0.2,0.126c0.126,0.329 0.194,0.122 0.088,-0.27l0,-0Zm-8.625,-0.148c-0.001,-0.123 -0.041,-0.162 -0.094,-0.092c-0.05,0.068 -0.142,0.164 -0.203,0.215c-0.061,0.051 -0.019,0.092 0.094,0.092c0.114,0 0.204,-0.095 0.203,-0.215Zm10.662,-0.772c-0.094,-0.323 -0.232,-0.549 -0.336,-0.549c-0.269,-0 -0.286,0.373 -0.043,0.923c0.179,0.405 0.247,0.465 0.378,0.334c0.131,-0.131 0.131,-0.259 0.001,-0.708l-0,-0Zm-21.234,0.615c0,-0.07 -0.069,-0.15 -0.153,-0.177c-0.35,-0.113 -4.588,-0.288 -4.684,-0.194c-0.143,0.141 0.696,0.273 2.378,0.374c2.206,0.133 2.459,0.132 2.459,-0.003l0,-0Zm0.888,-0.58c0.079,-0.097 0.449,-0.154 0.996,-0.154c1.085,-0 0.973,-0.235 -0.133,-0.278c-0.853,-0.033 -1.004,0.06 -1.063,0.657c-0.023,0.231 -0.016,0.309 0.016,0.174c0.032,-0.135 0.114,-0.315 0.184,-0.399l-0,-0Zm2.063,0.584c-0.244,-0.158 -1.475,-0.158 -1.475,-0c-0,0.07 0.357,0.122 0.83,0.121c0.581,-0.002 0.774,-0.038 0.645,-0.121Zm11.68,-0.259c0.913,-0.128 1.712,-0.233 1.777,-0.233c0.068,-0 0.065,-0.051 -0.008,-0.125c-0.084,-0.083 -0.723,-0.043 -1.961,0.123c-1.01,0.135 -2.04,0.246 -2.288,0.247c-0.52,0.001 -0.84,0.101 -0.84,0.263c0,0.134 1,0.051 3.32,-0.275l0,0Zm-9.584,-3.57c-0.004,-1.985 -0.037,-4.716 -0.073,-6.069c-0.036,-1.352 -0.116,-5.09 -0.179,-8.307c-0.062,-3.217 -0.149,-5.942 -0.193,-6.055c-0.043,-0.114 -0.137,-0.207 -0.208,-0.207c-0.134,0 -0.103,2.8 0.149,13.463c0.2,8.442 0.307,10.99 0.458,10.838c0.03,-0.029 0.05,-1.677 0.046,-3.663l-0,0Zm2.392,-0.239c-0,-2.124 -0.037,-6.435 -0.082,-9.58c-0.045,-3.156 -0.037,-5.248 0.019,-4.672c0.056,0.575 0.16,3.756 0.233,7.07c0.14,6.426 0.194,7.719 0.405,9.813c0.086,0.847 0.177,1.286 0.252,1.211c0.075,-0.075 0.07,-1.537 -0.014,-4.034c-0.073,-2.154 -0.162,-5.742 -0.197,-7.974c-0.086,-5.345 -0.311,-11.586 -0.434,-12.048c-0.062,-0.231 -0.11,0.483 -0.129,1.905l-0.031,2.275l-0.097,-1.476c-0.106,-1.612 -0.36,-2.968 -0.545,-2.919c-0.155,0.04 -0.143,3.889 0.044,14.538c0.155,8.825 0.202,9.878 0.438,9.799c0.098,-0.032 0.138,-1.169 0.138,-3.908l-0,-0Zm-13.094,3.637c-0,-0.146 -0.178,-0.184 -0.861,-0.184c-0.473,-0 -0.86,0.051 -0.86,0.114c-0,0.154 0.308,0.223 1.075,0.24c0.498,0.011 0.646,-0.027 0.646,-0.17Zm9.794,-1.936c-0.044,-1.167 -0.09,-2.508 -0.101,-2.982l-0.021,-0.86l-0.072,0.973c-0.113,1.536 -0.016,4.99 0.14,4.99c0.095,-0 0.111,-0.623 0.054,-2.121l-0,-0Zm6.066,1.627c-0,-0.101 -0.751,-0.219 -0.957,-0.15c-0.068,0.022 -0.097,0.142 -0.065,0.265c0.052,0.197 0.118,0.209 0.54,0.102c0.265,-0.067 0.482,-0.165 0.482,-0.217Zm8.729,-0.06c0,-0.201 -0.549,-0.243 -1.383,-0.105c-0.773,0.128 -0.515,0.29 0.461,0.29c0.738,-0 0.922,-0.037 0.922,-0.185Zm-18.754,-0.371c0.304,-0.377 1.389,-0.595 2.372,-0.477l0.645,0.078l-0.003,-3.365c-0.004,-5.508 -0.347,-19.655 -0.476,-19.655c-0.139,0 -0.899,2.021 -2.658,7.07c-0.966,2.772 -2.061,5.898 -2.435,6.946c-1.243,3.489 -2.566,7.428 -2.633,7.835c-0.054,0.339 -0.027,0.403 0.174,0.403c0.397,-0 0.682,0.301 0.764,0.809l0.078,0.481l1.166,0.069c2.615,0.154 2.731,0.147 3.006,-0.194l0,-0Zm13.744,0.047l1.568,-0.148l-0,-0.444c-0,-0.488 0.283,-0.989 0.56,-0.989c0.097,-0 0.177,-0.057 0.177,-0.127c0,-0.07 -0.559,-1.688 -1.242,-3.596c-0.683,-1.908 -1.677,-4.702 -2.207,-6.208c-1.599,-4.541 -4.079,-11.269 -4.201,-11.401c-0.071,-0.076 -0.088,0.719 -0.045,2.091c0.038,1.217 0.099,4.011 0.135,6.208c0.071,4.33 0.264,10.859 0.38,12.879l0.073,1.26l0.388,0.001c0.593,0.001 1.248,0.219 1.502,0.5c0.188,0.208 0.328,0.241 0.787,0.187c0.307,-0.036 1.263,-0.132 2.125,-0.213l0,-0Zm-18.719,-0.229c0,-0.068 -0.124,-0.123 -0.276,-0.124c-0.152,-0.001 -0.484,-0.036 -0.738,-0.078c-0.295,-0.049 -0.461,-0.028 -0.461,0.057c0,0.073 0.291,0.153 0.646,0.177c0.355,0.025 0.687,0.056 0.737,0.068c0.051,0.013 0.092,-0.032 0.092,-0.1l0,0Zm25.754,-0.475c-0.078,-0.078 -0.918,0.353 -0.918,0.471c-0,0.059 0.217,-0.012 0.483,-0.158c0.266,-0.146 0.461,-0.287 0.435,-0.313Zm-27.735,-1.768c0.619,-1.7 2.649,-7.775 3.379,-10.113c0.232,-0.744 0.68,-2.072 0.996,-2.951c1.669,-4.649 3.097,-9.509 2.673,-9.098c-0.069,0.068 -0.325,0.759 -0.568,1.537c-0.243,0.778 -0.502,1.497 -0.575,1.598c-0.104,0.144 -0.115,0.117 -0.049,-0.123c0.249,-0.908 0.43,-1.871 0.487,-2.581c0.063,-0.783 0.059,-0.776 -0.173,0.332c-0.277,1.326 -0.746,2.774 -1.113,3.438c-0.299,0.541 -0.292,0.503 0.295,-1.541c0.421,-1.468 0.686,-2.865 0.513,-2.705c-0.046,0.042 -0.193,0.54 -0.328,1.106c-0.134,0.566 -0.434,1.638 -0.667,2.382c-0.233,0.744 -0.73,2.361 -1.104,3.594c-0.375,1.233 -0.924,2.976 -1.221,3.873c-0.296,0.897 -1.104,3.374 -1.795,5.504c-0.692,2.13 -1.361,4.189 -1.488,4.575c-0.127,0.387 -0.23,0.747 -0.228,0.8c0.009,0.218 0.259,-0.373 0.718,-1.696c0.268,-0.773 0.796,-2.262 1.175,-3.311c0.379,-1.048 1.017,-2.929 1.418,-4.18c1.283,-3.998 2.51,-7.546 2.56,-7.397c0.069,0.208 -1.479,5.309 -2.189,7.213c-0.54,1.446 -3.694,11.693 -3.68,11.955c0.011,0.223 0.414,-0.7 0.964,-2.211l0,-0Zm-1.726,0.55c0.333,-0.867 1.086,-3.053 2.528,-7.343c0.295,-0.88 0.826,-2.512 1.179,-3.627c0.353,-1.116 0.775,-2.416 0.936,-2.89c0.162,-0.473 0.453,-1.386 0.647,-2.028c0.193,-0.643 0.668,-2.164 1.055,-3.381c0.617,-1.94 0.986,-3.75 0.765,-3.75c-0.041,-0 -0.299,0.705 -0.574,1.567c-0.275,0.863 -0.657,2.011 -0.848,2.552c-0.349,0.987 -0.719,2.14 -2.109,6.577c-0.414,1.319 -0.826,2.591 -0.916,2.828c-0.438,1.151 -2.706,8.371 -3.011,9.59c-0.077,0.304 -0.17,0.657 -0.207,0.784c-0.041,0.141 -0.018,0.2 0.061,0.151c0.07,-0.044 0.293,-0.507 0.494,-1.03l-0,0Zm28.788,0.248c-0.232,-0.834 -2.099,-6.323 -3.627,-10.665c-0.452,-1.285 -1.061,-3.028 -1.353,-3.873c-1.962,-5.688 -2.894,-8.264 -3.047,-8.422c-0.418,-0.433 0.585,2.803 2.496,8.053c0.554,1.522 1.501,4.205 2.104,5.963c0.603,1.758 1.635,4.677 2.292,6.486c1.158,3.187 1.609,4.164 1.135,2.458Zm-28.439,0.193c-0.039,-0.098 -0.068,-0.069 -0.074,0.074c-0.006,0.129 0.023,0.202 0.064,0.161c0.041,-0.041 0.045,-0.147 0.01,-0.235l-0,-0Zm27.68,-0.599c-0.138,-0.409 -0.273,-0.722 -0.3,-0.695c-0.042,0.041 0.083,0.459 0.382,1.286c0.03,0.084 0.081,0.154 0.112,0.154c0.032,-0 -0.055,-0.335 -0.194,-0.745Zm-1.748,-1.721c-0.362,-1.045 -1.076,-3.033 -1.586,-4.419c-0.511,-1.387 -1.288,-3.572 -1.727,-4.857c-0.439,-1.285 -1.249,-3.608 -1.8,-5.164c-0.551,-1.555 -1.103,-3.132 -1.227,-3.504c-0.305,-0.918 -0.641,-1.74 -0.692,-1.69c-0.056,0.057 0.537,1.902 1.236,3.842c0.316,0.879 0.936,2.65 1.376,3.934c0.44,1.285 1.04,3 1.332,3.812c0.914,2.534 2.613,7.214 2.946,8.114c0.176,0.473 0.407,1.099 0.514,1.391c0.107,0.291 0.215,0.509 0.24,0.484c0.025,-0.024 -0.251,-0.899 -0.612,-1.943Zm0.719,-1.117c-0.86,-2.433 -2.658,-7.673 -2.969,-8.651c-0.341,-1.067 -1.871,-5.285 -2.27,-6.254c-0.135,-0.33 -0.459,-1.215 -0.72,-1.967c-0.537,-1.555 -0.853,-2.337 -0.916,-2.273c-0.062,0.062 0.898,2.938 1.922,5.761c0.479,1.319 1.247,3.504 1.707,4.856c0.46,1.353 1.259,3.566 1.776,4.918c0.517,1.353 1.136,3.029 1.375,3.727c0.239,0.697 0.459,1.242 0.49,1.212c0.03,-0.03 -0.148,-0.628 -0.395,-1.329Zm-12.758,-6.153c-0.039,-0.098 -0.068,-0.069 -0.074,0.074c-0.006,0.13 0.023,0.202 0.064,0.161c0.041,-0.04 0.045,-0.146 0.01,-0.235Zm-31.435,-0.999c-0,-0.067 -0.111,-0.023 -0.246,0.1c-0.136,0.122 -0.246,0.278 -0.246,0.345c-0,0.068 0.11,0.023 0.246,-0.099c0.135,-0.123 0.246,-0.278 0.246,-0.346Zm31.432,-0.238c-0.034,-0.085 -0.062,-0.016 -0.062,0.153c0,0.169 0.028,0.238 0.062,0.154c0.034,-0.085 0.034,-0.223 0,-0.307Zm-29.096,-1.373c1.063,-0.863 3.962,-3.703 4.151,-4.068c0.07,-0.135 -0.489,0.356 -1.243,1.091c-0.755,0.735 -2.036,1.92 -2.847,2.634c-0.811,0.714 -1.531,1.354 -1.598,1.422c-0.302,0.303 0.7,-0.4 1.537,-1.079Zm-3.683,-0.039l-0.371,-0.704l0.336,-0.176c0.185,-0.097 0.779,-0.513 1.321,-0.925c0.541,-0.411 1.882,-1.348 2.979,-2.081c1.097,-0.733 2.119,-1.462 2.271,-1.62l0.277,-0.288l0.655,0.62c0.79,0.747 1.002,0.694 0.294,-0.074c-0.278,-0.302 -0.541,-0.691 -0.585,-0.864c-0.043,-0.173 -0.129,-0.314 -0.19,-0.314c-0.416,-0 -5.655,2.875 -7.061,3.874c-1.081,0.769 -1.098,0.8 -0.865,1.5c0.165,0.492 1.067,1.757 1.254,1.757c0.031,-0 -0.111,-0.317 -0.315,-0.705Zm2.576,-3.444c-0,-0.058 0.318,-0.328 0.707,-0.6c0.828,-0.578 2.121,-1.324 2.121,-1.224c-0,0.038 -0.291,0.236 -0.646,0.44c-0.355,0.204 -0.991,0.623 -1.414,0.931c-0.422,0.307 -0.768,0.511 -0.768,0.453Zm-3.767,3.35c-0.039,-0.102 -0.118,-0.185 -0.177,-0.185c-0.058,0 -0.074,0.083 -0.035,0.185c0.039,0.101 0.119,0.184 0.177,0.184c0.058,-0 0.074,-0.083 0.035,-0.184Zm32.168,-0.308c-0,-0.067 -0.059,-0.123 -0.131,-0.123c-0.071,0 -0.096,0.056 -0.054,0.123c0.042,0.068 0.101,0.123 0.13,0.123c0.03,0 0.055,-0.055 0.055,-0.123l-0,0Zm1.81,-0.889c-0.027,-0.221 -0.05,-0.07 -0.051,0.336c-0.001,0.406 0.022,0.586 0.05,0.402c0.028,-0.185 0.028,-0.517 0.001,-0.738l0,-0Zm-32.214,0.655c0.081,-0.129 0.55,-0.544 1.044,-0.922c2.483,-1.903 2.809,-2.163 2.713,-2.163c-0.057,-0 -0.987,0.663 -2.066,1.473c-1.079,0.811 -2.014,1.492 -2.076,1.514c-0.123,0.042 0.01,0.332 0.153,0.332c0.047,0 0.152,-0.105 0.232,-0.234Zm30.31,-1.456c-0.06,-1.967 -0.131,-2.028 -0.143,-0.123c-0.005,0.862 0.035,1.567 0.089,1.567c0.054,0 0.078,-0.65 0.054,-1.444l0,-0Zm-0.188,-2.521c-0.03,-0.152 -0.054,-0.027 -0.054,0.277c0,0.304 0.024,0.429 0.054,0.276c0.029,-0.152 0.029,-0.401 -0,-0.553Zm-18.775,-4.307c2.928,-2.179 8.743,-6.562 10.327,-7.785c0.846,-0.652 1.935,-1.483 2.421,-1.846c0.997,-0.745 1.106,-0.872 0.913,-1.066c-0.101,-0.1 -0.137,-0.098 -0.137,0.007c0,0.079 -0.401,0.42 -0.891,0.757c-0.851,0.586 -2.859,2.103 -11.157,8.431c-2.039,1.555 -4.116,3.12 -4.615,3.478c-0.575,0.413 -0.883,0.712 -0.842,0.819c0.045,0.119 0.399,-0.088 1.193,-0.696c0.62,-0.475 1.875,-1.42 2.788,-2.099l-0,0Zm18.776,0.805c-0.028,-0.187 -0.052,-0.063 -0.053,0.275c-0.001,0.338 0.022,0.491 0.051,0.34c0.029,-0.152 0.03,-0.428 0.002,-0.615l0,-0Zm-34.165,-0.593c-0.075,-0.266 -0.162,-0.413 -0.193,-0.325c-0.056,0.158 0.207,0.933 0.288,0.852c0.023,-0.023 -0.02,-0.26 -0.095,-0.527Zm0.896,-0.146c0.948,-0.773 0.897,-0.693 0.775,-1.236l-0.114,-0.505l-0.584,0.426c-0.52,0.379 -0.584,0.477 -0.584,0.896c0,0.411 0.072,0.634 0.204,0.634c0.022,-0 0.158,-0.097 0.303,-0.215Zm2.268,-0.692c-0.437,-0.438 -0.566,-0.674 -0.689,-1.261c-0.128,-0.609 -0.17,-0.682 -0.268,-0.465c-0.204,0.451 0.093,1.197 0.701,1.757c0.733,0.676 0.939,0.651 0.256,-0.031l0,-0Zm1.16,-1.306c0.564,-0.476 0.414,-0.476 -0.185,-0c-0.255,0.203 -0.415,0.367 -0.355,0.365c0.06,-0.002 0.303,-0.166 0.54,-0.365Zm-0.615,-0.089c0,0.04 0.484,-0.282 1.076,-0.714c1.804,-1.318 2.259,-1.682 2.192,-1.749c-0.036,-0.035 -0.246,0.074 -0.468,0.243c-0.589,0.449 -2.431,1.695 -2.431,1.644c-0,-0.024 0.318,-0.281 0.707,-0.572c0.389,-0.291 1.025,-0.772 1.413,-1.068c0.389,-0.296 0.762,-0.504 0.83,-0.462c0.136,0.084 0.165,-0.18 0.052,-0.474c-0.058,-0.151 -0.182,-0.106 -0.646,0.234c-2.525,1.85 -3.289,2.432 -3.356,2.556c-0.043,0.079 -0.028,0.275 0.033,0.437c0.107,0.284 0.119,0.286 0.354,0.073c0.134,-0.121 0.244,-0.188 0.244,-0.148l0,-0Zm35.347,-0.034c0.05,-0.081 -0.824,-0.118 -2.544,-0.107c-1.474,0.009 -2.431,0.056 -2.189,0.107c0.673,0.141 4.646,0.141 4.733,-0Zm-33.979,-0.461c0.153,-0.195 0.149,-0.2 -0.046,-0.047c-0.205,0.161 -0.27,0.262 -0.169,0.262c0.025,-0 0.122,-0.097 0.215,-0.215l0,-0Zm0.652,-0.511c-0.032,-0.032 -0.154,0.041 -0.271,0.163c-0.203,0.212 -0.2,0.214 0.059,0.059c0.149,-0.09 0.244,-0.189 0.212,-0.222l0,0Zm33.366,-0.054l0.039,-0.327l-5.672,0l0,0.61l2.551,0.033c3.298,0.043 3.036,0.07 3.082,-0.316l0,-0Zm3.25,0.33c-0.085,-0.035 -0.223,-0.035 -0.307,-0c-0.085,0.034 -0.016,0.062 0.153,0.062c0.169,-0 0.239,-0.028 0.154,-0.062Zm-11.588,-0.605c-0.773,-0.249 -2.034,-0.364 -2.138,-0.195c-0.129,0.207 0.608,0.367 1.708,0.37l0.984,0.003l-0.554,-0.178Zm12.203,0.115c0.29,-0.048 0.461,-0.143 0.461,-0.258c-0,-0.125 -0.085,-0.161 -0.277,-0.116c-0.152,0.036 -0.774,0.104 -1.383,0.151c-0.609,0.047 -1.19,0.132 -1.291,0.19c-0.216,0.123 1.787,0.149 2.49,0.033l-0,0Zm-3.904,-0.536c-0.047,-0.076 -1.128,-0.123 -2.835,-0.123c-1.757,0 -2.759,0.045 -2.759,0.123c0,0.079 1.027,0.123 2.835,0.123c1.859,0 2.809,-0.042 2.759,-0.123Zm-29.691,-0.051c-0,-0.028 -0.194,-0.171 -0.431,-0.318c-0.313,-0.193 -0.551,-0.517 -0.873,-1.186c-0.243,-0.506 -0.47,-0.892 -0.503,-0.859c-0.033,0.033 0.025,0.356 0.13,0.717c0.2,0.688 0.744,1.336 1.308,1.56c0.38,0.151 0.369,0.148 0.369,0.086Zm20.962,-0.064c0.342,-0.071 0.398,-0.107 0.184,-0.117c-0.169,-0.009 -0.597,-0.05 -0.952,-0.093c-0.425,-0.051 -0.646,-0.033 -0.646,0.054c0,0.122 0.306,0.225 0.738,0.248c0.101,0.005 0.405,-0.036 0.676,-0.092l-0,-0Zm12.971,-0.007c-0,-0.145 -1.271,-0.145 -1.721,-0c-0.211,0.067 0.01,0.102 0.707,0.11c0.602,0.008 1.014,-0.037 1.014,-0.11Zm-2.152,-0.824c0.447,-0.076 0.464,-0.091 0.185,-0.171c-0.263,-0.075 -0.239,-0.089 0.164,-0.1c0.319,-0.008 0.454,-0.061 0.418,-0.166c-0.055,-0.159 -1.265,-0.167 -2.661,-0.018c-0.926,0.099 -0.569,0.285 0.603,0.314l0.922,0.023l-0.799,0.081l-0.799,0.08l0.738,0.02c0.406,0.011 0.959,-0.017 1.229,-0.063l0,-0Zm-5.809,-0.119c-0.084,-0.034 -0.223,-0.034 -0.307,0c-0.085,0.035 -0.016,0.062 0.153,0.062c0.169,0 0.239,-0.027 0.154,-0.062Zm-26.417,-0.61c-0.158,-0.313 -0.32,-0.769 -0.36,-1.014c-0.133,-0.821 -0.284,-1 -0.294,-0.349c-0.01,0.727 0.512,1.812 0.928,1.928c0.008,0.002 -0.115,-0.252 -0.274,-0.565Zm23.559,0.31c-0.237,-0.051 -0.915,-0.132 -1.507,-0.179c-0.907,-0.072 -1.075,-0.057 -1.075,0.097c-0,0.143 0.203,0.187 0.949,0.207c0.523,0.014 0.963,0.038 0.978,0.053c0.015,0.015 0.265,0.002 0.556,-0.028l0.529,-0.055l-0.43,-0.095Zm4.916,0.04c-0.008,-0.334 -0.26,-0.413 -1.314,-0.408c-1.172,0.006 -1.512,0.074 -1.512,0.302c-0,0.096 0.451,0.149 1.414,0.168c0.777,0.015 1.413,-0.013 1.412,-0.062l-0,0Zm-39.408,-0.615c-0.094,-0.188 -0.245,-0.632 -0.336,-0.987c-0.183,-0.717 -0.335,-0.72 -0.335,-0.007c-0,0.347 0.098,0.579 0.381,0.902c0.461,0.524 0.514,0.541 0.29,0.092Zm11.433,-0.386c-0.162,-0.4 -0.331,-0.953 -0.375,-1.229c-0.045,-0.276 -0.129,-0.502 -0.188,-0.502c-0.177,0 -0.121,0.797 0.091,1.307c0.189,0.452 0.628,1.152 0.724,1.152c0.024,0 -0.089,-0.327 -0.252,-0.728Zm4.133,0.601c0.131,-0.07 0.238,-0.212 0.238,-0.314c-0,-0.167 -0.031,-0.166 -0.274,0.004c-0.15,0.105 -0.468,0.192 -0.707,0.193c-0.325,0.002 -0.387,0.032 -0.249,0.122c0.242,0.156 0.695,0.154 0.992,-0.005Zm-3.13,-0.35c-0.328,-0.362 -0.69,-1.435 -0.69,-2.045c0,-0.599 -0.193,-0.743 -0.319,-0.238c-0.106,0.422 0.034,1.228 0.283,1.632c0.279,0.451 0.805,1.016 0.877,0.943c0.033,-0.032 -0.035,-0.164 -0.151,-0.292Zm-10.673,-0.23c-0.401,-0.428 -0.668,-0.958 -0.777,-1.54c-0.098,-0.52 -0.305,-0.497 -0.305,0.033c0,0.538 0.184,0.912 0.687,1.401c0.532,0.517 0.863,0.606 0.395,0.106l0,0Zm32.555,-0.193c0.007,-0.08 0.022,-0.273 0.032,-0.43c0.014,-0.221 0.08,-0.276 0.295,-0.246c0.241,0.034 0.272,0.102 0.243,0.531c-0.032,0.461 -0.023,0.477 0.153,0.253c0.104,-0.131 0.189,-0.325 0.19,-0.43c0.001,-0.164 0.018,-0.166 0.115,-0.013c0.062,0.098 0.086,0.223 0.052,0.276c-0.033,0.054 -0.024,0.157 0.021,0.229c0.125,0.203 0.548,-0.244 0.548,-0.58c-0,-0.304 0.302,-0.403 0.411,-0.134c0.042,0.104 0.095,0.112 0.164,0.024c0.055,-0.07 0.281,-0.141 0.501,-0.155c0.327,-0.022 0.399,0.018 0.399,0.221c0,0.136 0.056,0.248 0.123,0.248c0.068,-0 0.123,-0.112 0.123,-0.249c0,-0.21 0.072,-0.245 0.461,-0.225c0.254,0.013 0.544,0.001 0.646,-0.028c0.13,-0.036 0.175,0.03 0.155,0.225c-0.016,0.152 0.021,0.277 0.083,0.277c0.063,-0 0.131,-0.125 0.153,-0.277c0.037,-0.261 0.103,-0.279 1.168,-0.312l1.129,-0.035l0.05,0.404c0.05,0.403 0.05,0.403 0.07,-0.057c0.018,-0.426 0.048,-0.461 0.388,-0.461c0.264,-0 0.373,0.061 0.383,0.215c0.014,0.205 0.017,0.205 0.071,0c0.031,-0.118 0.135,-0.215 0.231,-0.215c0.097,-0 0.176,-0.042 0.176,-0.092c-0,-0.051 -2.061,-0.088 -4.58,-0.082c-5.491,0.014 -5.625,0.018 -5.625,0.174c0,0.068 0.083,0.123 0.185,0.123c0.129,-0 0.184,0.13 0.184,0.437c0,0.241 0.046,0.41 0.103,0.375c0.056,-0.035 0.076,-0.246 0.044,-0.469c-0.057,-0.4 -0.054,-0.402 0.194,-0.18c0.238,0.212 0.255,0.212 0.294,0.009c0.039,-0.206 0.052,-0.206 0.257,-0.001c0.118,0.118 0.215,0.387 0.215,0.596c-0,0.347 0.163,0.393 0.195,0.054l-0,0Zm1.367,-0.452c-0.035,-0.135 -0.014,-0.246 0.047,-0.246c0.062,-0 0.112,0.111 0.112,0.246c-0,0.135 -0.021,0.246 -0.047,0.246c-0.026,-0 -0.076,-0.111 -0.112,-0.246l0,-0Zm-2.096,0.215c-0.034,-0.085 -0.062,-0.015 -0.062,0.154c0,0.169 0.028,0.238 0.062,0.153c0.034,-0.084 0.034,-0.223 0,-0.307Zm6.397,-0.307c-0.031,-0.119 -0.056,-0.022 -0.056,0.215c-0,0.236 0.025,0.333 0.056,0.215c0.031,-0.118 0.031,-0.312 -0,-0.43Zm0.984,0.125c-0.031,-0.12 -0.059,-0.052 -0.061,0.151c-0.003,0.203 0.023,0.301 0.056,0.218c0.034,-0.084 0.036,-0.25 0.005,-0.369l-0,-0Zm-24.126,-0.152c0.107,-0.089 0.18,-0.176 0.161,-0.194c-0.018,-0.017 -0.421,0.073 -0.894,0.201l-0.861,0.231l0.7,-0.038c0.385,-0.021 0.787,-0.112 0.894,-0.2l0,-0Zm-2.131,-0.194c-0.445,-0.374 -0.961,-1.392 -1.073,-2.115c-0.126,-0.812 -0.383,-0.641 -0.307,0.203c0.046,0.508 0.593,1.436 1.081,1.834c0.257,0.211 0.513,0.384 0.569,0.387c0.056,0.002 -0.066,-0.137 -0.27,-0.309Zm-14.563,-0.079c-0.039,-0.098 -0.068,-0.069 -0.074,0.074c-0.005,0.13 0.024,0.202 0.065,0.162c0.041,-0.041 0.045,-0.147 0.009,-0.236l0,-0Zm1.813,-0.315c-0.09,-0.254 -0.167,-0.644 -0.17,-0.868c-0.003,-0.239 -0.056,-0.376 -0.128,-0.331c-0.206,0.127 -0.137,0.836 0.121,1.26c0.321,0.526 0.379,0.506 0.177,-0.061l0,-0Zm11.064,-0.369c-0.16,-0.389 -0.296,-0.845 -0.302,-1.014l-0.012,-0.308l-0.133,0.278c-0.168,0.347 0.031,1.085 0.398,1.479c0.139,0.149 0.273,0.272 0.296,0.272c0.024,-0 -0.088,-0.318 -0.247,-0.707l-0,-0Zm5.424,-1.021c0.045,-0.073 0.052,-0.162 0.016,-0.199c-0.086,-0.086 -1.926,1.299 -1.926,1.45c0,0.127 1.778,-1.037 1.91,-1.251l-0,0Zm-15.73,1.131c-0.102,-0.165 0.408,-0.582 2.041,-1.669c1.168,-0.777 1.513,-1.068 1.513,-1.276c0,-0.148 -0.038,-0.283 -0.086,-0.3c-0.124,-0.045 -3.787,2.627 -3.787,2.761c0,0.151 0.238,0.589 0.319,0.589c0.036,0 0.036,-0.047 -0,-0.105Zm0.532,-0.19c0.078,-0.094 0.807,-0.599 1.619,-1.121c0.812,-0.522 1.453,-0.973 1.423,-1.002c-0.029,-0.03 -0.682,0.343 -1.451,0.828c-1.372,0.866 -2.138,1.467 -1.87,1.467c0.075,0 0.2,-0.077 0.279,-0.172Zm34.743,-0.07c0.71,-0.073 0.764,-0.092 0.307,-0.11c-0.592,-0.023 -2.546,-0.305 -3.105,-0.448c-0.264,-0.068 -0.338,-0.044 -0.338,0.111c0,0.152 -0.126,0.197 -0.553,0.197c-0.669,0 -0.739,0.212 -0.092,0.28c0.771,0.08 2.868,0.064 3.781,-0.03l-0,0Zm3.995,-0.127c0,-0.157 -1.231,-0.157 -1.475,0c-0.129,0.084 0.064,0.12 0.645,0.121c0.473,0.002 0.83,-0.051 0.83,-0.121Zm-26.07,-1.652c0.097,-0.118 0.108,-0.192 0.028,-0.192c-0.072,0 -0.166,0.057 -0.208,0.125c-0.081,0.131 -1.212,0.736 -1.376,0.736c-0.051,-0 0.127,-0.146 0.396,-0.325c0.636,-0.422 1.033,-0.784 1.197,-1.089c0.118,-0.22 0.11,-0.228 -0.073,-0.077c-0.264,0.218 -0.265,0.04 -0.001,-0.252c0.304,-0.336 0.043,-0.272 -0.64,0.157c-1.174,0.737 -1.315,0.985 -1.029,1.805l0.132,0.379l0.707,-0.538c0.389,-0.296 0.779,-0.624 0.867,-0.729l-0,-0Zm24.103,0.77c0.794,-0.017 0.603,-0.043 -0.799,-0.107c-1.014,-0.046 -2.467,-0.128 -3.227,-0.181c-1.186,-0.083 -1.384,-0.071 -1.384,0.086c0,0.101 0.042,0.227 0.093,0.28c0.05,0.054 1.032,0.063 2.182,0.021c1.15,-0.042 2.56,-0.087 3.135,-0.099l0,0Zm-19.971,-0.663c0.224,-0.182 0.208,-0.189 -0.254,-0.124c-0.27,0.037 -0.602,0.07 -0.737,0.072c-0.204,0.002 -0.215,0.023 -0.062,0.122c0.279,0.18 0.785,0.146 1.053,-0.07l-0,-0Zm19.08,-0.206c1.039,0.003 1.875,-0.043 1.875,-0.105c-0,-0.122 -4.686,-0.153 -5.132,-0.034c-0.568,0.153 -0.12,0.312 0.627,0.223c0.415,-0.05 1.599,-0.087 2.63,-0.084l-0,0Zm-29.477,-0.216c0,-0.067 -0.124,-0.122 -0.276,-0.121c-0.224,0.001 -0.242,0.025 -0.093,0.121c0.239,0.154 0.369,0.154 0.369,0Zm0.436,-0.131c0.132,-0.214 -0.019,-0.259 -0.187,-0.056c-0.097,0.117 -0.107,0.187 -0.025,0.187c0.072,0 0.167,-0.059 0.212,-0.131l-0,0Zm11.89,0.05c-0.085,-0.034 -0.223,-0.034 -0.308,-0c-0.084,0.034 -0.015,0.062 0.154,0.062c0.169,-0 0.238,-0.028 0.154,-0.062Zm-14.463,-0.503c-0.163,-0.253 -0.361,-0.668 -0.441,-0.922c-0.08,-0.253 -0.175,-0.461 -0.211,-0.461c-0.036,0 -0.028,0.208 0.018,0.461c0.09,0.497 0.607,1.383 0.808,1.383c0.067,0 -0.011,-0.207 -0.174,-0.461l0,0Zm3.707,-0.945c0.418,-0.266 0.738,-0.507 0.711,-0.534c-0.081,-0.081 -1.706,1.016 -1.973,1.333c-0.246,0.291 -0.246,0.291 0.127,-0.012c0.205,-0.166 0.716,-0.521 1.135,-0.787Zm21.13,0.685c-0.185,-0.193 -0.471,-0.677 -0.635,-1.075l-0.297,-0.724l-0.003,0.598c-0.003,0.533 0.049,0.651 0.474,1.076c0.547,0.547 0.977,0.664 0.461,0.125l0,0Zm4.117,-0.57c0.261,-0.567 0.296,-1.477 0.085,-2.18c-0.293,-0.979 -1.697,-2.176 -2.558,-2.18c-0.46,-0.002 -1.519,0.533 -1.825,0.921c-0.332,0.422 -0.241,0.562 0.136,0.208c0.583,-0.548 1.558,-0.779 2.22,-0.527c0.464,0.177 1.178,0.856 1.441,1.371c0.412,0.807 0.439,1.671 0.081,2.558c-0.292,0.722 -0.295,0.756 -0.058,0.546c0.139,-0.124 0.354,-0.446 0.478,-0.717l0,0Zm-28.537,0.146c-0.181,-0.359 -0.362,-0.779 -0.403,-0.934c-0.04,-0.155 -0.13,-0.246 -0.2,-0.203c-0.152,0.094 -0.01,0.513 0.43,1.268c0.436,0.746 0.566,0.647 0.173,-0.131Zm11.857,0.552c-0.385,-0.333 -1.162,-0.892 -1.162,-0.837c0,0.078 1.11,0.938 1.211,0.938c0.037,0 0.015,-0.045 -0.049,-0.101l0,0Zm3.756,-0.144c0.136,-0.136 0.246,-0.306 0.246,-0.378c0,-0.073 -0.087,-0.045 -0.193,0.061c-0.627,0.627 -2.695,0.203 -4.127,-0.847c-0.899,-0.658 -2.547,-3.315 -2.94,-4.738c-0.221,-0.804 -0.222,-2.486 -0,-2.778c0.166,-0.219 0.164,-0.222 -0.04,-0.036c-0.347,0.316 -0.51,1.709 -0.326,2.795c0.512,3.031 3.771,6.124 6.489,6.158c0.489,0.006 0.705,-0.051 0.891,-0.237l0,-0Zm15.844,-0.989c-0.197,-0.622 -0.238,-1.001 -0.191,-1.747c0.068,-1.057 -0.059,-1.156 -0.283,-0.22c-0.11,0.458 -0.113,0.77 -0.01,1.249c0.121,0.563 0.609,1.639 0.702,1.546c0.019,-0.019 -0.079,-0.392 -0.218,-0.828l0,-0Zm-30.659,0.251c-0.054,-0.171 -0.022,-0.246 0.105,-0.246c0.188,-0 2.104,-1.27 2.235,-1.481c0.119,-0.193 -0.024,-0.136 -0.582,0.231c-1.024,0.674 -1.432,0.888 -1.495,0.785c-0.036,-0.058 0.112,-0.206 0.328,-0.329c0.216,-0.123 0.676,-0.434 1.023,-0.691c0.532,-0.394 0.62,-0.516 0.569,-0.782c-0.077,-0.403 -0.153,-0.396 -0.584,0.054c-0.195,0.203 -0.403,0.369 -0.462,0.369c-0.059,-0 -0.296,0.143 -0.525,0.318c-0.229,0.175 -0.473,0.283 -0.542,0.24c-0.151,-0.093 -0.699,0.248 -0.794,0.495c-0.127,0.332 0.384,1.283 0.69,1.283c0.062,-0 0.077,-0.111 0.034,-0.246l0,-0Zm-0.184,-0.561c-0,-0.105 0.056,-0.157 0.125,-0.114c0.068,0.042 0.093,0.129 0.054,0.192c-0.105,0.17 -0.179,0.138 -0.179,-0.078l-0,0Zm14.499,0.504c0.319,-0.165 0.611,-0.565 0.404,-0.553c-0.123,0.007 -0.961,0.733 -0.846,0.733c0.052,-0 0.25,-0.081 0.442,-0.18Zm9.713,-0.219c-0.155,-0.538 -0.152,-0.542 0.141,-0.17c0.236,0.3 0.482,0.338 0.482,0.075c0,-0.211 -0.539,-0.613 -0.822,-0.613c-0.346,0 -0.346,-0.003 -0.026,0.611c0.312,0.6 0.377,0.628 0.225,0.097l-0,0Zm1.172,-0.737c-0.316,-0.731 -0.533,-0.954 -0.93,-0.954c-0.494,-0 -0.523,0.165 -0.073,0.415c0.216,0.119 0.559,0.428 0.761,0.685c0.203,0.258 0.392,0.448 0.419,0.423c0.028,-0.025 -0.052,-0.281 -0.177,-0.569Zm10.843,0.454c0.106,-0.278 0.011,-0.292 -0.235,-0.035c-0.182,0.19 -0.186,0.225 -0.026,0.225c0.103,0 0.221,-0.085 0.261,-0.19l-0,0Zm-18.785,-2.394c3.631,-2.414 4.565,-3.098 4.565,-3.342c0,-0.162 -0.903,0.37 -2.336,1.376c-0.642,0.451 -1.887,1.31 -2.766,1.908c-1.354,0.922 -2.241,1.566 -3.252,2.361c-0.108,0.085 -0.13,0.152 -0.05,0.154c0.077,0.002 1.805,-1.103 3.839,-2.457l0,0Zm8.389,1.624c-0.27,-0.528 -0.9,-1.11 -0.972,-0.896c-0.044,0.134 1.09,1.521 1.175,1.436c0.026,-0.026 -0.065,-0.269 -0.203,-0.54Zm7.765,-0.3c0.046,-0.444 0.02,-0.584 -0.108,-0.584c-0.124,-0 -0.17,0.187 -0.17,0.701c0,0.823 0.187,0.744 0.278,-0.117Zm-26.576,-0.473c-0.528,-1.132 -0.695,-1.673 -0.946,-3.062l-0.166,-0.922l0.038,1.237c0.032,1.033 0.093,1.356 0.373,1.967c0.363,0.793 1.061,1.936 1.136,1.861c0.026,-0.026 -0.17,-0.512 -0.435,-1.081Zm25.684,0.872c0.072,-0.135 0.115,-0.252 0.096,-0.261c-0.019,-0.008 -0.407,-0.03 -0.863,-0.049c-0.77,-0.032 -0.819,-0.019 -0.707,0.191c0.079,0.147 0.25,0.222 0.492,0.215c0.204,-0.006 0.406,0.026 0.451,0.07c0.154,0.155 0.4,0.078 0.531,-0.166l-0,0Zm1.721,-0.095c-0,-0.192 0.11,-0.436 0.251,-0.557c0.31,-0.266 0.209,-0.48 -0.163,-0.343c-0.219,0.081 -0.28,0.212 -0.31,0.671c-0.023,0.342 0.014,0.57 0.092,0.57c0.071,0 0.13,-0.153 0.13,-0.341Zm1.252,-0.335c0.032,-0.406 0.088,-0.499 0.323,-0.532c0.309,-0.044 0.307,-0.239 -0.004,-0.436c-0.369,-0.232 -0.587,0.12 -0.587,0.946c-0,0.827 0.203,0.844 0.268,0.022l-0,0Zm-28.033,-1.398c-0.342,-0.81 -0.659,-1.671 -0.704,-1.913c-0.046,-0.243 -0.14,-0.477 -0.21,-0.52c-0.187,-0.115 -0.005,1.087 0.275,1.825c0.242,0.636 1.138,2.203 1.216,2.125c0.025,-0.025 -0.235,-0.707 -0.577,-1.517Zm25.183,1.091c-0,-0.219 -0.082,-0.246 -0.734,-0.246c-0.607,-0 -0.756,0.042 -0.865,0.246c-0.126,0.235 -0.093,0.246 0.734,0.246c0.783,-0 0.865,-0.024 0.865,-0.246Zm-29.568,-0.488c-0.102,-0.29 -0.186,-0.658 -0.186,-0.819c0,-0.16 -0.055,-0.292 -0.122,-0.292c-0.233,0 -0.129,0.899 0.15,1.307c0.151,0.22 0.29,0.384 0.309,0.365c0.019,-0.019 -0.049,-0.272 -0.151,-0.561Zm1.09,-0.317c-0.161,-0.443 -0.292,-1.027 -0.292,-1.298c0,-0.55 -0.184,-0.548 -0.305,0.004c-0.107,0.486 0.122,1.271 0.504,1.724c0.173,0.206 0.331,0.375 0.35,0.375c0.019,-0 -0.096,-0.362 -0.257,-0.805l0,-0Zm24.809,-0.729c-0.262,-0.56 -0.521,-0.899 -0.901,-1.178c-0.793,-0.585 -1.723,-0.979 -2.46,-1.043l-0.655,-0.057l0.68,0.157c1.361,0.314 2.637,1.347 3.256,2.636c0.26,0.539 0.379,0.691 0.407,0.517c0.022,-0.135 -0.125,-0.6 -0.327,-1.032l-0,0Zm-28.85,0.038c-0.5,-0.957 -0.911,-1.578 -1.044,-1.578c-0.163,0 -0.034,0.302 0.527,1.23c0.568,0.939 0.715,1.133 0.795,1.053c0.033,-0.033 -0.092,-0.35 -0.278,-0.705Zm4.676,-0.552c-0.114,-0.606 -0.358,-0.381 -0.26,0.238c0.044,0.272 0.119,0.556 0.167,0.63c0.126,0.193 0.186,-0.371 0.093,-0.868Zm22.827,0.302c-0.94,-1.366 -3.292,-1.558 -4.378,-0.357c-0.129,0.142 -0.177,0.259 -0.107,0.259c0.069,-0 0.194,-0.081 0.276,-0.18c0.082,-0.099 0.462,-0.298 0.845,-0.442c1.156,-0.435 2.104,-0.192 3.106,0.797c0.297,0.292 0.559,0.515 0.583,0.494c0.023,-0.02 -0.123,-0.277 -0.325,-0.571Zm5.138,0.511c0,-0.075 -0.231,-0.117 -0.553,-0.1c-0.304,0.015 -0.553,0.073 -0.553,0.128c-0,0.055 0.249,0.1 0.553,0.1c0.305,0 0.553,-0.058 0.553,-0.128Zm-31.788,-0.745c-0.414,-0.818 -0.934,-1.608 -1.008,-1.534c-0.031,0.031 0.234,0.559 0.589,1.174c0.692,1.199 0.962,1.431 0.419,0.36Zm-6.341,0.002c-0.172,-0.516 -0.353,-0.737 -0.353,-0.433c0,0.218 0.382,0.963 0.455,0.89c0.021,-0.021 -0.025,-0.227 -0.102,-0.457Zm10.548,-0.02c-0.034,-0.085 -0.062,-0.016 -0.062,0.153c-0,0.169 0.028,0.238 0.062,0.154c0.034,-0.085 0.034,-0.223 -0,-0.307Zm-8.742,0.102c0.131,-0.096 0.201,-0.211 0.156,-0.256c-0.044,-0.045 -0.197,0.033 -0.337,0.174c-0.292,0.292 -0.177,0.344 0.181,0.082Zm36.323,-0.008c0,-0.093 -0.862,-1.416 -0.922,-1.416c-0.03,-0 0,0.146 0.068,0.324c0.156,0.41 0.061,0.513 -0.23,0.249c-0.342,-0.31 -0.394,-0.249 -0.219,0.257c0.122,0.352 0.244,0.479 0.517,0.539c0.467,0.101 0.786,0.121 0.786,0.047l0,0Zm-37.131,-0.385l0.485,-0.321l-0.196,-0.386c-0.107,-0.212 -0.212,-0.404 -0.231,-0.426c-0.067,-0.077 -0.681,0.383 -0.795,0.595c-0.095,0.178 0.077,0.854 0.219,0.858c0.018,0.001 0.251,-0.143 0.518,-0.32Zm-0.49,-0.223c-0,-0.197 0.325,-0.562 0.5,-0.562c0.193,-0 0.127,0.319 -0.11,0.534c-0.276,0.25 -0.39,0.258 -0.39,0.028l-0,-0Zm6.082,-0.465c-0.435,-1.032 -0.795,-1.571 -0.795,-1.19c-0,0.262 1.027,2.199 1.166,2.199c0.03,0 -0.137,-0.454 -0.371,-1.009Zm7.991,0.647c0.04,-0.065 0.859,-0.655 1.821,-1.312c1.701,-1.162 2.451,-1.687 5.13,-3.598c1.25,-0.892 2.291,-1.736 2.139,-1.736c-0.243,0 -4.391,2.702 -5.766,3.756c-0.541,0.414 -1.426,1.047 -1.967,1.405c-0.541,0.359 -1.108,0.764 -1.26,0.902c-0.152,0.137 -0.313,0.212 -0.359,0.167c-0.102,-0.102 -0.185,-0.032 1.117,-0.94c0.939,-0.654 2.843,-2.165 3.369,-2.674c0.089,-0.086 0.23,-0.157 0.313,-0.157c0.083,0 0.439,-0.182 0.792,-0.404c0.497,-0.314 0.608,-0.437 0.494,-0.551c-0.081,-0.081 -0.101,-0.19 -0.046,-0.241c0.055,-0.052 0.126,-0.026 0.156,0.059c0.09,0.252 0.303,0.174 0.222,-0.082c-0.097,-0.304 0.13,-0.448 0.282,-0.178c0.102,0.184 0.133,0.174 0.273,-0.089c0.174,-0.327 0.33,-0.469 0.999,-0.911c0.248,-0.164 0.59,-0.48 0.759,-0.702c0.285,-0.375 0.298,-0.448 0.174,-0.989c-0.074,-0.321 -0.184,-0.584 -0.244,-0.584c-0.061,0 -0.081,0.263 -0.046,0.584c0.035,0.322 0.033,0.474 -0.004,0.338c-0.038,-0.135 -0.119,-0.298 -0.18,-0.362c-0.165,-0.174 -0.135,-0.395 0.082,-0.612c0.107,-0.107 0.141,-0.194 0.076,-0.194c-0.112,0 -0.899,0.522 -2.226,1.476c-0.329,0.236 -1.199,0.858 -1.933,1.382c-0.734,0.523 -1.722,1.231 -2.196,1.573c-1.841,1.329 -1.227,0.596 0.738,-0.881c4.399,-3.306 5.426,-4.128 5.307,-4.246c-0.106,-0.107 -1.287,0.711 -4.847,3.357c-1.899,1.41 -3.543,2.62 -3.653,2.688c-0.467,0.285 -0.554,1.779 -0.176,3.023c0.239,0.788 0.469,1.043 0.66,0.733l0,-0Zm-0.426,-1.083c-0,-0.262 0.324,-0.608 0.451,-0.481c0.042,0.042 -0.02,0.113 -0.136,0.158c-0.142,0.054 -0.166,0.11 -0.074,0.167c0.098,0.061 0.083,0.133 -0.051,0.244c-0.161,0.134 -0.19,0.12 -0.19,-0.088l-0,0Zm0.738,-0.445c-0,-0.093 0.083,-0.239 0.184,-0.323c0.196,-0.162 0.24,-0.042 0.11,0.298c-0.092,0.239 -0.294,0.256 -0.294,0.025Zm0.552,-0.336c0.034,-0.462 0.923,-0.903 0.923,-0.458c-0,0.064 -0.043,0.09 -0.096,0.057c-0.053,-0.032 -0.226,0.103 -0.383,0.301c-0.339,0.425 -0.471,0.455 -0.444,0.1l-0,-0Zm-1.167,-0.402c-0,-0.025 0.097,-0.122 0.215,-0.215c0.195,-0.153 0.199,-0.149 0.046,0.046c-0.16,0.205 -0.261,0.27 -0.261,0.169l-0,0Zm2.141,-0.339c-0.048,-0.078 0.043,-0.24 0.208,-0.368c0.707,-0.548 1.226,-0.877 1.286,-0.816c0.037,0.036 -0.128,0.186 -0.365,0.333c-0.238,0.146 -0.569,0.43 -0.737,0.629c-0.2,0.238 -0.335,0.314 -0.392,0.222Zm-1.158,-0.458c0.305,-0.278 0.913,-0.73 1.353,-1.004c0.439,-0.275 0.935,-0.594 1.101,-0.709c0.166,-0.115 0.26,-0.141 0.208,-0.056c-0.052,0.085 -0.579,0.475 -1.171,0.868c-0.593,0.393 -1.295,0.87 -1.56,1.06c-0.473,0.338 -0.471,0.334 0.069,-0.159l0,-0Zm2.767,-1.001c0.042,-0.067 0.1,-0.123 0.13,-0.123c0.03,0 0.054,0.056 0.054,0.123c0,0.068 -0.058,0.123 -0.13,0.123c-0.072,0 -0.096,-0.055 -0.054,-0.123l-0,0Zm0.492,-0.369c0.123,-0.136 0.25,-0.22 0.283,-0.188c0.082,0.083 -0.224,0.434 -0.379,0.434c-0.07,0 -0.027,-0.111 0.096,-0.246Zm0.964,-0.42c0.028,-0.073 0.112,-0.119 0.188,-0.102c0.076,0.017 0.138,-0.025 0.138,-0.092c0,-0.068 0.083,-0.123 0.185,-0.123c0.101,-0 0.184,0.055 0.184,0.123c0,0.067 -0.083,0.123 -0.184,0.123c-0.102,-0 -0.185,0.046 -0.185,0.102c0,0.056 -0.084,0.103 -0.187,0.103c-0.104,-0 -0.166,-0.06 -0.139,-0.134Zm-1.21,-0.316c0.135,-0.151 0.605,-0.506 1.045,-0.79c0.886,-0.571 1.333,-0.818 0.864,-0.477c-1.474,1.072 -2.116,1.499 -1.909,1.267Zm-16.17,4.333c-0.006,-0.293 -0.346,-1.025 -0.42,-0.905c-0.106,0.171 0.15,0.997 0.309,0.997c0.062,-0 0.112,-0.042 0.111,-0.092Zm34.64,-0.474c-0.041,-0.041 -0.147,-0.045 -0.236,-0.01c-0.098,0.039 -0.069,0.068 0.074,0.074c0.13,0.006 0.203,-0.023 0.162,-0.064Zm-1.128,-0.412c0.537,-0.199 0.861,-0.365 0.719,-0.369c-0.274,-0.006 -1.499,0.387 -1.861,0.598c-0.443,0.258 0.154,0.138 1.142,-0.229Zm-2.277,-0.12c-0.159,-0.298 -0.689,-0.679 -1.379,-0.992c-0.611,-0.277 -1.883,-0.327 -2.753,-0.108c-0.704,0.177 -0.836,0.367 -0.144,0.206c1.088,-0.252 2.904,0.148 3.718,0.818c0.46,0.379 0.741,0.417 0.558,0.076Zm-30.139,-0.088c0.131,-0.112 0.208,-0.278 0.173,-0.369c-0.035,-0.092 -0.002,-0.166 0.072,-0.166c0.075,-0 0.136,-0.09 0.136,-0.199c0,-0.197 -0.082,-0.196 -0.676,0.01c-0.242,0.084 -0.242,0.083 -0.007,-0.109c0.131,-0.107 0.311,-0.194 0.4,-0.194c0.088,-0 0.161,-0.056 0.161,-0.123c-0,-0.068 -0.108,-0.123 -0.239,-0.123c-0.26,-0 -0.629,0.434 -0.562,0.659c0.023,0.077 0.076,0.292 0.116,0.478c0.087,0.396 0.113,0.404 0.426,0.136l0,-0Zm31.252,-0.231c-0.009,-0.156 -1.685,-1.016 -2.162,-1.11c-0.313,-0.061 -0.292,-0.035 0.141,0.171c0.281,0.134 0.806,0.442 1.167,0.685c0.639,0.43 0.869,0.499 0.854,0.254Zm-28.816,-0.276c-0.11,-0.121 -0.353,-0.55 -0.541,-0.954c-0.26,-0.558 -0.351,-0.67 -0.382,-0.466c-0.022,0.148 0.053,0.452 0.166,0.676c0.232,0.459 0.805,1.113 0.896,1.022c0.032,-0.032 -0.03,-0.158 -0.139,-0.278Zm4.093,-2.579c0.164,-0.165 0.163,-0.174 -0.008,-0.078c-0.423,0.238 -2.659,1.788 -3.004,2.083c-0.203,0.173 0.35,-0.166 1.229,-0.753c0.879,-0.586 1.681,-1.15 1.783,-1.252l-0,-0Zm26.528,1.782c-0.392,-0.37 -0.618,-0.719 -0.775,-1.199c-0.256,-0.784 -0.405,-0.616 -0.176,0.2c0.226,0.806 0.781,1.522 1.182,1.522c0.313,-0 0.306,-0.017 -0.231,-0.523Zm-1.158,-0.123c-0.461,-0.752 -0.658,-0.974 -0.658,-0.742c0,0.135 0.136,0.392 0.302,0.571c0.314,0.338 0.519,0.437 0.356,0.171Zm-29.284,-0.192c0.044,-0.108 0.997,-0.844 2.289,-1.769c1.081,-0.773 1.374,-1.088 1.27,-1.366c-0.073,-0.194 -0.251,-0.106 -1.371,0.678c-0.707,0.495 -1.553,1.104 -1.878,1.352c-0.325,0.249 -0.657,0.474 -0.736,0.5c-0.11,0.037 -0.109,0.127 0.005,0.377c0.146,0.322 0.34,0.427 0.421,0.228l0,0Zm1.455,-0.635c0.575,-0.35 1.128,-0.724 1.229,-0.832c0.104,-0.109 -0.004,-0.076 -0.246,0.075c-0.236,0.149 -0.801,0.491 -1.254,0.76c-0.453,0.27 -0.862,0.553 -0.91,0.63c-0.048,0.077 -0.037,0.11 0.025,0.072c0.061,-0.037 0.581,-0.354 1.156,-0.705l-0,0Zm18.83,-0.947c-1.017,-1.275 -2.215,-4.381 -2.248,-5.828c-0.01,-0.45 -0.063,-0.693 -0.14,-0.645c-0.196,0.121 -0.017,2.214 0.268,3.124c0.262,0.837 1.325,2.649 2.014,3.433c0.512,0.584 0.59,0.522 0.106,-0.084Zm1.544,-0.146c-1.639,-1.753 -2.89,-4.508 -2.932,-6.46l-0.016,-0.748l-0.129,0.675c-0.292,1.53 0.533,4.086 1.829,5.667c0.533,0.649 1.658,1.623 1.759,1.522c0.029,-0.03 -0.201,-0.325 -0.511,-0.656l0,-0Zm6,-0.103c0.269,-0.183 0.971,-0.615 1.56,-0.959c1.357,-0.795 7.964,-5.255 7.965,-5.378c0.003,-0.239 -0.569,-0.04 -1.381,0.48c-1.275,0.817 -6.332,4.303 -6.917,4.768c-0.27,0.216 -0.819,0.624 -1.218,0.907c-0.794,0.562 -0.802,0.721 -0.009,0.182l0,-0Zm-24.108,-0.393c-0.032,-0.032 -0.154,0.041 -0.271,0.163c-0.203,0.212 -0.2,0.214 0.059,0.059c0.149,-0.09 0.244,-0.189 0.212,-0.222l-0,0Zm0.933,-0.867c-0.137,-0.268 -0.248,-0.597 -0.248,-0.731c-0,-0.299 -0.224,-0.46 -0.314,-0.225c-0.089,0.231 0.15,0.828 0.466,1.166c0.363,0.387 0.381,0.348 0.096,-0.21Zm0.244,-0.686c-0.197,-0.403 -0.36,-0.67 -0.363,-0.594c-0.011,0.251 0.598,1.448 0.69,1.357c0.016,-0.017 -0.131,-0.36 -0.327,-0.763Zm16.804,0.412c-0.039,-0.098 -0.068,-0.069 -0.074,0.074c-0.006,0.13 0.024,0.202 0.064,0.161c0.041,-0.041 0.046,-0.147 0.01,-0.235l0,-0Zm-15.651,-0.491c-0.236,-0.35 -0.492,-0.872 -0.569,-1.16c-0.167,-0.625 -0.397,-0.58 -0.278,0.053c0.158,0.841 0.72,1.622 1.253,1.739c0.012,0.002 -0.171,-0.282 -0.406,-0.632l-0,0Zm2.581,-0.142c-0.008,-0.272 -0.105,-0.559 -0.229,-0.677c-0.202,-0.192 -0.207,-0.188 -0.071,0.077c0.08,0.155 0.11,0.39 0.068,0.523c-0.245,0.771 -1.606,-0.577 -1.512,-1.498l0.038,-0.371l0.537,0.39c0.295,0.214 0.497,0.325 0.448,0.247c-0.137,-0.222 -1.065,-0.863 -1.249,-0.863c-0.1,-0 -0.165,0.135 -0.164,0.338c0.008,0.898 1.198,2.411 1.842,2.339c0.271,-0.03 0.306,-0.089 0.292,-0.505l0,-0Zm14.851,-1.937c0.901,-0.648 2.137,-1.517 2.746,-1.932c1.111,-0.758 2.598,-1.825 4.718,-3.385c0.628,-0.462 1.109,-0.873 1.069,-0.913c-0.039,-0.039 -0.473,0.199 -0.962,0.529c-2.815,1.9 -5.389,3.716 -8.268,5.833c-0.608,0.447 -1.314,0.94 -1.567,1.094c-0.254,0.154 -0.461,0.322 -0.461,0.373c-0,0.245 0.195,0.218 0.62,-0.086c0.256,-0.184 1.203,-0.864 2.105,-1.513Zm-1.431,-0.299c0.34,-0.274 1.999,-1.46 3.688,-2.635c5.551,-3.863 5.837,-4.073 5.837,-4.299c-0,-0.313 -0.735,-1.738 -0.937,-1.815c-0.093,-0.036 -0.433,0.131 -0.754,0.371c-3.19,2.385 -8.168,5.881 -9.282,6.52c-0.431,0.247 -0.584,0.288 -0.584,0.159c-0,-0.194 0.638,-0.792 1.482,-1.39c0.301,-0.213 0.941,-0.684 1.424,-1.046c0.483,-0.361 1.34,-0.989 1.906,-1.395c1.284,-0.921 5.229,-3.894 5.625,-4.238c0.162,-0.141 0.265,-0.285 0.23,-0.32c-0.1,-0.1 -1.155,0.526 -2.368,1.405c-0.609,0.442 -2.684,1.929 -4.611,3.304c-1.927,1.376 -3.607,2.624 -3.734,2.774c-0.202,0.237 -0.223,0.419 -0.167,1.448c0.045,0.832 0.145,1.364 0.338,1.813l0.273,0.635l0.508,-0.397c0.279,-0.218 0.786,-0.621 1.126,-0.894Zm17.578,-2.204c-0.812,-0.253 -1.235,-0.34 -1.128,-0.232c0.173,0.176 0.866,0.391 1.251,0.388c0.346,-0.002 0.338,-0.012 -0.123,-0.156Zm1.825,-0.775c0.031,-0.051 -0.287,-0.103 -0.706,-0.117c-0.431,-0.014 -1.027,-0.133 -1.371,-0.274c-0.499,-0.205 -0.555,-0.211 -0.314,-0.037c0.162,0.117 0.467,0.278 0.676,0.357c0.43,0.163 1.628,0.212 1.715,0.071l-0,0Zm-3.571,-1.436c-0.785,-0.727 -3.111,-3.892 -3.111,-4.234c0,-0.07 -0.075,-0.171 -0.167,-0.225c-0.093,-0.054 -0.251,-0.265 -0.352,-0.467c-0.246,-0.494 -0.946,-2.547 -1.085,-3.181c-0.096,-0.441 -0.103,-0.405 -0.053,0.271c0.15,2.024 1.749,5.15 3.569,6.977c0.465,0.467 1.904,1.649 2.007,1.649c0.025,0.001 -0.339,-0.355 -0.808,-0.79l-0,-0Zm6.842,-1.427c1.424,-0.95 2.588,-1.758 2.588,-1.797c-0,-0.192 -0.629,0.157 -2.235,1.24c-2.754,1.856 -3.34,2.283 -3.133,2.283c0.106,-0 1.357,-0.777 2.78,-1.726Zm-9.377,0.22c-0.446,-0.548 -2.08,-3.648 -2.479,-4.703c-0.128,-0.338 -0.327,-1.002 -0.443,-1.475l-0.21,-0.861l-0.012,0.615c-0.016,0.808 0.381,2.434 0.842,3.451c0.412,0.907 1.187,2.029 2.013,2.911c0.68,0.726 0.86,0.764 0.289,0.062l-0,-0Zm-1.74,-0.579c-0.752,-1.174 -1.391,-2.463 -1.799,-3.632c-0.371,-1.065 -0.48,-1.017 -0.159,0.07c0.419,1.419 1.409,3.305 2.174,4.141c0.41,0.447 0.365,0.328 -0.216,-0.579Zm3.907,0.087c-0.221,-0.244 -1.339,-1.853 -2.445,-3.518c-0.208,-0.313 -0.581,-1.04 -0.828,-1.615c-0.529,-1.231 -0.592,-1.025 -0.121,0.399c0.403,1.22 1.634,3.144 2.715,4.245c0.413,0.421 0.791,0.766 0.84,0.766c0.05,-0 -0.023,-0.125 -0.161,-0.277Zm7.187,-0.679c0.185,-0.157 0.018,-0.082 -0.37,0.168c-0.389,0.249 -0.707,0.476 -0.707,0.505c-0,0.082 0.712,-0.363 1.077,-0.673Zm-13.138,-1.341c-0.463,-1.128 -0.428,-1.07 -0.598,-0.965c-0.089,0.055 -0.033,0.273 0.17,0.658c0.168,0.316 0.396,0.796 0.509,1.067c0.112,0.27 0.229,0.426 0.259,0.347c0.03,-0.08 -0.123,-0.578 -0.34,-1.107Zm5.432,0.283c-0.524,-0.71 -0.608,-0.936 -0.349,-0.939c0.085,-0.001 0.624,-0.334 1.199,-0.739c0.575,-0.405 1.529,-1.074 2.121,-1.487c0.592,-0.412 1.076,-0.802 1.076,-0.867c-0,-0.15 0.038,-0.174 -2.341,1.438c-1.118,0.758 -2.141,1.411 -2.274,1.451c-0.194,0.06 -0.343,-0.077 -0.754,-0.69c-0.618,-0.922 -1.236,-2.323 -1.427,-3.232c-0.155,-0.74 -0.336,-0.885 -0.334,-0.268c0.004,1.151 0.959,3.139 2.207,4.596c0.24,0.278 0.621,0.738 0.848,1.021c0.598,0.746 0.621,0.518 0.028,-0.284l0,-0Zm12.776,-0.322c-0.242,-0.157 -0.527,-0.157 -0.43,-0c0.041,0.067 0.197,0.122 0.345,0.121c0.219,-0.002 0.235,-0.025 0.085,-0.121Zm1.555,-0.453c-0.134,-0.135 -0.94,-0.164 -0.94,-0.034c-0,0.065 0.23,0.118 0.512,0.118c0.282,-0 0.474,-0.038 0.428,-0.084l0,-0Zm-1.097,-0.114c-0.04,-0.04 -0.146,-0.045 -0.235,-0.009c-0.098,0.039 -0.069,0.068 0.074,0.074c0.13,0.005 0.202,-0.024 0.161,-0.065l0,0Zm1.828,-0.99c1.295,-0.837 3.86,-2.682 3.861,-2.777c0.001,-0.251 -0.477,0.027 -2.398,1.393c-1.149,0.818 -2.241,1.566 -2.427,1.663c-0.417,0.218 -0.458,0.456 -0.053,0.302c0.158,-0.06 0.615,-0.321 1.017,-0.581l-0,0Zm-12.969,-2.049c0.852,-0.583 1.615,-1.139 1.694,-1.234c0.113,-0.136 0.089,-0.278 -0.112,-0.649c-0.236,-0.436 -0.21,-0.413 0.208,0.182c0.079,0.112 0.179,0.169 0.221,0.126c0.043,-0.042 -0.156,-0.555 -0.441,-1.139c-0.517,-1.057 -0.52,-1.06 -0.774,-0.831c-0.257,0.23 -2.78,2.029 -3.763,2.682c-0.289,0.192 -0.602,0.405 -0.695,0.473c-0.231,0.167 -0.471,-0.189 -0.253,-0.375c0.084,-0.07 0.373,-0.372 0.643,-0.669l0.492,-0.541l-0.446,0.326c-0.245,0.179 -0.482,0.289 -0.527,0.245c-0.045,-0.045 -0.113,0.04 -0.152,0.189c-0.077,0.293 -0.289,0.374 -0.289,0.111c0,-0.288 0.483,-0.712 1.917,-1.684c0.15,-0.101 0.799,-0.551 1.443,-0.999c0.873,-0.607 1.206,-0.779 1.312,-0.676c0.105,0.104 0.119,0.046 0.053,-0.23c-0.048,-0.203 -0.102,-0.388 -0.121,-0.41c-0.019,-0.023 -1.032,0.683 -2.251,1.569c-1.219,0.885 -2.303,1.643 -2.408,1.683c-0.108,0.042 -0.19,0.219 -0.19,0.413c-0,0.462 0.532,2.059 0.985,2.957l0.371,0.735l0.766,-0.597c0.422,-0.328 1.464,-1.074 2.317,-1.657l-0,-0Zm14.949,-0.112c1.215,-0.82 1.426,-1.084 0.404,-0.507c-0.784,0.443 -3.802,2.653 -3.806,2.786c-0.002,0.055 0.508,-0.264 1.134,-0.708c0.625,-0.445 1.646,-1.151 2.268,-1.571Zm-6.676,0.859c-0.942,-0.98 -1.613,-1.861 -2.409,-3.166c-0.296,-0.485 -1.584,-3.532 -1.377,-3.258c0.101,0.135 0.411,0.633 0.688,1.107c0.478,0.816 1.587,2.302 1.663,2.226c0.019,-0.019 -0.248,-0.556 -0.594,-1.192c-0.821,-1.511 -1.41,-2.97 -0.888,-2.199c0.517,0.763 1.891,2.554 2.077,2.708c0.117,0.097 -0.015,-0.269 -0.303,-0.842c-0.732,-1.457 -1.12,-2.361 -1.012,-2.361c0.052,-0 0.173,0.159 0.27,0.353c0.257,0.516 1.823,2.406 1.916,2.312c0.061,-0.061 -0.279,-0.815 -0.516,-1.144c-0.18,-0.25 -0.16,-0.282 0.443,-0.715c0.651,-0.468 0.977,-0.497 0.977,-0.087c-0,0.129 0.083,0.303 0.184,0.387c0.271,0.225 0.249,-0.216 -0.025,-0.519c-0.172,-0.19 -0.183,-0.275 -0.061,-0.471c0.133,-0.213 0.116,-0.239 -0.159,-0.239c-0.238,-0 -0.308,-0.063 -0.308,-0.277c0,-0.322 -1.1,-2.674 -1.251,-2.674c-0.056,0 -0.102,0.046 -0.102,0.102c0,0.15 -3.471,2.603 -3.684,2.603c-0.127,-0 -0.373,-0.683 -0.372,-1.033c0.001,-0.181 0.229,-0.404 0.766,-0.75c1.247,-0.802 3.013,-2.137 3.089,-2.336c0.039,-0.101 0.121,-0.184 0.182,-0.184c0.138,-0 0.634,1.129 0.634,1.443c0,0.337 0.907,2.145 1.212,2.418c0.398,0.354 0.327,0.129 -0.415,-1.318c-0.374,-0.728 -0.822,-1.68 -0.996,-2.116l-0.317,-0.792l-0.469,0.336c-0.257,0.185 -1.068,0.779 -1.801,1.32c-0.893,0.659 -1.454,0.99 -1.702,1.005c-0.202,0.011 -0.41,0.025 -0.461,0.03c-0.18,0.019 -0.088,1.461 0.154,2.407c0.316,1.237 0.673,2.006 1.523,3.283c0.988,1.484 2.026,2.674 3.309,3.793c0.617,0.537 1.146,0.977 1.175,0.977c0.03,0 -0.439,-0.511 -1.04,-1.137l-0,0Zm-0.836,-6.084c-0.152,-0.152 -0.066,-0.498 0.142,-0.567c0.118,-0.039 0.363,-0.192 0.543,-0.339c0.399,-0.324 0.797,-0.244 0.602,0.121c-0.069,0.129 -0.293,0.293 -0.497,0.364c-0.205,0.071 -0.372,0.182 -0.372,0.246c0,0.143 -0.317,0.276 -0.418,0.175Zm-0.403,-1.22c-0.079,-0.258 -0.125,-0.489 -0.102,-0.512c0.092,-0.092 0.322,0.497 0.285,0.733c-0.027,0.18 -0.078,0.119 -0.183,-0.221Zm-0.312,7.364c-0.389,-0.416 -1.961,-2.638 -2.628,-3.718c-0.561,-0.909 -1.077,-1.981 -1.598,-3.319c-0.414,-1.067 -0.547,-0.848 -0.235,0.386c0.295,1.166 1.298,3.132 2.225,4.364c0.853,1.132 2.39,2.787 2.493,2.683c0.032,-0.032 -0.083,-0.211 -0.257,-0.396Zm7.28,-1.097c0,-0.086 -0.719,0.447 -0.816,0.604c-0.047,0.077 0.117,-0.015 0.365,-0.205c0.248,-0.189 0.451,-0.369 0.451,-0.399Zm-10.123,-0.547c-0.549,-0.844 -1.908,-3.433 -2.509,-4.778c-0.124,-0.278 -0.138,-0.283 -0.146,-0.053c-0.012,0.373 0.542,1.934 0.96,2.705c0.381,0.704 2.245,3.273 2.32,3.198c0.025,-0.024 -0.257,-0.507 -0.625,-1.072l0,-0Zm11.427,-0.373c0.138,-0.224 -0.169,-0.014 -0.935,0.638c-0.169,0.144 -0.047,0.091 0.271,-0.118c0.317,-0.209 0.616,-0.443 0.664,-0.52Zm0.91,-0.392c-0,-0.025 -0.291,-0.24 -0.646,-0.48c-1.738,-1.172 -3.83,-3.708 -5.499,-6.669c-0.828,-1.467 -1.482,-2.788 -1.612,-3.258c-0.215,-0.77 -0.307,-0.279 -0.115,0.61c0.495,2.294 3.378,6.389 6,8.524c1.084,0.883 1.872,1.418 1.872,1.273Zm4.18,-0.448c-0,-0.068 -0.125,-0.124 -0.277,-0.126c-0.434,-0.004 -1.553,-0.509 -2.428,-1.095c-1.257,-0.841 -3.395,-3.076 -4.223,-4.416c-1.021,-1.65 -0.83,-1.85 0.252,-0.264c0.485,0.71 1.085,1.484 1.334,1.721l0.453,0.43l-0.55,-0.812c-0.693,-1.022 -2.309,-3.96 -2.301,-4.184c0.003,-0.092 0.121,0.053 0.264,0.324c0.484,0.918 1.669,2.411 2.53,3.187l0.525,0.474l-0.785,-1.154c-0.827,-1.216 -1.24,-1.942 -1.154,-2.028c0.029,-0.029 0.378,0.322 0.778,0.78c0.399,0.457 1,1.08 1.336,1.384l0.611,0.554l-0.497,-0.615c-0.687,-0.85 -1.336,-1.96 -1.887,-3.229c-0.257,-0.591 -0.766,-1.655 -1.132,-2.365c-0.366,-0.71 -0.774,-1.623 -0.907,-2.029l-0.241,-0.737l-0.037,0.63c-0.027,0.462 0.079,0.988 0.395,1.962c0.237,0.732 0.409,1.353 0.382,1.38c-0.057,0.058 -0.21,-0.299 -0.871,-2.036c-0.264,-0.693 -0.512,-1.26 -0.552,-1.26c-0.112,-0 0.066,1.064 0.369,2.192c0.15,0.563 0.243,1.055 0.205,1.093c-0.039,0.038 -0.094,-0.007 -0.123,-0.102c-0.029,-0.094 -0.265,-0.78 -0.525,-1.523c-0.419,-1.199 -0.477,-1.302 -0.51,-0.909c-0.02,0.245 0.107,1.012 0.283,1.706c0.304,1.199 0.34,1.794 0.062,1.033c-0.071,-0.195 -0.184,-0.493 -0.251,-0.662c-0.067,-0.169 -0.254,-0.778 -0.416,-1.353l-0.295,-1.045l-0.01,0.615c-0.006,0.338 0.099,0.971 0.231,1.407c0.133,0.436 0.221,0.814 0.196,0.839c-0.056,0.056 -0.517,-1.161 -0.759,-2l-0.177,-0.615l0.06,0.799c0.09,1.206 0.734,2.819 1.82,4.559c1.149,1.841 1.666,2.489 3.283,4.117c1.623,1.634 3.085,2.759 4.16,3.201c0.734,0.302 1.379,0.382 1.379,0.172l-0,-0Zm0.867,-0.719c0.537,-0.344 1.101,-0.879 0.926,-0.879c-0.049,-0 -0.265,0.133 -0.48,0.296c-0.215,0.163 -0.662,0.44 -0.993,0.615c-0.485,0.256 -0.544,0.318 -0.301,0.318c0.166,0 0.547,-0.157 0.848,-0.35Zm-22.859,0.012c0.153,-0.195 0.149,-0.199 -0.047,-0.046c-0.118,0.092 -0.215,0.189 -0.215,0.215c0,0.101 0.101,0.036 0.262,-0.169l-0,0Zm22.545,-0.581c0.733,-0.549 0.804,-0.619 0.527,-0.52c-0.315,0.113 -1.449,0.983 -1.449,1.112c-0,0.062 0.068,0.057 0.154,-0.01c0.084,-0.067 0.43,-0.328 0.768,-0.582l-0,0Zm-20.839,-0.627c-0,-0.034 -0.332,0.164 -0.738,0.44c-0.406,0.275 -0.738,0.528 -0.738,0.562c0,0.034 0.332,-0.164 0.738,-0.439c0.406,-0.276 0.738,-0.529 0.738,-0.563Zm8.534,-0.619c0.213,-0.081 0.265,-0.482 0.078,-0.597c-0.118,-0.073 -0.375,0.298 -0.375,0.541c-0,0.152 0.033,0.158 0.297,0.056Zm12.551,-0.213c-2.301,-1.334 -4.846,-3.881 -6.384,-6.389c-0.324,-0.528 -0.612,-0.937 -0.64,-0.91c-0.027,0.028 0.142,0.44 0.377,0.916c0.928,1.877 4.432,5.319 6.647,6.529c0.482,0.264 0.482,0.134 -0,-0.146Zm2.282,-0.587c0.212,-0.397 0.037,-1.197 -0.51,-2.329c-2.026,-4.19 -6.589,-8.837 -9.002,-9.168c-0.724,-0.099 -0.877,0.104 -0.791,1.054c0.144,1.591 2.082,4.678 4.498,7.167c2.251,2.317 3.996,3.53 5.086,3.534c0.466,0.002 0.607,-0.049 0.719,-0.258Zm-1.36,-0.344c-1.612,-0.504 -3.66,-2.283 -5.604,-4.867c-2.048,-2.722 -3.095,-4.991 -2.638,-5.714c0.1,-0.158 0.2,-0.152 0.782,0.046c1.668,0.567 4.381,3.24 6.644,6.546c1.477,2.157 1.931,3.364 1.266,3.364c-0.48,-0 -1.71,-0.693 -2.548,-1.436c-1.219,-1.08 -1.323,-1.155 -0.997,-0.716c0.761,1.024 2.945,2.521 3.678,2.521c0.184,-0 0.279,0.059 0.247,0.153c-0.061,0.188 -0.417,0.232 -0.83,0.103l-0,-0Zm-4.795,-5.543c0,-0.068 -0.059,-0.123 -0.13,-0.123c-0.072,0 -0.096,0.055 -0.054,0.123c0.041,0.068 0.1,0.123 0.13,0.123c0.03,-0 0.054,-0.055 0.054,-0.123l0,-0Zm-4.459,5.01c-0.785,-1.032 -3.354,-5.232 -3.649,-5.967c-0.09,-0.222 -0.185,-0.381 -0.212,-0.354c-0.128,0.128 1.226,2.986 1.932,4.079c0.976,1.512 2.386,3.229 2.67,3.254c0.017,0.001 -0.316,-0.454 -0.741,-1.012Zm-2.873,0.461c-0.039,-0.101 -0.093,-0.184 -0.119,-0.184c-0.027,-0 -0.049,0.083 -0.049,0.184c0,0.102 0.054,0.185 0.119,0.185c0.066,-0 0.088,-0.083 0.049,-0.185Zm-0.168,-0.799c0,-0.068 -0.055,-0.123 -0.123,-0.123c-0.067,0 -0.123,0.055 -0.123,0.123c0,0.068 0.056,0.123 0.123,0.123c0.068,-0 0.123,-0.055 0.123,-0.123Zm-5.979,-0.552c-0.039,-0.1 -0.013,-0.346 0.056,-0.546c0.104,-0.298 0.096,-0.351 -0.049,-0.295c-0.198,0.076 -0.251,1.024 -0.056,1.024c0.066,0 0.088,-0.082 0.049,-0.183Zm2.66,-2.362c-0,-0.082 -0.713,0.363 -1.078,0.673c-0.185,0.157 -0.018,0.082 0.371,-0.168c0.389,-0.249 0.707,-0.477 0.707,-0.505Zm0.345,-0.347c-0.038,-0.038 -0.107,0.03 -0.153,0.151c-0.067,0.175 -0.053,0.19 0.069,0.069c0.084,-0.083 0.122,-0.183 0.084,-0.22Zm0.454,-0.182c0.042,-0.067 0.021,-0.122 -0.047,-0.122c-0.068,-0 -0.157,0.055 -0.199,0.122c-0.042,0.068 -0.021,0.123 0.047,0.123c0.068,0 0.157,-0.055 0.199,-0.123l-0,0Zm-27.379,89.913c0.089,-0.035 0.195,-0.031 0.236,0.01c0.041,0.041 -0.032,0.07 -0.162,0.065c-0.143,-0.006 -0.172,-0.035 -0.074,-0.074l0,-0.001Zm17.42,-0.776c-0.047,-0.077 0.183,-0.123 0.608,-0.123c0.376,-0 0.683,0.055 0.683,0.123c0,0.067 -0.273,0.123 -0.607,0.123c-0.334,-0 -0.642,-0.056 -0.684,-0.123Zm3.135,-0c0,-0.068 0.305,-0.123 0.677,-0.123c0.371,-0 0.676,0.055 0.676,0.123c-0,0.067 -0.305,0.123 -0.676,0.123c-0.372,-0 -0.677,-0.056 -0.677,-0.123Zm2.336,-0.068c0,-0.152 0.132,-0.184 0.646,-0.16c0.355,0.016 0.693,0.054 0.751,0.083c0.219,0.11 -0.252,0.264 -0.813,0.266c-0.446,0.001 -0.584,-0.043 -0.584,-0.189Zm2.668,0.112c-0.247,-0.247 0.523,-0.407 0.877,-0.183c0.115,0.073 0.047,0.127 -0.231,0.183c-0.49,0.098 -0.549,0.098 -0.646,0Zm-38.076,-0.352c-0,-0.122 0.122,-0.184 0.361,-0.184c0.409,0 0.597,0.182 0.304,0.294c-0.344,0.133 -0.665,0.08 -0.665,-0.11Zm42.17,0.062c0,-0.068 0.277,-0.123 0.615,-0.123c0.338,-0 0.615,0.055 0.615,0.123c-0,0.068 -0.277,0.123 -0.615,0.123c-0.338,-0 -0.615,-0.055 -0.615,-0.123Zm3.418,-0.025c0.115,-0.114 0.181,-0.114 0.295,0c0.115,0.115 0.082,0.148 -0.147,0.148c-0.23,-0 -0.262,-0.033 -0.148,-0.148Zm-17.065,-0.713c0,-0.071 0.41,-0.123 0.984,-0.123c0.574,0 0.983,0.052 0.983,0.123c0,0.072 -0.409,0.123 -0.983,0.123c-0.574,0 -0.984,-0.051 -0.984,-0.123Zm2.459,0c0,-0.067 0.28,-0.123 0.622,-0.123c0.384,0 0.593,0.047 0.546,0.123c-0.042,0.068 -0.321,0.123 -0.622,0.123c-0.3,0 -0.546,-0.055 -0.546,-0.123Zm1.599,0c-0,-0.073 0.473,-0.123 1.175,-0.123c0.752,0 1.148,0.045 1.099,0.123c-0.042,0.068 -0.571,0.123 -1.175,0.123c-0.651,0 -1.099,-0.05 -1.099,-0.123Zm2.643,0c-0.047,-0.076 0.163,-0.123 0.546,-0.123c0.342,0 0.622,0.056 0.622,0.123c-0,0.068 -0.246,0.123 -0.546,0.123c-0.3,0 -0.58,-0.055 -0.622,-0.123Zm2.029,0c-0,-0.067 0.193,-0.123 0.43,-0.123c0.237,0 0.43,0.056 0.43,0.123c0,0.068 -0.193,0.123 -0.43,0.123c-0.237,0 -0.43,-0.055 -0.43,-0.123Zm-44.353,-0.453c0.118,-0.031 0.311,-0.031 0.43,-0c0.118,0.031 0.021,0.056 -0.215,0.056c-0.237,-0 -0.334,-0.025 -0.215,-0.056Zm40.172,-0.407c0,-0.068 0.142,-0.123 0.315,-0.123c0.178,-0 0.282,0.053 0.239,0.123c-0.042,0.067 -0.184,0.123 -0.315,0.123c-0.131,-0 -0.239,-0.056 -0.239,-0.123Zm7.377,-0.062c0,-0.141 0.156,-0.184 0.669,-0.184c0.787,-0 1.001,0.181 0.343,0.29c-0.741,0.123 -1.012,0.094 -1.012,-0.106Zm-6.147,-0.061c-0,-0.073 0.43,-0.123 1.045,-0.123c0.615,-0 1.045,0.05 1.045,0.123c-0,0.072 -0.43,0.123 -1.045,0.123c-0.615,-0 -1.045,-0.051 -1.045,-0.123Zm2.705,-0c-0,-0.074 0.491,-0.123 1.229,-0.123c0.738,-0 1.23,0.049 1.23,0.123c-0,0.073 -0.492,0.123 -1.23,0.123c-0.738,-0 -1.229,-0.05 -1.229,-0.123Zm7.376,-0.062c0,-0.113 0.06,-0.185 0.133,-0.161c0.072,0.025 0.132,0.097 0.132,0.161c-0,0.064 -0.06,0.137 -0.132,0.161c-0.073,0.024 -0.133,-0.048 -0.133,-0.161Zm1.168,0.062c0.096,-0.156 0.436,-0.156 0.677,-0c0.137,0.088 0.063,0.119 -0.284,0.121c-0.282,0.001 -0.438,-0.048 -0.393,-0.121Zm4.242,-0.848c0,-0.141 0.263,-0.238 0.461,-0.169c0.268,0.093 0.166,0.279 -0.154,0.279c-0.169,-0 -0.307,-0.049 -0.307,-0.11Zm1.783,-0c-0.374,-0.057 -0.438,-0.097 -0.267,-0.167c0.262,-0.107 0.82,0.007 0.82,0.167c0,0.061 -0.014,0.102 -0.031,0.093c-0.017,-0.01 -0.252,-0.052 -0.522,-0.093l-0,-0Zm-11.004,-0.136c0,-0.073 0.451,-0.123 1.107,-0.123c0.655,0 1.106,0.05 1.106,0.123c0,0.073 -0.451,0.123 -1.106,0.123c-0.656,0 -1.107,-0.05 -1.107,-0.123Zm3.074,0c-0,-0.068 0.107,-0.123 0.238,-0.123c0.132,0 0.273,0.055 0.315,0.123c0.043,0.07 -0.06,0.123 -0.239,0.123c-0.173,0 -0.314,-0.055 -0.314,-0.123Zm1.506,-0.031c0.028,-0.084 0.116,-0.148 0.195,-0.141c0.078,0.007 0.337,0.021 0.573,0.031c0.676,0.029 0.503,0.264 -0.194,0.264c-0.446,0 -0.611,-0.044 -0.574,-0.154l-0,0Zm2.244,0.031c0.041,-0.068 0.211,-0.123 0.376,-0.123c0.165,0 0.3,0.055 0.3,0.123c-0,0.068 -0.169,0.123 -0.376,0.123c-0.22,0 -0.345,-0.051 -0.3,-0.123Zm-2.89,-0.861c0,-0.067 0.056,-0.123 0.123,-0.123c0.068,0 0.123,0.056 0.123,0.123c0,0.068 -0.055,0.123 -0.123,0.123c-0.067,0 -0.123,-0.055 -0.123,-0.123Zm0.861,-0.004c0,-0.065 0.391,-0.119 0.868,-0.119c0.477,0 0.839,0.047 0.803,0.105c-0.09,0.146 -1.671,0.159 -1.671,0.014l0,-0Zm2.029,0.004c-0.046,-0.074 0.124,-0.123 0.43,-0.123c0.306,0 0.476,0.049 0.43,0.123c-0.042,0.068 -0.235,0.123 -0.43,0.123c-0.195,0 -0.389,-0.055 -0.43,-0.123Zm1.905,0c0,-0.067 0.166,-0.123 0.369,-0.123c0.203,0 0.369,0.056 0.369,0.123c-0,0.068 -0.166,0.123 -0.369,0.123c-0.203,0 -0.369,-0.055 -0.369,-0.123Zm1.783,0c-0.043,-0.069 0.06,-0.123 0.239,-0.123c0.173,0 0.314,0.056 0.314,0.123c0,0.068 -0.107,0.123 -0.238,0.123c-0.132,0 -0.273,-0.055 -0.315,-0.123Zm1.414,0c-0,-0.067 0.166,-0.123 0.369,-0.123c0.203,0 0.369,0.056 0.369,0.123c-0,0.068 -0.166,0.123 -0.369,0.123c-0.203,0 -0.369,-0.055 -0.369,-0.123Zm1.414,0c-0.042,-0.067 0.041,-0.123 0.184,-0.123c0.143,0 0.226,0.056 0.185,0.123c-0.042,0.068 -0.125,0.123 -0.185,0.123c-0.059,0 -0.142,-0.055 -0.184,-0.123Zm-63.84,-0.947c-0.29,-0.056 -0.39,-0.283 -0.123,-0.28c0.328,0.003 0.701,0.154 0.637,0.258c-0.037,0.06 -0.106,0.101 -0.153,0.092c-0.046,-0.009 -0.209,-0.041 -0.361,-0.07Zm54.68,-0.036c0,-0.068 0.253,-0.123 0.561,-0.123c0.342,-0 0.531,0.048 0.484,0.123c-0.041,0.067 -0.294,0.123 -0.56,0.123c-0.267,-0 -0.485,-0.056 -0.485,-0.123Zm1.476,-0c-0,-0.068 0.249,-0.123 0.553,-0.123c0.304,-0 0.553,0.055 0.553,0.123c0,0.067 -0.249,0.123 -0.553,0.123c-0.304,-0 -0.553,-0.056 -0.553,-0.123Zm1.598,-0.008c-0,-0.146 2.175,-0.152 2.266,-0.007c0.037,0.06 -0.458,0.112 -1.1,0.115c-0.646,0.004 -1.166,-0.045 -1.166,-0.108l-0,-0Zm3.934,0.008c0,-0.068 0.111,-0.123 0.246,-0.123c0.135,-0 0.246,0.055 0.246,0.123c0,0.067 -0.111,0.123 -0.246,0.123c-0.135,-0 -0.246,-0.056 -0.246,-0.123Zm1.071,-0.014c0.097,-0.097 0.238,-0.1 0.486,-0.01c0.345,0.126 0.344,0.127 -0.137,0.137c-0.356,0.007 -0.449,-0.027 -0.349,-0.127l0,0Zm2.741,0.014c-0,-0.068 0.055,-0.123 0.123,-0.123c0.067,-0 0.122,0.055 0.122,0.123c0,0.067 -0.055,0.123 -0.122,0.123c-0.068,-0 -0.123,-0.056 -0.123,-0.123Zm-11.046,-34.948c-0.07,-0.423 -0.165,-1.515 -0.211,-2.428c-0.046,-0.913 -0.155,-1.835 -0.243,-2.049c-0.18,-0.439 -0.124,-0.427 -3.008,-0.659c-1.666,-0.135 -2.234,-0.245 -2.302,-0.448c-0.063,-0.187 0.449,-0.265 2.705,-0.411c2.373,-0.153 2.503,-0.177 2.67,-0.489c0.071,-0.134 0.186,-0.977 0.255,-1.874c0.202,-2.643 0.292,-3.352 0.422,-3.352c0.143,-0 0.214,0.433 0.489,2.95c0.178,1.636 0.378,2.398 0.629,2.398c0.301,-0 4.165,0.513 4.247,0.563c0.162,0.101 0.126,0.263 -0.076,0.341c-0.1,0.038 -0.916,0.132 -1.814,0.208c-2.212,0.187 -2.53,0.277 -2.741,0.782c-0.092,0.222 -0.229,1.118 -0.302,1.99c-0.153,1.817 -0.352,3.098 -0.494,3.185c-0.054,0.034 -0.155,-0.285 -0.226,-0.707Zm10.819,-6.416c0.023,-0.113 0.097,-0.202 0.165,-0.199c0.183,0.01 0.149,0.285 -0.042,0.349c-0.104,0.034 -0.15,-0.022 -0.123,-0.15l-0,-0Zm2.24,-2.83c-0.085,-0.223 0.039,-0.436 0.255,-0.436c0.187,0 0.349,0.334 0.245,0.503c-0.107,0.174 -0.423,0.132 -0.5,-0.067Zm-7.644,-2.748c-0.241,-1.167 -0.268,-1.141 0.773,-0.751l0.684,0.256l-0.644,0.604c-0.354,0.333 -0.649,0.605 -0.655,0.605c-0.006,-0 -0.077,-0.322 -0.158,-0.714Zm-9.041,-0.843c-0.142,-0.142 -0.09,-0.287 0.102,-0.287c0.102,-0 0.185,0.083 0.185,0.184c-0,0.192 -0.146,0.244 -0.287,0.103Zm16.466,-0.92c-0.338,-2.115 -0.405,-5.228 -0.152,-7.142c0.236,-1.795 0.349,-1.8 0.64,-0.026c0.159,0.964 0.186,1.691 0.127,3.436c-0.097,2.866 -0.43,4.889 -0.615,3.732l-0,-0Zm-11.948,-2.131c-0.071,-0.285 -0.616,-0.553 -1.127,-0.555c-0.084,-0.001 -0.153,-0.05 -0.153,-0.11c-0,-0.06 0.244,-0.145 0.542,-0.19c0.622,-0.093 0.685,-0.19 0.794,-1.228c0.113,-1.068 0.334,-1.004 0.462,0.135c0.105,0.938 0.114,0.956 0.507,1.068c0.503,0.144 0.509,0.281 0.015,0.389c-0.272,0.06 -0.424,0.189 -0.519,0.44c-0.165,0.436 -0.418,0.461 -0.521,0.051l0,-0Zm-9.874,-0.791c-0.204,-0.13 -0.099,-0.477 0.177,-0.583c0.271,-0.104 0.466,0.127 0.367,0.437c-0.087,0.275 -0.265,0.323 -0.544,0.146Zm2.907,-0.696c-0.409,-0.222 -0.437,-0.515 -0.061,-0.655c0.416,-0.155 0.584,-0.031 0.584,0.431c-0,0.467 -0.042,0.485 -0.523,0.224l0,0Zm-6.221,-2.104c-0.076,-0.588 -0.189,-1.12 -0.252,-1.182c-0.063,-0.063 -0.368,-0.142 -0.678,-0.177c-0.532,-0.06 -0.748,-0.233 -0.41,-0.329c0.085,-0.024 0.386,-0.107 0.669,-0.183c0.496,-0.135 0.518,-0.163 0.591,-0.721c0.122,-0.945 0.186,-1.155 0.335,-1.105c0.077,0.025 0.202,0.356 0.278,0.735c0.175,0.874 0.314,1.034 0.99,1.135c0.702,0.105 0.703,0.275 0.001,0.38c-0.832,0.125 -0.913,0.234 -1.068,1.439c-0.076,0.592 -0.179,1.076 -0.229,1.076c-0.049,-0 -0.152,-0.481 -0.228,-1.068l0.001,-0Zm17.927,-1.462c-0.148,-0.389 -0.19,-2.704 -0.056,-3.126c0.139,-0.438 0.361,-0.2 0.526,0.563c0.309,1.428 -0.084,3.572 -0.47,2.563l0,0Zm-3.356,-0.011c-0.141,-0.141 -0.089,-0.287 0.103,-0.287c0.101,0 0.184,0.083 0.184,0.185c0,0.192 -0.145,0.244 -0.287,0.102Zm-6.456,-1.547c-0.078,-0.558 -0.142,-1.211 -0.142,-1.452c0,-0.694 -0.2,-0.855 -1.227,-0.984c-1.524,-0.191 -1.322,-0.344 0.854,-0.645c0.256,-0.036 0.47,-0.735 0.561,-1.837c0.111,-1.332 0.341,-1.267 0.53,0.151c0.199,1.499 0.296,1.724 0.739,1.724c0.504,0 1.125,0.137 1.125,0.247c0,0.052 -0.263,0.133 -0.584,0.182c-0.321,0.048 -0.675,0.136 -0.786,0.195c-0.289,0.155 -0.474,0.777 -0.474,1.59c-0,1.032 -0.134,1.843 -0.306,1.843c-0.093,0 -0.202,-0.379 -0.29,-1.014Zm20.89,-1.783c-0.077,-0.456 -0.172,-1.013 -0.212,-1.238c-0.073,-0.413 -0.39,-0.637 -0.902,-0.637c-0.127,0 -0.386,-0.061 -0.576,-0.136c-0.322,-0.127 -0.329,-0.144 -0.101,-0.237c0.136,-0.056 0.448,-0.105 0.694,-0.11c0.728,-0.014 0.946,-0.296 1.099,-1.422c0.198,-1.452 0.299,-1.436 0.56,0.084c0.101,0.591 0.253,1.081 0.361,1.162c0.102,0.077 0.474,0.177 0.827,0.221c0.614,0.076 1.066,0.245 0.943,0.353c-0.031,0.027 -0.472,0.127 -0.98,0.221l-0.922,0.172l-0.14,0.737c-0.077,0.406 -0.176,0.946 -0.221,1.199c-0.12,0.69 -0.273,0.559 -0.43,-0.369Zm-8.43,-1.752c0.042,-0.067 0.101,-0.123 0.13,-0.123c0.03,0 0.055,0.056 0.055,0.123c-0,0.068 -0.059,0.123 -0.131,0.123c-0.071,0 -0.096,-0.055 -0.054,-0.123l0,0Zm-6.131,-1.506c-0.041,-0.152 -0.075,-0.531 -0.076,-0.842c-0.001,-0.311 -0.06,-0.733 -0.131,-0.937c-0.113,-0.324 -0.209,-0.384 -0.768,-0.479c-0.773,-0.131 -0.824,-0.316 -0.123,-0.436c0.852,-0.145 0.988,-0.271 1.077,-0.992c0.191,-1.552 0.364,-1.687 0.51,-0.4c0.13,1.142 0.195,1.246 0.839,1.343c0.657,0.099 0.728,0.262 0.162,0.376c-0.22,0.044 -0.495,0.107 -0.612,0.14c-0.242,0.068 -0.413,0.621 -0.534,1.735c-0.087,0.793 -0.215,0.975 -0.344,0.492Zm9.29,-1.269c-0.083,-0.309 -0.118,-0.613 -0.08,-0.676c0.12,-0.193 0.629,-0.127 0.934,0.123l0.29,0.236l-0.423,0.44c-0.233,0.242 -0.457,0.439 -0.497,0.439c-0.041,0 -0.141,-0.253 -0.224,-0.562Zm-53.791,-1.005c-0.054,-0.092 -0.249,-1.528 -0.398,-2.92c-0.043,-0.406 -0.127,-0.828 -0.185,-0.938c-0.163,-0.304 -0.958,-0.449 -3.312,-0.604c-1.929,-0.127 -2.508,-0.232 -2.319,-0.421c0.033,-0.034 1.191,-0.175 2.573,-0.315c1.939,-0.195 2.583,-0.304 2.82,-0.475c0.334,-0.242 0.295,-0.013 0.629,-3.671c0.101,-1.103 0.196,-1.629 0.296,-1.629c0.092,-0 0.174,0.291 0.217,0.768c0.082,0.903 0.422,3.446 0.528,3.939c0.04,0.188 0.192,0.417 0.339,0.51c0.237,0.149 3.978,0.684 4.788,0.684c0.304,0 0.552,0.192 0.419,0.325c-0.034,0.034 -0.837,0.14 -1.784,0.235c-2.097,0.21 -2.776,0.354 -3.251,0.692c-0.493,0.352 -0.653,0.788 -0.905,2.476c-0.195,1.303 -0.299,1.61 -0.455,1.344Zm51.016,-1.967c-0.034,-0.119 -0.1,-0.492 -0.147,-0.83c-0.088,-0.644 -0.246,-1.049 -0.464,-1.191c-0.072,-0.046 -0.395,-0.121 -0.72,-0.165c-0.632,-0.087 -0.811,-0.304 -0.251,-0.305c1.053,-0.002 1.504,-0.381 1.507,-1.267c0.002,-0.497 0.121,-0.945 0.25,-0.945c0.055,-0 0.133,0.318 0.174,0.707c0.111,1.058 0.268,1.285 0.99,1.44c0.655,0.141 0.635,0.231 -0.077,0.359c-0.673,0.122 -0.853,0.406 -0.934,1.478c-0.068,0.896 -0.195,1.174 -0.328,0.719Zm5.825,-1.138c0,-0.202 0.064,-0.254 0.277,-0.223c0.152,0.021 0.276,0.122 0.276,0.223c0,0.102 -0.124,0.202 -0.276,0.224c-0.213,0.03 -0.277,-0.021 -0.277,-0.224Zm2.781,-3.719c-0.037,-0.49 -0.1,-1.472 -0.14,-2.182c-0.04,-0.71 -0.102,-1.411 -0.138,-1.558c-0.077,-0.312 -0.669,-0.478 -2.165,-0.604c-0.69,-0.058 -0.953,-0.127 -0.953,-0.25c0,-0.094 0.03,-0.17 0.067,-0.17c0.611,-0 2.522,-0.307 2.725,-0.438c0.333,-0.215 0.38,-0.462 0.565,-2.995c0.092,-1.264 0.199,-2.035 0.286,-2.064c0.189,-0.063 0.256,0.34 0.416,2.485c0.187,2.508 0.154,2.425 1.046,2.618c1.45,0.315 1.922,0.457 1.919,0.578c-0.002,0.068 -0.463,0.208 -1.024,0.312c-0.561,0.104 -1.096,0.236 -1.188,0.293c-0.414,0.255 -0.682,1.336 -1.063,4.283c-0.11,0.856 -0.275,0.712 -0.353,-0.308Zm-4.502,0.215c-0.189,-0.227 0.03,-0.553 0.371,-0.553c0.298,0 0.397,0.321 0.168,0.55c-0.236,0.235 -0.346,0.236 -0.539,0.003l-0,0Zm-43.323,-2.29c-0.13,-0.649 -0.092,-1.214 0.083,-1.214c0.088,0 0.335,0.181 0.548,0.401l0.388,0.4l-0.407,0.399c-0.225,0.219 -0.437,0.399 -0.472,0.399c-0.035,-0 -0.098,-0.173 -0.14,-0.385Zm-3.889,-0.046c0,-0.101 0.056,-0.184 0.123,-0.184c0.068,-0 0.123,0.083 0.123,0.184c0,0.102 -0.055,0.185 -0.123,0.185c-0.067,-0 -0.123,-0.083 -0.123,-0.185Zm8.941,-3.091c-0.038,-0.061 -0.139,-0.908 -0.224,-1.883c-0.18,-2.059 -0.237,-2.164 -1.238,-2.263c-2.455,-0.244 -3.469,-0.399 -3.514,-0.539c-0.035,-0.105 0.099,-0.154 0.421,-0.154c0.778,0 3.604,-0.359 3.846,-0.489c0.323,-0.172 0.448,-0.654 0.48,-1.847c0.028,-1.055 0.238,-2.966 0.337,-3.065c0.162,-0.162 0.277,0.349 0.413,1.836c0.194,2.135 0.305,2.719 0.551,2.899c0.11,0.08 0.959,0.244 1.886,0.363c2.707,0.348 2.925,0.572 0.703,0.726c-1.318,0.091 -2.411,0.347 -2.696,0.631c-0.19,0.19 -0.346,0.872 -0.577,2.512c-0.151,1.079 -0.269,1.465 -0.388,1.273Zm-9.753,-1.857l-0.258,-0.584l0.424,-0.039c0.272,-0.025 0.508,0.036 0.656,0.17c0.225,0.204 0.222,0.22 -0.104,0.614c-0.185,0.223 -0.364,0.409 -0.398,0.414c-0.034,0.005 -0.178,-0.254 -0.32,-0.575Zm56.261,-1.26c0,-0.068 0.056,-0.123 0.123,-0.123c0.068,-0 0.123,0.055 0.123,0.123c0,0.067 -0.055,0.122 -0.123,0.122c-0.067,0 -0.123,-0.055 -0.123,-0.122Zm-35.04,-2.512c0,-0.114 0.106,-0.193 0.257,-0.193c0.299,-0 0.257,0.287 -0.052,0.347c-0.121,0.023 -0.205,-0.039 -0.205,-0.154l0,0Zm-5.778,-2.103c-0,-0.519 0.017,-0.549 0.244,-0.427c0.262,0.14 0.446,0.641 0.314,0.854c-0.045,0.072 -0.188,0.13 -0.319,0.13c-0.202,0 -0.239,-0.087 -0.239,-0.557Zm34.375,0.452c-0.036,-0.058 -0.147,-0.764 -0.247,-1.57c-0.1,-0.806 -0.217,-1.558 -0.26,-1.67c-0.091,-0.238 -0.358,-0.3 -1.748,-0.411c-0.922,-0.073 -1.192,-0.177 -0.912,-0.35c0.056,-0.034 0.602,-0.127 1.214,-0.205c0.612,-0.079 1.174,-0.181 1.25,-0.228c0.119,-0.074 0.273,-0.926 0.576,-3.183c0.123,-0.916 0.346,-0.518 0.557,0.994c0.205,1.469 0.396,2.124 0.646,2.212c0.078,0.028 0.419,0.063 0.757,0.077c0.831,0.036 1.447,0.175 1.502,0.339c0.069,0.208 -0.295,0.3 -1.482,0.378c-1.264,0.083 -1.248,0.065 -1.368,1.524c-0.145,1.757 -0.208,2.198 -0.314,2.198c-0.058,0 -0.136,-0.047 -0.171,-0.105Zm5.521,-1.171c-0.26,-0.19 -0.15,-0.445 0.192,-0.445c0.154,0 0.238,0.084 0.238,0.239c0,0.323 -0.164,0.401 -0.43,0.206Zm-35.633,-0.937c-0.037,-0.101 -0.132,-0.599 -0.212,-1.106c-0.167,-1.065 -0.239,-1.186 -0.771,-1.292c-1.025,-0.206 -1.096,-0.361 -0.219,-0.478c0.331,-0.044 0.666,-0.157 0.745,-0.252c0.079,-0.095 0.209,-0.605 0.289,-1.132c0.081,-0.528 0.202,-0.961 0.269,-0.962c0.068,-0.002 0.194,0.465 0.281,1.036c0.087,0.571 0.181,1.062 0.21,1.091c0.028,0.028 0.312,0.1 0.631,0.159c0.319,0.06 0.61,0.139 0.648,0.177c0.102,0.103 -0.259,0.296 -0.557,0.298c-0.518,0.004 -0.785,0.377 -0.925,1.293c-0.158,1.039 -0.292,1.44 -0.389,1.168Zm6.241,-2.098l-0.361,-0.378l0.43,-0.352l0.431,-0.352l0.143,0.273c0.11,0.207 0.11,0.381 0.001,0.729c-0.079,0.251 -0.174,0.457 -0.213,0.457c-0.038,-0 -0.232,-0.17 -0.431,-0.377Zm-19.641,-1.178c-0.174,-0.174 -0.075,-0.412 0.171,-0.412c0.172,-0 0.242,0.067 0.215,0.205c-0.044,0.226 -0.254,0.339 -0.386,0.207Zm17.006,-0.658c-0,-0.185 0.064,-0.252 0.215,-0.223c0.118,0.023 0.215,0.123 0.215,0.223c-0,0.1 -0.097,0.2 -0.215,0.222c-0.151,0.03 -0.215,-0.037 -0.215,-0.222Zm-9.098,-1.352c-0,-0.068 0.082,-0.123 0.184,-0.123c0.101,-0 0.184,0.055 0.184,0.123c0,0.067 -0.083,0.122 -0.184,0.122c-0.102,0 -0.184,-0.055 -0.184,-0.122Zm16.198,-0.994c-0.49,-0.285 -0.093,-0.868 0.408,-0.6c0.27,0.145 0.305,0.37 0.09,0.585c-0.177,0.177 -0.219,0.178 -0.498,0.015l-0,0Zm16.505,-1.155c0,-0.625 0.073,-0.666 0.538,-0.301c0.368,0.29 0.338,0.405 -0.177,0.671l-0.361,0.187l0,-0.557Z" style="fill-rule:nonzero;"/></g></svg>